<svg width="800" height="800" viewBox="0 0 800 800" fill="none" xmlns="http://www.w3.org/2000/svg">
<g clip-path="url(#clip0_101_22464)">
<rect x="4" y="4" width="792" height="792" stroke="#253360" stroke-width="8"/>
<path d="M161.479 546.045C167.373 546.045 172.614 545.223 177.204 543.58C181.794 541.88 185.166 540.208 187.319 538.565L196.414 556.67C193.808 558.937 189.303 561.232 182.899 563.555C176.553 565.878 168.959 567.04 160.119 567.04C151.846 567.04 144.111 565.595 136.914 562.705C129.718 559.758 123.399 555.678 117.959 550.465C112.519 545.195 108.269 539.047 105.209 532.02C102.149 524.937 100.619 517.287 100.619 509.07C100.619 500.853 102.121 493.203 105.124 486.12C108.184 478.98 112.434 472.775 117.874 467.505C123.314 462.235 129.633 458.127 136.829 455.18C144.083 452.233 151.846 450.76 160.119 450.76C168.959 450.76 176.553 451.922 182.899 454.245C189.303 456.568 193.808 458.863 196.414 461.13L187.319 479.235C185.166 477.592 181.794 475.948 177.204 474.305C172.614 472.605 167.373 471.755 161.479 471.755C155.473 471.755 150.118 472.718 145.414 474.645C140.768 476.572 136.801 479.263 133.514 482.72C130.284 486.12 127.819 490.058 126.119 494.535C124.419 499.012 123.569 503.772 123.569 508.815C123.569 513.915 124.419 518.732 126.119 523.265C127.819 527.742 130.284 531.708 133.514 535.165C136.801 538.565 140.768 541.228 145.414 543.155C150.118 545.082 155.473 546.045 161.479 546.045ZM267.5 565V552.845C266.99 554.092 265.686 555.848 263.59 558.115C261.493 560.382 258.66 562.45 255.09 564.32C251.576 566.133 247.44 567.04 242.68 567.04C235.993 567.04 230.071 565.453 224.915 562.28C219.758 559.05 215.706 554.658 212.76 549.105C209.87 543.495 208.425 537.177 208.425 530.15C208.425 523.123 209.87 516.833 212.76 511.28C215.706 505.67 219.758 501.25 224.915 498.02C230.071 494.79 235.993 493.175 242.68 493.175C247.326 493.175 251.35 493.968 254.75 495.555C258.206 497.085 260.983 498.898 263.08 500.995C265.233 503.035 266.621 504.877 267.245 506.52V495.215H288.665V565H267.5ZM229.59 530.15C229.59 534.06 230.468 537.517 232.225 540.52C233.981 543.467 236.305 545.762 239.195 547.405C242.085 549.048 245.23 549.87 248.63 549.87C252.2 549.87 255.373 549.048 258.15 547.405C260.926 545.705 263.108 543.382 264.695 540.435C266.338 537.432 267.16 534.003 267.16 530.15C267.16 526.297 266.338 522.897 264.695 519.95C263.108 516.947 260.926 514.595 258.15 512.895C255.373 511.195 252.2 510.345 248.63 510.345C245.23 510.345 242.085 511.195 239.195 512.895C236.305 514.538 233.981 516.862 232.225 519.865C230.468 522.812 229.59 526.24 229.59 530.15ZM300.438 495.215H313.018V466.57H334.438V495.215H350.928V513.15H334.438V538.395C334.438 541.738 334.977 544.345 336.053 546.215C337.13 548.028 338.83 548.935 341.153 548.935C342.91 548.935 344.355 548.595 345.488 547.915C346.622 547.178 347.302 546.668 347.528 546.385L355.178 561.855C354.838 562.195 353.733 562.79 351.863 563.64C350.05 564.49 347.698 565.255 344.808 565.935C341.975 566.672 338.773 567.04 335.203 567.04C328.8 567.04 323.502 565.198 319.308 561.515C315.115 557.775 313.018 551.995 313.018 544.175V513.15H300.438V495.215ZM420.898 565V552.845C420.388 554.092 419.085 555.848 416.988 558.115C414.891 560.382 412.058 562.45 408.488 564.32C404.975 566.133 400.838 567.04 396.078 567.04C389.391 567.04 383.47 565.453 378.313 562.28C373.156 559.05 369.105 554.658 366.158 549.105C363.268 543.495 361.823 537.177 361.823 530.15C361.823 523.123 363.268 516.833 366.158 511.28C369.105 505.67 373.156 501.25 378.313 498.02C383.47 494.79 389.391 493.175 396.078 493.175C400.725 493.175 404.748 493.968 408.148 495.555C411.605 497.085 414.381 498.898 416.478 500.995C418.631 503.035 420.02 504.877 420.643 506.52V495.215H442.063V565H420.898ZM382.988 530.15C382.988 534.06 383.866 537.517 385.623 540.52C387.38 543.467 389.703 545.762 392.593 547.405C395.483 549.048 398.628 549.87 402.028 549.87C405.598 549.87 408.771 549.048 411.548 547.405C414.325 545.705 416.506 543.382 418.093 540.435C419.736 537.432 420.558 534.003 420.558 530.15C420.558 526.297 419.736 522.897 418.093 519.95C416.506 516.947 414.325 514.595 411.548 512.895C408.771 511.195 405.598 510.345 402.028 510.345C398.628 510.345 395.483 511.195 392.593 512.895C389.703 514.538 387.38 516.862 385.623 519.865C383.866 522.812 382.988 526.24 382.988 530.15ZM481.632 565H459.957V448.04H481.632V565ZM532.773 546.045L553.428 495.215H574.763L527.078 600.36H505.403L521.468 565L492.483 495.215H514.073L532.773 546.045ZM613.291 493.175C617.485 493.175 621.366 493.572 624.936 494.365C628.506 495.102 631.51 495.952 633.946 496.915C636.44 497.878 638.083 498.7 638.876 499.38L631.481 512.385C630.348 511.478 628.308 510.402 625.361 509.155C622.471 507.908 619.241 507.285 615.671 507.285C612.441 507.285 609.721 507.852 607.511 508.985C605.301 510.062 604.196 511.705 604.196 513.915C604.196 516.125 605.386 517.882 607.766 519.185C610.146 520.488 613.461 521.622 617.711 522.585C621.281 523.322 624.795 524.455 628.251 525.985C631.708 527.458 634.57 529.612 636.836 532.445C639.103 535.222 640.236 538.933 640.236 543.58C640.236 548.17 639.245 551.995 637.261 555.055C635.335 558.058 632.756 560.438 629.526 562.195C626.296 563.952 622.755 565.198 618.901 565.935C615.048 566.672 611.223 567.04 607.426 567.04C602.496 567.04 598.161 566.558 594.421 565.595C590.681 564.688 587.593 563.64 585.156 562.45C582.776 561.203 581.076 560.155 580.056 559.305L587.451 544.855C588.925 546.158 591.333 547.603 594.676 549.19C598.076 550.72 601.731 551.485 605.641 551.485C609.721 551.485 612.923 550.777 615.246 549.36C617.626 547.943 618.816 546.045 618.816 543.665C618.816 541.908 618.25 540.492 617.116 539.415C615.983 538.282 614.425 537.347 612.441 536.61C610.458 535.873 608.135 535.222 605.471 534.655C603.035 534.145 600.541 533.408 597.991 532.445C595.441 531.425 593.061 530.093 590.851 528.45C588.641 526.807 586.856 524.767 585.496 522.33C584.136 519.837 583.456 516.862 583.456 513.405C583.456 508.985 584.873 505.302 587.706 502.355C590.54 499.352 594.223 497.085 598.756 495.555C603.29 493.968 608.135 493.175 613.291 493.175ZM648.241 495.215H660.821V466.57H682.241V495.215H698.731V513.15H682.241V538.395C682.241 541.738 682.779 544.345 683.856 546.215C684.933 548.028 686.633 548.935 688.956 548.935C690.713 548.935 692.158 548.595 693.291 547.915C694.424 547.178 695.104 546.668 695.331 546.385L702.981 561.855C702.641 562.195 701.536 562.79 699.666 563.64C697.853 564.49 695.501 565.255 692.611 565.935C689.778 566.672 686.576 567.04 683.006 567.04C676.603 567.04 671.304 565.198 667.111 561.515C662.918 557.775 660.821 551.995 660.821 544.175V513.15H648.241V495.215Z" fill="#253360"/>
<path d="M294.103 687V638.98H324.483V643.67H299.423V660.4H322.103V665.09H299.423V687H294.103ZM350.086 687.84C346.446 687.84 343.319 687.257 340.706 686.09C338.093 684.877 336.086 682.94 334.686 680.28C333.286 677.573 332.586 674.027 332.586 669.64V638.98H337.976V670.69C337.976 674.89 339.026 678.017 341.126 680.07C343.226 682.123 346.213 683.15 350.086 683.15C354.099 683.15 357.179 682.123 359.326 680.07C361.519 678.017 362.616 674.89 362.616 670.69V638.98H367.936V669.64C367.936 674.027 367.213 677.573 365.766 680.28C364.319 682.94 362.266 684.877 359.606 686.09C356.946 687.257 353.773 687.84 350.086 687.84ZM379.347 687V638.98H384.597L406.437 672.02C406.67 672.3 406.95 672.72 407.277 673.28C407.604 673.793 407.93 674.33 408.257 674.89C408.63 675.45 408.934 675.94 409.167 676.36H409.447C409.447 675.567 409.447 674.797 409.447 674.05C409.447 673.257 409.447 672.533 409.447 671.88V638.98H414.697V687H409.937L387.677 653.33C387.397 652.91 386.954 652.233 386.347 651.3C385.787 650.367 385.297 649.55 384.877 648.85H384.527C384.527 649.597 384.527 650.367 384.527 651.16C384.574 651.953 384.597 652.723 384.597 653.47V687H379.347ZM426.31 687V638.98H442.13C446.843 638.98 450.81 639.82 454.03 641.5C457.297 643.133 459.77 645.723 461.45 649.27C463.13 652.77 463.97 657.343 463.97 662.99C463.97 668.543 463.13 673.093 461.45 676.64C459.77 680.187 457.297 682.8 454.03 684.48C450.81 686.16 446.82 687 442.06 687H426.31ZM431.63 682.31H441.71C444.277 682.31 446.563 682.007 448.57 681.4C450.623 680.793 452.397 679.79 453.89 678.39C455.383 676.943 456.503 675.053 457.25 672.72C458.043 670.34 458.44 667.423 458.44 663.97V662.29C458.44 658.743 458.043 655.78 457.25 653.4C456.503 651.02 455.383 649.13 453.89 647.73C452.443 646.283 450.693 645.257 448.64 644.65C446.587 643.997 444.277 643.67 441.71 643.67H431.63V682.31ZM499.62 687.84C496.493 687.84 493.763 687.233 491.43 686.02C489.143 684.807 487.37 683.033 486.11 680.7C484.896 678.32 484.29 675.45 484.29 672.09H489.19C489.19 674.61 489.656 676.733 490.59 678.46C491.523 680.187 492.76 681.493 494.3 682.38C495.886 683.22 497.66 683.64 499.62 683.64C501.673 683.64 503.446 683.22 504.94 682.38C506.48 681.493 507.67 680.163 508.51 678.39C509.396 676.57 509.84 674.213 509.84 671.32C509.84 668.847 509.466 666.77 508.72 665.09C508.02 663.41 506.946 662.173 505.5 661.38C504.1 660.54 502.373 660.12 500.32 660.12C498.92 660.12 497.566 660.377 496.26 660.89C494.953 661.357 493.763 662.057 492.69 662.99C491.663 663.877 490.823 664.997 490.17 666.35L485.83 665.58L487.72 638.98H512.57V643.6H491.99L490.87 660.05C491.616 659.303 492.48 658.627 493.46 658.02C494.44 657.367 495.56 656.853 496.82 656.48C498.08 656.107 499.48 655.92 501.02 655.92C503.68 655.92 506.036 656.433 508.09 657.46C510.19 658.487 511.846 660.12 513.06 662.36C514.273 664.553 514.88 667.447 514.88 671.04C514.88 674.633 514.273 677.69 513.06 680.21C511.846 682.73 510.096 684.643 507.81 685.95C505.57 687.21 502.84 687.84 499.62 687.84Z" fill="#253360"/>
<path d="M609 670H708" stroke="#253360" stroke-width="3"/>
<path d="M99 670H198" stroke="#253360" stroke-width="3"/>
<g clip-path="url(#clip1_101_22464)">
<path fill-rule="evenodd" clip-rule="evenodd" d="M501.697 207C501.898 204.36 502 201.692 502 199C502 141.562 455.438 95 398 95C340.562 95 294 141.562 294 199C294 201.692 294.102 204.36 294.303 207H311V199H311.001C311.271 150.905 350.342 112 398.5 112C443.957 112 481.318 146.664 485.592 191H469.5C465.297 155.518 435.112 128 398.5 128C359.178 128 327.271 159.742 327.002 199H327V207H334H343H359H368H375V199C375 185.745 385.745 175 399 175C412.255 175 423 185.745 423 199V207H438V199H437.997C437.729 177.415 420.148 160 398.5 160C379.603 160 363.805 173.27 359.917 191H343.647C347.738 164.383 370.738 144 398.5 144C428.985 144 453.729 168.578 453.998 199H454V207H460H470H486H494H501.697ZM296.783 223C307.618 268.867 348.823 303 398 303C447.177 303 488.382 268.867 499.217 223H296.783Z" fill="#253360"/>
<rect x="373" y="378" width="50" height="16" fill="#253360"/>
<path d="M394 324C386.5 304 381.5 303 374 300L399 293V383.5H381C381 383.5 381.211 381.035 381.5 371.5C382.5 338.5 395.448 327.861 394 324Z" fill="#253360"/>
<path d="M402 324C409.5 304 414.5 303 422 300L397 293V383.5H415C415 383.5 414.789 381.035 414.5 371.5C413.5 338.5 400.552 327.861 402 324Z" fill="#253360"/>
<path d="M377.957 316.823C385.327 313.431 397.746 312.291 401.28 314.266C398.331 314.436 389.51 318.306 384.171 323.769C377.956 330.13 379.106 337.603 372.765 342.778C366.403 347.968 359.239 341.973 360.409 336.124C361.635 329.996 368.745 321.063 377.957 316.823Z" fill="#253360"/>
<path d="M295.349 251.64C298.251 259.216 298.576 271.684 296.374 275.08C296.397 272.127 293.113 263.071 288.011 257.387C282.071 250.769 274.538 251.427 269.79 244.76C265.027 238.073 271.478 231.317 277.238 232.867C283.272 234.491 291.721 242.17 295.349 251.64Z" fill="#253360"/>
<path d="M355.135 307.65C366.015 307.786 381.714 313.559 384.857 317.986C381.187 316.494 368.274 316.1 358.661 319.642C347.469 323.766 344.557 333.48 333.896 336.095C323.201 338.718 317.977 327.329 322.763 320.919C327.778 314.203 341.534 307.479 355.135 307.65Z" fill="#253360"/>
<path d="M330.285 294.501C340.266 298.834 352.511 310.229 353.698 315.526C350.89 312.731 339.134 307.374 328.899 306.924C316.983 306.399 310.541 314.232 299.698 312.521C288.821 310.804 288.407 298.281 295.3 294.22C302.521 289.966 317.808 289.084 330.285 294.501Z" fill="#253360"/>
<path d="M307.445 273.906C314.586 279.782 321.926 291.957 321.656 296.563C320.016 293.622 311.664 286.495 303.406 283.732C293.793 280.516 286.697 285.409 278.238 281.474C269.752 277.527 272.344 267.197 278.926 265.492C285.821 263.705 298.518 266.561 307.445 273.906Z" fill="#253360"/>
<path d="M418.372 316.823C411.002 313.431 398.582 312.291 395.049 314.266C397.998 314.436 406.819 318.306 412.158 323.769C418.372 330.13 417.223 337.603 423.564 342.778C429.925 347.968 437.09 341.973 435.92 336.124C434.694 329.996 427.584 321.063 418.372 316.823Z" fill="#253360"/>
<path d="M500.98 251.64C498.078 259.216 497.753 271.684 499.954 275.08C499.931 272.127 503.215 263.071 508.318 257.387C514.258 250.769 521.791 251.427 526.539 244.76C531.302 238.073 524.851 231.317 519.091 232.867C513.056 234.491 504.608 242.17 500.98 251.64Z" fill="#253360"/>
<path d="M441.194 307.65C430.313 307.786 414.614 313.559 411.471 317.986C415.141 316.494 428.055 316.1 437.668 319.642C448.859 323.766 451.772 333.48 462.433 336.095C473.127 338.718 478.352 327.329 473.565 320.919C468.551 314.203 454.794 307.479 441.194 307.65Z" fill="#253360"/>
<path d="M466.044 294.501C456.063 298.834 443.818 310.229 442.631 315.526C445.438 312.731 457.195 307.374 467.43 306.924C479.345 306.399 485.788 314.232 496.631 312.521C507.507 310.804 507.921 298.281 501.029 294.22C493.807 289.966 478.52 289.084 466.044 294.501Z" fill="#253360"/>
<path d="M488.884 273.906C481.742 279.782 474.402 291.957 474.672 296.563C476.312 293.622 484.665 286.495 492.922 283.732C502.535 280.516 509.632 285.409 518.091 281.474C526.576 277.527 523.985 267.197 517.403 265.492C510.507 263.705 497.811 266.561 488.884 273.906Z" fill="#253360"/>
</g>
</g>
<defs>
<clipPath id="clip0_101_22464">
<rect width="800" height="800" fill="white"/>
</clipPath>
<clipPath id="clip1_101_22464">
<rect width="400" height="400" fill="white" transform="translate(198 23)"/>
</clipPath>
</defs>
</svg>
