<svg width="800" height="800" viewBox="0 0 800 800" fill="none" xmlns="http://www.w3.org/2000/svg">
<g clip-path="url(#clip0_101_22464)">
<rect x="4" y="4" width="792" height="792" stroke="#253360" stroke-width="8"/>
<path d="M161.479 523.045C167.373 523.045 172.614 522.223 177.204 520.58C181.794 518.88 185.166 517.208 187.319 515.565L196.414 533.67C193.808 535.937 189.303 538.232 182.899 540.555C176.553 542.878 168.959 544.04 160.119 544.04C151.846 544.04 144.111 542.595 136.914 539.705C129.718 536.758 123.399 532.678 117.959 527.465C112.519 522.195 108.269 516.047 105.209 509.02C102.149 501.937 100.619 494.287 100.619 486.07C100.619 477.853 102.121 470.203 105.124 463.12C108.184 455.98 112.434 449.775 117.874 444.505C123.314 439.235 129.633 435.127 136.829 432.18C144.083 429.233 151.846 427.76 160.119 427.76C168.959 427.76 176.553 428.922 182.899 431.245C189.303 433.568 193.808 435.863 196.414 438.13L187.319 456.235C185.166 454.592 181.794 452.948 177.204 451.305C172.614 449.605 167.373 448.755 161.479 448.755C155.473 448.755 150.118 449.718 145.414 451.645C140.768 453.572 136.801 456.263 133.514 459.72C130.284 463.12 127.819 467.058 126.119 471.535C124.419 476.012 123.569 480.772 123.569 485.815C123.569 490.915 124.419 495.732 126.119 500.265C127.819 504.742 130.284 508.708 133.514 512.165C136.801 515.565 140.768 518.228 145.414 520.155C150.118 522.082 155.473 523.045 161.479 523.045ZM267.5 542V529.845C266.99 531.092 265.686 532.848 263.59 535.115C261.493 537.382 258.66 539.45 255.09 541.32C251.576 543.133 247.44 544.04 242.68 544.04C235.993 544.04 230.071 542.453 224.915 539.28C219.758 536.05 215.706 531.658 212.76 526.105C209.87 520.495 208.425 514.177 208.425 507.15C208.425 500.123 209.87 493.833 212.76 488.28C215.706 482.67 219.758 478.25 224.915 475.02C230.071 471.79 235.993 470.175 242.68 470.175C247.326 470.175 251.35 470.968 254.75 472.555C258.206 474.085 260.983 475.898 263.08 477.995C265.233 480.035 266.621 481.877 267.245 483.52V472.215H288.665V542H267.5ZM229.59 507.15C229.59 511.06 230.468 514.517 232.225 517.52C233.981 520.467 236.305 522.762 239.195 524.405C242.085 526.048 245.23 526.87 248.63 526.87C252.2 526.87 255.373 526.048 258.15 524.405C260.926 522.705 263.108 520.382 264.695 517.435C266.338 514.432 267.16 511.003 267.16 507.15C267.16 503.297 266.338 499.897 264.695 496.95C263.108 493.947 260.926 491.595 258.15 489.895C255.373 488.195 252.2 487.345 248.63 487.345C245.23 487.345 242.085 488.195 239.195 489.895C236.305 491.538 233.981 493.862 232.225 496.865C230.468 499.812 229.59 503.24 229.59 507.15ZM300.438 472.215H313.018V443.57H334.438V472.215H350.928V490.15H334.438V515.395C334.438 518.738 334.977 521.345 336.053 523.215C337.13 525.028 338.83 525.935 341.153 525.935C342.91 525.935 344.355 525.595 345.488 524.915C346.622 524.178 347.302 523.668 347.528 523.385L355.178 538.855C354.838 539.195 353.733 539.79 351.863 540.64C350.05 541.49 347.698 542.255 344.808 542.935C341.975 543.672 338.773 544.04 335.203 544.04C328.8 544.04 323.502 542.198 319.308 538.515C315.115 534.775 313.018 528.995 313.018 521.175V490.15H300.438V472.215ZM420.898 542V529.845C420.388 531.092 419.085 532.848 416.988 535.115C414.891 537.382 412.058 539.45 408.488 541.32C404.975 543.133 400.838 544.04 396.078 544.04C389.391 544.04 383.47 542.453 378.313 539.28C373.156 536.05 369.105 531.658 366.158 526.105C363.268 520.495 361.823 514.177 361.823 507.15C361.823 500.123 363.268 493.833 366.158 488.28C369.105 482.67 373.156 478.25 378.313 475.02C383.47 471.79 389.391 470.175 396.078 470.175C400.725 470.175 404.748 470.968 408.148 472.555C411.605 474.085 414.381 475.898 416.478 477.995C418.631 480.035 420.02 481.877 420.643 483.52V472.215H442.063V542H420.898ZM382.988 507.15C382.988 511.06 383.866 514.517 385.623 517.52C387.38 520.467 389.703 522.762 392.593 524.405C395.483 526.048 398.628 526.87 402.028 526.87C405.598 526.87 408.771 526.048 411.548 524.405C414.325 522.705 416.506 520.382 418.093 517.435C419.736 514.432 420.558 511.003 420.558 507.15C420.558 503.297 419.736 499.897 418.093 496.95C416.506 493.947 414.325 491.595 411.548 489.895C408.771 488.195 405.598 487.345 402.028 487.345C398.628 487.345 395.483 488.195 392.593 489.895C389.703 491.538 387.38 493.862 385.623 496.865C383.866 499.812 382.988 503.24 382.988 507.15ZM481.632 542H459.957V425.04H481.632V542ZM532.773 523.045L553.428 472.215H574.763L527.078 577.36H505.403L521.468 542L492.483 472.215H514.073L532.773 523.045ZM613.291 470.175C617.485 470.175 621.366 470.572 624.936 471.365C628.506 472.102 631.51 472.952 633.946 473.915C636.44 474.878 638.083 475.7 638.876 476.38L631.481 489.385C630.348 488.478 628.308 487.402 625.361 486.155C622.471 484.908 619.241 484.285 615.671 484.285C612.441 484.285 609.721 484.852 607.511 485.985C605.301 487.062 604.196 488.705 604.196 490.915C604.196 493.125 605.386 494.882 607.766 496.185C610.146 497.488 613.461 498.622 617.711 499.585C621.281 500.322 624.795 501.455 628.251 502.985C631.708 504.458 634.57 506.612 636.836 509.445C639.103 512.222 640.236 515.933 640.236 520.58C640.236 525.17 639.245 528.995 637.261 532.055C635.335 535.058 632.756 537.438 629.526 539.195C626.296 540.952 622.755 542.198 618.901 542.935C615.048 543.672 611.223 544.04 607.426 544.04C602.496 544.04 598.161 543.558 594.421 542.595C590.681 541.688 587.593 540.64 585.156 539.45C582.776 538.203 581.076 537.155 580.056 536.305L587.451 521.855C588.925 523.158 591.333 524.603 594.676 526.19C598.076 527.72 601.731 528.485 605.641 528.485C609.721 528.485 612.923 527.777 615.246 526.36C617.626 524.943 618.816 523.045 618.816 520.665C618.816 518.908 618.25 517.492 617.116 516.415C615.983 515.282 614.425 514.347 612.441 513.61C610.458 512.873 608.135 512.222 605.471 511.655C603.035 511.145 600.541 510.408 597.991 509.445C595.441 508.425 593.061 507.093 590.851 505.45C588.641 503.807 586.856 501.767 585.496 499.33C584.136 496.837 583.456 493.862 583.456 490.405C583.456 485.985 584.873 482.302 587.706 479.355C590.54 476.352 594.223 474.085 598.756 472.555C603.29 470.968 608.135 470.175 613.291 470.175ZM648.241 472.215H660.821V443.57H682.241V472.215H698.731V490.15H682.241V515.395C682.241 518.738 682.779 521.345 683.856 523.215C684.933 525.028 686.633 525.935 688.956 525.935C690.713 525.935 692.158 525.595 693.291 524.915C694.424 524.178 695.104 523.668 695.331 523.385L702.981 538.855C702.641 539.195 701.536 539.79 699.666 540.64C697.853 541.49 695.501 542.255 692.611 542.935C689.778 543.672 686.576 544.04 683.006 544.04C676.603 544.04 671.304 542.198 667.111 538.515C662.918 534.775 660.821 528.995 660.821 521.175V490.15H648.241V472.215Z" fill="#253360"/>
<path d="M294.74 647V598.98H325.12V603.67H300.06V620.4H322.74V625.09H300.06V647H294.74ZM350.723 647.84C347.083 647.84 343.956 647.257 341.343 646.09C338.729 644.877 336.723 642.94 335.323 640.28C333.923 637.573 333.223 634.027 333.223 629.64V598.98H338.613V630.69C338.613 634.89 339.663 638.017 341.763 640.07C343.863 642.123 346.849 643.15 350.723 643.15C354.736 643.15 357.816 642.123 359.963 640.07C362.156 638.017 363.253 634.89 363.253 630.69V598.98H368.573V629.64C368.573 634.027 367.849 637.573 366.403 640.28C364.956 642.94 362.903 644.877 360.243 646.09C357.583 647.257 354.409 647.84 350.723 647.84ZM379.984 647V598.98H385.234L407.074 632.02C407.307 632.3 407.587 632.72 407.914 633.28C408.24 633.793 408.567 634.33 408.894 634.89C409.267 635.45 409.57 635.94 409.804 636.36H410.084C410.084 635.567 410.084 634.797 410.084 634.05C410.084 633.257 410.084 632.533 410.084 631.88V598.98H415.334V647H410.574L388.314 613.33C388.034 612.91 387.59 612.233 386.984 611.3C386.424 610.367 385.934 609.55 385.514 608.85H385.164C385.164 609.597 385.164 610.367 385.164 611.16C385.21 611.953 385.234 612.723 385.234 613.47V647H379.984ZM426.947 647V598.98H442.767C447.48 598.98 451.447 599.82 454.667 601.5C457.933 603.133 460.407 605.723 462.087 609.27C463.767 612.77 464.607 617.343 464.607 622.99C464.607 628.543 463.767 633.093 462.087 636.64C460.407 640.187 457.933 642.8 454.667 644.48C451.447 646.16 447.457 647 442.697 647H426.947ZM432.267 642.31H442.347C444.913 642.31 447.2 642.007 449.207 641.4C451.26 640.793 453.033 639.79 454.527 638.39C456.02 636.943 457.14 635.053 457.887 632.72C458.68 630.34 459.077 627.423 459.077 623.97V622.29C459.077 618.743 458.68 615.78 457.887 613.4C457.14 611.02 456.02 609.13 454.527 607.73C453.08 606.283 451.33 605.257 449.277 604.65C447.223 603.997 444.913 603.67 442.347 603.67H432.267V642.31ZM499.066 647.84C495.893 647.84 493.35 647.21 491.436 645.95C489.523 644.69 488.123 642.94 487.236 640.7C486.35 638.46 485.906 635.893 485.906 633H490.876C490.876 635.427 491.18 637.433 491.786 639.02C492.393 640.607 493.326 641.773 494.586 642.52C495.846 643.267 497.433 643.64 499.346 643.64C502.193 643.64 504.386 642.847 505.926 641.26C507.513 639.673 508.61 637.363 509.216 634.33C509.823 631.25 510.15 627.587 510.196 623.34C509.45 624.787 508.446 626 507.186 626.98C505.973 627.96 504.62 628.707 503.126 629.22C501.633 629.687 500.046 629.92 498.366 629.92C495.146 629.92 492.51 629.243 490.456 627.89C488.403 626.537 486.863 624.693 485.836 622.36C484.81 620.027 484.296 617.39 484.296 614.45C484.296 611.09 484.926 608.197 486.186 605.77C487.493 603.343 489.243 601.477 491.436 600.17C493.676 598.817 496.196 598.14 498.996 598.14C501.61 598.14 503.92 598.513 505.926 599.26C507.933 600.007 509.613 601.267 510.966 603.04C512.32 604.813 513.346 607.217 514.046 610.25C514.793 613.283 515.166 617.063 515.166 621.59C515.166 626.49 514.816 630.62 514.116 633.98C513.416 637.34 512.39 640.047 511.036 642.1C509.683 644.107 508.003 645.577 505.996 646.51C503.99 647.397 501.68 647.84 499.066 647.84ZM499.276 625.79C501.61 625.79 503.523 625.277 505.016 624.25C506.556 623.177 507.7 621.753 508.446 619.98C509.193 618.16 509.566 616.153 509.566 613.96C509.566 611.813 509.216 609.877 508.516 608.15C507.816 606.377 506.72 604.953 505.226 603.88C503.733 602.807 501.82 602.27 499.486 602.27C497.06 602.27 495.1 602.83 493.606 603.95C492.16 605.07 491.086 606.54 490.386 608.36C489.686 610.18 489.336 612.21 489.336 614.45C489.336 616.503 489.663 618.393 490.316 620.12C491.016 621.847 492.09 623.223 493.536 624.25C494.983 625.277 496.896 625.79 499.276 625.79Z" fill="#253360"/>
<path d="M288.761 708.48C284.121 708.48 280.667 707.307 278.401 704.96C276.134 702.587 275.001 699.027 275.001 694.28C275.001 691.213 275.507 688.627 276.521 686.52C277.561 684.413 279.107 682.813 281.161 681.72C283.214 680.627 285.787 680.08 288.881 680.08C290.827 680.08 292.547 680.293 294.041 680.72C295.534 681.12 296.787 681.733 297.801 682.56C298.841 683.36 299.614 684.373 300.121 685.6C300.654 686.827 300.921 688.267 300.921 689.92H298.801C298.801 688.4 298.547 687.133 298.041 686.12C297.561 685.107 296.867 684.293 295.961 683.68C295.081 683.067 294.027 682.64 292.801 682.4C291.574 682.133 290.241 682 288.801 682C287.067 682 285.494 682.213 284.081 682.64C282.667 683.067 281.454 683.76 280.441 684.72C279.427 685.653 278.641 686.88 278.081 688.4C277.547 689.893 277.281 691.72 277.281 693.88V694.72C277.281 697.6 277.734 699.907 278.641 701.64C279.574 703.373 280.881 704.627 282.561 705.4C284.241 706.173 286.214 706.56 288.481 706.56C291.094 706.56 293.147 706.213 294.641 705.52C296.134 704.827 297.187 703.747 297.801 702.28C298.441 700.787 298.761 698.893 298.761 696.6V695.84H288.001V693.92H300.961V708H299.121L298.761 704.04C298.147 705.107 297.294 705.973 296.201 706.64C295.107 707.28 293.907 707.747 292.601 708.04C291.321 708.333 290.041 708.48 288.761 708.48ZM307.475 708V686.96H308.915L309.115 690.6H309.355C309.515 689.96 309.768 689.333 310.115 688.72C310.488 688.08 311.008 687.547 311.675 687.12C312.341 686.693 313.181 686.48 314.195 686.48C314.568 686.48 314.901 686.507 315.195 686.56C315.488 686.613 315.701 686.667 315.835 686.72V688.4H314.715C313.728 688.4 312.888 688.6 312.195 689C311.528 689.4 310.981 689.933 310.555 690.6C310.155 691.267 309.861 692.013 309.675 692.84C309.488 693.64 309.395 694.453 309.395 695.28V708H307.475ZM326.72 708.48C324.8 708.48 323.16 708.093 321.8 707.32C320.44 706.52 319.4 705.307 318.68 703.68C317.96 702.053 317.6 699.987 317.6 697.48C317.6 694.947 317.96 692.88 318.68 691.28C319.4 689.653 320.44 688.453 321.8 687.68C323.16 686.88 324.8 686.48 326.72 686.48C328.667 686.48 330.307 686.88 331.64 687.68C333 688.453 334.04 689.653 334.76 691.28C335.48 692.88 335.84 694.947 335.84 697.48C335.84 699.987 335.48 702.053 334.76 703.68C334.04 705.307 333 706.52 331.64 707.32C330.307 708.093 328.667 708.48 326.72 708.48ZM326.72 706.76C328.187 706.76 329.44 706.467 330.48 705.88C331.547 705.293 332.36 704.36 332.92 703.08C333.507 701.8 333.8 700.133 333.8 698.08V696.88C333.8 694.8 333.507 693.133 332.92 691.88C332.36 690.6 331.547 689.667 330.48 689.08C329.44 688.493 328.187 688.2 326.72 688.2C325.253 688.2 323.987 688.493 322.92 689.08C321.88 689.667 321.067 690.6 320.48 691.88C319.92 693.133 319.64 694.8 319.64 696.88V698.08C319.64 700.133 319.92 701.8 320.48 703.08C321.067 704.36 321.88 705.293 322.92 705.88C323.987 706.467 325.253 706.76 326.72 706.76ZM344.295 708L337.855 686.96H339.855L343.415 698.68C343.575 699.213 343.748 699.853 343.935 700.6C344.148 701.32 344.348 702.04 344.535 702.76C344.748 703.48 344.921 704.107 345.055 704.64H345.255C345.388 704.107 345.535 703.48 345.695 702.76C345.881 702.013 346.055 701.28 346.215 700.56C346.401 699.84 346.561 699.213 346.695 698.68L349.695 686.96H351.855L354.855 698.68C354.988 699.213 355.135 699.84 355.295 700.56C355.481 701.28 355.655 702.013 355.815 702.76C356.001 703.48 356.148 704.107 356.255 704.64H356.455C356.615 704.107 356.788 703.48 356.975 702.76C357.188 702.04 357.401 701.32 357.615 700.6C357.828 699.853 358.015 699.213 358.175 698.68L361.735 686.96H363.535L357.095 708H355.375L352.255 696.12C352.148 695.64 352.001 695.04 351.815 694.32C351.628 693.573 351.441 692.813 351.255 692.04C351.095 691.24 350.948 690.533 350.815 689.92H350.575C350.441 690.533 350.281 691.24 350.095 692.04C349.935 692.813 349.761 693.573 349.575 694.32C349.415 695.04 349.268 695.653 349.135 696.16L346.055 708H344.295ZM377.029 708V680.56H397.829V682.48H379.189V692.96H396.069V694.88H379.189V706.08H398.069V708H377.029ZM408.455 708.48C407.495 708.48 406.602 708.36 405.775 708.12C404.975 707.907 404.268 707.573 403.655 707.12C403.068 706.64 402.602 706.04 402.255 705.32C401.935 704.6 401.775 703.747 401.775 702.76C401.775 701.293 402.148 700.107 402.895 699.2C403.642 698.293 404.682 697.6 406.015 697.12C407.348 696.613 408.922 696.28 410.735 696.12C412.548 695.933 414.508 695.84 416.615 695.84V692.68C416.615 691.72 416.428 690.907 416.055 690.24C415.708 689.573 415.082 689.067 414.175 688.72C413.295 688.373 412.068 688.2 410.495 688.2C409.002 688.2 407.815 688.4 406.935 688.8C406.082 689.173 405.468 689.693 405.095 690.36C404.748 691 404.575 691.72 404.575 692.52V693.2H402.735C402.708 693.067 402.695 692.933 402.695 692.8C402.695 692.667 402.695 692.507 402.695 692.32C402.695 690.933 403.042 689.813 403.735 688.96C404.428 688.107 405.402 687.48 406.655 687.08C407.935 686.68 409.402 686.48 411.055 686.48C412.628 686.48 413.962 686.72 415.055 687.2C416.175 687.653 417.028 688.32 417.615 689.2C418.228 690.053 418.535 691.093 418.535 692.32V705.44C418.535 705.947 418.615 706.293 418.775 706.48C418.935 706.667 419.188 706.76 419.535 706.76H421.415V707.88C420.935 708.093 420.495 708.24 420.095 708.32C419.695 708.4 419.322 708.44 418.975 708.44C418.255 708.44 417.722 708.28 417.375 707.96C417.055 707.613 416.842 707.16 416.735 706.6C416.655 706.013 416.615 705.387 416.615 704.72H416.335C415.802 705.52 415.108 706.2 414.255 706.76C413.402 707.32 412.482 707.747 411.495 708.04C410.508 708.333 409.495 708.48 408.455 708.48ZM408.615 706.76C409.522 706.76 410.442 706.613 411.375 706.32C412.308 706 413.162 705.56 413.935 705C414.735 704.44 415.375 703.773 415.855 703C416.362 702.2 416.615 701.32 416.615 700.36V697.64C413.655 697.64 411.242 697.8 409.375 698.12C407.508 698.413 406.122 698.933 405.215 699.68C404.335 700.427 403.895 701.467 403.895 702.8C403.895 703.76 404.108 704.533 404.535 705.12C404.962 705.707 405.535 706.133 406.255 706.4C406.975 706.64 407.762 706.76 408.615 706.76ZM430.945 708.48C429.612 708.48 428.425 708.347 427.385 708.08C426.372 707.84 425.518 707.467 424.825 706.96C424.158 706.427 423.652 705.773 423.305 705C422.958 704.227 422.785 703.32 422.785 702.28C422.785 702.173 422.785 702.053 422.785 701.92C422.785 701.787 422.798 701.667 422.825 701.56H424.745C424.718 701.72 424.705 701.853 424.705 701.96C424.705 702.067 424.705 702.173 424.705 702.28C424.705 703.453 424.958 704.373 425.465 705.04C425.998 705.68 426.745 706.133 427.705 706.4C428.692 706.64 429.838 706.76 431.145 706.76C432.265 706.76 433.252 706.6 434.105 706.28C434.985 705.933 435.665 705.453 436.145 704.84C436.652 704.2 436.905 703.427 436.905 702.52C436.905 701.4 436.585 700.56 435.945 700C435.305 699.413 434.478 698.973 433.465 698.68C432.478 698.36 431.452 698.04 430.385 697.72C429.558 697.48 428.732 697.227 427.905 696.96C427.105 696.667 426.372 696.32 425.705 695.92C425.065 695.493 424.545 694.96 424.145 694.32C423.772 693.68 423.585 692.867 423.585 691.88C423.585 691.08 423.745 690.347 424.065 689.68C424.385 689.013 424.852 688.44 425.465 687.96C426.105 687.48 426.892 687.12 427.825 686.88C428.758 686.613 429.838 686.48 431.065 686.48C432.532 686.48 433.745 686.653 434.705 687C435.665 687.32 436.412 687.773 436.945 688.36C437.505 688.92 437.892 689.533 438.105 690.2C438.345 690.867 438.465 691.547 438.465 692.24C438.465 692.32 438.465 692.413 438.465 692.52C438.465 692.627 438.452 692.747 438.425 692.88H436.505V692.24C436.505 691.68 436.372 691.093 436.105 690.48C435.865 689.84 435.345 689.307 434.545 688.88C433.772 688.427 432.572 688.2 430.945 688.2C430.038 688.2 429.252 688.28 428.585 688.44C427.918 688.6 427.358 688.84 426.905 689.16C426.452 689.453 426.105 689.827 425.865 690.28C425.652 690.733 425.545 691.267 425.545 691.88C425.545 692.787 425.812 693.48 426.345 693.96C426.878 694.413 427.572 694.773 428.425 695.04C429.278 695.307 430.185 695.6 431.145 695.92C432.052 696.213 432.958 696.507 433.865 696.8C434.798 697.093 435.638 697.453 436.385 697.88C437.158 698.307 437.772 698.867 438.225 699.56C438.678 700.227 438.905 701.107 438.905 702.2C438.905 703.187 438.705 704.067 438.305 704.84C437.905 705.613 437.345 706.28 436.625 706.84C435.932 707.373 435.092 707.773 434.105 708.04C433.145 708.333 432.092 708.48 430.945 708.48ZM447.651 708.44C446.825 708.44 446.171 708.307 445.691 708.04C445.211 707.773 444.865 707.387 444.651 706.88C444.465 706.347 444.371 705.733 444.371 705.04V688.68H441.411V686.96H444.371L444.771 681.12H446.291V686.96H450.571V688.68H446.291V704.48C446.291 705.28 446.371 705.867 446.531 706.24C446.718 706.587 447.185 706.76 447.931 706.76H450.571V707.88C450.305 708.013 449.998 708.12 449.651 708.2C449.305 708.28 448.958 708.333 448.611 708.36C448.265 708.413 447.945 708.44 447.651 708.44ZM460.814 708L471.854 680.56H474.974L486.014 708H483.694L480.494 700.08H466.174L463.014 708H460.814ZM466.974 698.16H479.694L475.694 688.2C475.614 687.987 475.494 687.667 475.334 687.24C475.174 686.813 474.987 686.32 474.774 685.76C474.561 685.2 474.334 684.627 474.094 684.04C473.881 683.453 473.681 682.907 473.494 682.4H473.174C472.987 682.907 472.761 683.507 472.494 684.2C472.227 684.893 471.961 685.6 471.694 686.32C471.427 687.013 471.187 687.64 470.974 688.2L466.974 698.16ZM495.75 708.48C494.416 708.48 493.23 708.347 492.19 708.08C491.176 707.84 490.323 707.467 489.63 706.96C488.963 706.427 488.456 705.773 488.11 705C487.763 704.227 487.59 703.32 487.59 702.28C487.59 702.173 487.59 702.053 487.59 701.92C487.59 701.787 487.603 701.667 487.63 701.56H489.55C489.523 701.72 489.51 701.853 489.51 701.96C489.51 702.067 489.51 702.173 489.51 702.28C489.51 703.453 489.763 704.373 490.27 705.04C490.803 705.68 491.55 706.133 492.51 706.4C493.496 706.64 494.643 706.76 495.95 706.76C497.07 706.76 498.056 706.6 498.91 706.28C499.79 705.933 500.47 705.453 500.95 704.84C501.456 704.2 501.71 703.427 501.71 702.52C501.71 701.4 501.39 700.56 500.75 700C500.11 699.413 499.283 698.973 498.27 698.68C497.283 698.36 496.256 698.04 495.19 697.72C494.363 697.48 493.536 697.227 492.71 696.96C491.91 696.667 491.176 696.32 490.51 695.92C489.87 695.493 489.35 694.96 488.95 694.32C488.576 693.68 488.39 692.867 488.39 691.88C488.39 691.08 488.55 690.347 488.87 689.68C489.19 689.013 489.656 688.44 490.27 687.96C490.91 687.48 491.696 687.12 492.63 686.88C493.563 686.613 494.643 686.48 495.87 686.48C497.336 686.48 498.55 686.653 499.51 687C500.47 687.32 501.216 687.773 501.75 688.36C502.31 688.92 502.696 689.533 502.91 690.2C503.15 690.867 503.27 691.547 503.27 692.24C503.27 692.32 503.27 692.413 503.27 692.52C503.27 692.627 503.256 692.747 503.23 692.88H501.31V692.24C501.31 691.68 501.176 691.093 500.91 690.48C500.67 689.84 500.15 689.307 499.35 688.88C498.576 688.427 497.376 688.2 495.75 688.2C494.843 688.2 494.056 688.28 493.39 688.44C492.723 688.6 492.163 688.84 491.71 689.16C491.256 689.453 490.91 689.827 490.67 690.28C490.456 690.733 490.35 691.267 490.35 691.88C490.35 692.787 490.616 693.48 491.15 693.96C491.683 694.413 492.376 694.773 493.23 695.04C494.083 695.307 494.99 695.6 495.95 695.92C496.856 696.213 497.763 696.507 498.67 696.8C499.603 697.093 500.443 697.453 501.19 697.88C501.963 698.307 502.576 698.867 503.03 699.56C503.483 700.227 503.71 701.107 503.71 702.2C503.71 703.187 503.51 704.067 503.11 704.84C502.71 705.613 502.15 706.28 501.43 706.84C500.736 707.373 499.896 707.773 498.91 708.04C497.95 708.333 496.896 708.48 495.75 708.48ZM508.256 682.12V679.08H510.176V682.12H508.256ZM508.256 708V686.96H510.176V708H508.256ZM521.189 708.48C520.229 708.48 519.336 708.36 518.509 708.12C517.709 707.907 517.003 707.573 516.389 707.12C515.803 706.64 515.336 706.04 514.989 705.32C514.669 704.6 514.509 703.747 514.509 702.76C514.509 701.293 514.883 700.107 515.629 699.2C516.376 698.293 517.416 697.6 518.749 697.12C520.083 696.613 521.656 696.28 523.469 696.12C525.283 695.933 527.243 695.84 529.349 695.84V692.68C529.349 691.72 529.163 690.907 528.789 690.24C528.443 689.573 527.816 689.067 526.909 688.72C526.029 688.373 524.803 688.2 523.229 688.2C521.736 688.2 520.549 688.4 519.669 688.8C518.816 689.173 518.203 689.693 517.829 690.36C517.483 691 517.309 691.72 517.309 692.52V693.2H515.469C515.443 693.067 515.429 692.933 515.429 692.8C515.429 692.667 515.429 692.507 515.429 692.32C515.429 690.933 515.776 689.813 516.469 688.96C517.163 688.107 518.136 687.48 519.389 687.08C520.669 686.68 522.136 686.48 523.789 686.48C525.363 686.48 526.696 686.72 527.789 687.2C528.909 687.653 529.763 688.32 530.349 689.2C530.963 690.053 531.269 691.093 531.269 692.32V705.44C531.269 705.947 531.349 706.293 531.509 706.48C531.669 706.667 531.923 706.76 532.269 706.76H534.149V707.88C533.669 708.093 533.229 708.24 532.829 708.32C532.429 708.4 532.056 708.44 531.709 708.44C530.989 708.44 530.456 708.28 530.109 707.96C529.789 707.613 529.576 707.16 529.469 706.6C529.389 706.013 529.349 705.387 529.349 704.72H529.069C528.536 705.52 527.843 706.2 526.989 706.76C526.136 707.32 525.216 707.747 524.229 708.04C523.243 708.333 522.229 708.48 521.189 708.48ZM521.349 706.76C522.256 706.76 523.176 706.613 524.109 706.32C525.043 706 525.896 705.56 526.669 705C527.469 704.44 528.109 703.773 528.589 703C529.096 702.2 529.349 701.32 529.349 700.36V697.64C526.389 697.64 523.976 697.8 522.109 698.12C520.243 698.413 518.856 698.933 517.949 699.68C517.069 700.427 516.629 701.467 516.629 702.8C516.629 703.76 516.843 704.533 517.269 705.12C517.696 705.707 518.269 706.133 518.989 706.4C519.709 706.64 520.496 706.76 521.349 706.76Z" fill="#384EC1"/>
<path d="M609 630H708" stroke="#253360" stroke-width="3"/>
<path d="M99 630H198" stroke="#253360" stroke-width="3"/>
<g clip-path="url(#clip1_101_22464)">
<path fill-rule="evenodd" clip-rule="evenodd" d="M398.619 95.0018C398.413 95.0006 398.206 95 398 95C395.153 95 392.332 95.1144 389.542 95.3389C392.488 95.1313 395.513 95.0172 398.619 95.0018ZM398 303C348.823 303 307.618 268.867 296.783 223H499.217C488.383 268.867 447.177 303 398 303Z" fill="#253360"/>
<rect x="373" y="378" width="50" height="16" fill="#253360"/>
<path d="M394 324C386.5 304 381.5 303 374 300L399 293V383.5H381C381 383.5 381.211 381.035 381.5 371.5C382.5 338.5 395.448 327.861 394 324Z" fill="#253360"/>
<path d="M402 324C409.5 304 414.5 303 422 300L397 293V383.5H415C415 383.5 414.789 381.035 414.5 371.5C413.5 338.5 400.552 327.861 402 324Z" fill="#253360"/>
<path d="M377.957 316.823C385.327 313.431 397.746 312.291 401.28 314.266C398.331 314.436 389.51 318.306 384.171 323.769C377.956 330.13 379.106 337.603 372.765 342.778C366.403 347.968 359.239 341.973 360.409 336.124C361.635 329.996 368.745 321.063 377.957 316.823Z" fill="#253360"/>
<path d="M295.349 251.64C298.251 259.216 298.576 271.684 296.374 275.08C296.397 272.127 293.113 263.071 288.011 257.387C282.071 250.769 274.538 251.427 269.79 244.76C265.027 238.073 271.478 231.317 277.238 232.867C283.272 234.491 291.721 242.17 295.349 251.64Z" fill="#253360"/>
<path d="M355.135 307.65C366.015 307.786 381.714 313.559 384.857 317.986C381.187 316.494 368.274 316.1 358.661 319.642C347.469 323.766 344.557 333.48 333.896 336.095C323.201 338.718 317.977 327.329 322.763 320.919C327.778 314.203 341.534 307.479 355.135 307.65Z" fill="#253360"/>
<path d="M330.285 294.501C340.266 298.834 352.511 310.229 353.698 315.526C350.89 312.731 339.134 307.374 328.899 306.924C316.983 306.399 310.541 314.232 299.698 312.521C288.821 310.804 288.407 298.281 295.3 294.22C302.521 289.966 317.808 289.084 330.285 294.501Z" fill="#253360"/>
<path d="M307.445 273.906C314.586 279.782 321.926 291.957 321.656 296.563C320.016 293.622 311.664 286.495 303.406 283.732C293.793 280.516 286.697 285.409 278.238 281.474C269.752 277.527 272.344 267.197 278.926 265.492C285.821 263.705 298.518 266.561 307.445 273.906Z" fill="#253360"/>
<path d="M418.372 316.823C411.002 313.431 398.582 312.291 395.049 314.266C397.998 314.436 406.819 318.306 412.158 323.769C418.372 330.13 417.223 337.603 423.564 342.778C429.925 347.968 437.09 341.973 435.92 336.124C434.694 329.996 427.584 321.063 418.372 316.823Z" fill="#253360"/>
<path d="M500.98 251.64C498.078 259.216 497.753 271.684 499.954 275.08C499.931 272.127 503.215 263.071 508.318 257.387C514.258 250.769 521.791 251.427 526.539 244.76C531.302 238.073 524.851 231.317 519.091 232.867C513.056 234.491 504.608 242.17 500.98 251.64Z" fill="#253360"/>
<path d="M441.194 307.65C430.313 307.786 414.614 313.559 411.471 317.986C415.141 316.494 428.055 316.1 437.668 319.642C448.859 323.766 451.772 333.48 462.433 336.095C473.127 338.718 478.352 327.329 473.565 320.919C468.551 314.203 454.794 307.479 441.194 307.65Z" fill="#253360"/>
<path d="M466.044 294.501C456.063 298.834 443.818 310.229 442.631 315.526C445.438 312.731 457.195 307.374 467.43 306.924C479.345 306.399 485.788 314.232 496.631 312.521C507.507 310.804 507.921 298.281 501.029 294.22C493.807 289.966 478.52 289.084 466.044 294.501Z" fill="#253360"/>
<path d="M488.884 273.906C481.742 279.782 474.402 291.957 474.672 296.563C476.312 293.622 484.665 286.495 492.922 283.732C502.535 280.516 509.632 285.409 518.091 281.474C526.576 277.527 523.985 267.197 517.403 265.492C510.507 263.705 497.811 266.561 488.884 273.906Z" fill="#253360"/>
<circle cx="398" cy="199" r="104" fill="#384EC1"/>
<path fill-rule="evenodd" clip-rule="evenodd" d="M499.217 223H296.783C294.963 215.296 294 207.26 294 199C294 141.562 340.562 95 398 95C455.438 95 502 141.562 502 199C502 207.26 501.037 215.296 499.217 223Z" fill="#798AFF"/>
<mask id="mask0_101_22464" style="mask-type:alpha" maskUnits="userSpaceOnUse" x="294" y="95" width="208" height="208">
<path fill-rule="evenodd" clip-rule="evenodd" d="M478.339 265.047C493.123 247.085 502 224.079 502 199C502 141.562 455.438 95 398 95C370.757 95 345.96 105.475 327.418 122.617L330 123C330 123 333.776 127.592 338 129C339.521 129.507 340.687 128.375 341.713 127.38C342.71 126.412 343.574 125.574 344.5 126.5C345.988 127.988 346.693 130.054 347.382 132.077C348.316 134.813 349.221 137.468 352 138.5C353.073 138.899 354.237 138.573 355.356 138.259C356.718 137.878 358.015 137.515 359 138.5C361.5 141 366.5 145 366.5 145C366.5 145 371.909 139.286 376.5 138.5C378.682 138.126 379.132 138.759 379.747 139.624C380.608 140.834 381.793 142.5 388.5 142.5C389.937 142.5 389.249 141.095 388.469 139.501C387.447 137.413 386.267 135 389.5 135C395.88 135 396.479 136.204 397.149 137.549C397.845 138.944 398.615 140.491 406 141C407.936 141.133 408.418 142.082 408.874 142.978C409.632 144.468 410.316 145.811 417.5 143C421.896 141.28 423.03 141.574 424.72 142.013C425.917 142.324 427.392 142.707 430.5 142.5C432.927 142.338 432.789 140.374 432.624 138.039C432.395 134.81 432.117 130.87 438.5 130C444.864 129.132 445.868 133.62 446.748 137.557C447.389 140.424 447.965 143 450.5 143C456 143 456 149 456 149C456 149 459.929 148.428 463.5 147C466.203 145.919 463.5 157 456 157C456 157.229 456.001 157.471 456.002 157.722C456.016 161.299 456.037 166.837 453.5 168C446.504 171.206 448.175 172.713 450.488 174.8C452.143 176.292 454.126 178.081 453.5 181C452.932 183.652 446.677 187.207 446.5 184.5C445.309 166.236 440.226 170.971 437.714 173.311C436.169 174.751 435.596 175.284 437.5 169C438.704 165.027 427.5 175 427.5 175L437.5 177C437.5 177 433.792 179.707 432.5 183.5C432.022 184.905 432.872 185.955 433.923 187.254C435.711 189.462 438.08 192.39 435.5 199C430.215 212.544 419.691 213.648 412.293 214.423C408.493 214.822 405.518 215.134 404.5 217C403.071 219.62 405.322 222.347 407.669 225.19C410.248 228.314 412.944 231.579 411 235C408.75 238.96 404.838 243.688 402.5 240.5C397 233 393 232 393 232L390.5 240C390.5 240 393.5 245 398 248.5C400.5 250.444 402.113 259.183 400.5 258C394.103 253.309 393.794 252.045 393.278 249.94C392.907 248.425 392.429 246.475 389.5 242.5C388.185 240.715 388.305 239.726 388.521 237.957C388.797 235.69 389.229 232.143 387 224C386.448 221.982 385.343 223.522 384.116 225.232C382.681 227.232 381.079 229.466 380 226.5C379.29 224.547 379.07 223.227 378.861 221.965C378.463 219.574 378.1 217.39 374.5 211.5C373.282 209.507 371.293 211.335 367.013 215.269L367.013 215.269C363.908 218.123 359.597 222.085 353.5 226.5C351.21 228.158 351.018 230.599 350.81 233.241C350.563 236.367 350.294 239.775 346.5 242.5C344.041 244.266 342.168 239.094 339.887 232.797C339.146 230.75 338.362 228.585 337.5 226.5C334.616 219.519 336 214 336 214C336 214 334.76 218.5 331 216C328.898 214.602 328.673 212.947 328.457 211.352C328.164 209.196 327.887 207.15 323 206C321.506 205.649 318.743 206.176 316.354 206.632L316.354 206.632C313.271 207.22 310.81 207.69 312.5 206C315.444 203.056 315.15 202.623 314.154 201.156C312.815 199.183 310.206 195.34 312.5 181C313.14 177 301.5 172 298.5 177C297.962 177.897 297.198 177.828 296.307 177.112C294.796 184.169 294 191.491 294 199C294 256.438 340.562 303 398 303C426.557 303 452.426 291.49 471.22 272.856C469.739 271.042 467.954 269.47 466 269C465.375 268.85 464.747 268.593 464.126 268.339L464.125 268.339L464.125 268.339L464.125 268.339L464.125 268.339L464.125 268.339C462.67 267.744 461.252 267.165 460 268C459.406 268.396 459.282 267.929 459.07 267.128C458.747 265.906 458.218 263.906 455.5 263C453.332 262.277 458.794 260.552 461 261.149C462.228 261.482 462.275 262.221 462.331 263.095C462.401 264.201 462.485 265.522 465 266.5C465.985 266.883 466.757 265.895 467.576 264.847C468.522 263.637 469.531 262.347 471 263C472.964 263.873 475.784 264.555 478.339 265.047ZM453.5 187C452.28 188.525 452.981 191.78 455.5 192.5C457.294 193.013 457.171 191.409 457.049 189.803C456.942 188.402 456.835 187 458 187C464.926 187 473.5 186.5 476 180C479.854 169.98 475.5 163.5 475.5 163.5C475.5 163.5 477.5 162.5 480.5 164.5C481.599 163.401 483.611 162.625 485.119 162.044C487.04 161.303 488.143 160.878 485.5 160.5C483.252 160.179 480.515 157.552 478.827 155.933L478.827 155.933C477.526 154.684 476.849 154.035 477.5 155.5C479.5 160 475.5 163.5 475.5 163.5C475.5 163.5 475.587 172.656 472 176.5C467.677 181.131 465.666 181.347 463.685 181.56C462.459 181.692 461.244 181.822 459.5 183C458.399 183.743 457.555 184.138 456.822 184.48C455.635 185.035 454.736 185.455 453.5 187ZM433.866 227.882L433.865 227.88C433.602 224.965 433.319 221.84 435 221C436.976 220.012 439 223 436.5 228C435.132 230.736 437.5 231.187 437.5 231.187C437.5 231.187 436.591 231.899 435.788 232.663C434.991 231.881 434.09 230.835 434 229.5C433.965 228.98 433.916 228.435 433.866 227.882ZM435.788 232.663C435.854 232.727 435.919 232.79 435.983 232.851L436.057 232.922C436.111 232.973 436.164 233.023 436.215 233.072C437.251 234.049 437.73 234.5 435 234.5C434.073 234.5 434.859 233.547 435.788 232.663ZM445.5 240.687C447.628 239.775 447.362 240.989 447.046 242.432C446.842 243.362 446.617 244.388 447 245C447.852 246.363 445.975 247.066 444.242 247.716C443.989 247.812 443.738 247.905 443.5 248C442.497 248.398 442.201 247.079 441.89 245.688C441.722 244.939 441.55 244.169 441.26 243.637C443.395 242.209 445.5 240.687 445.5 240.687ZM437.5 245C435.498 247.288 438.405 245.547 441.26 243.637C440.704 242.617 439.716 242.468 437.5 245ZM413.5 265.5C413.5 265.5 410.221 261.004 411 257.5C411.323 256.046 411.35 256.054 411.806 256.173C412.761 256.424 415.601 257.171 427 246C427.573 245.438 431.5 249 431.5 249C431.5 249 424.5 251 430.5 258C426.774 260.006 425.945 263.19 425.386 265.338C424.969 266.937 424.702 267.962 423.5 267.5C419.344 265.902 413.5 265.5 413.5 265.5ZM393 261.5C391.7 257.926 388.359 254.633 385.721 252.033C384.3 250.633 383.084 249.434 382.5 248.5C385.5 248.5 397.4 257.5 401 261.5C404.417 265.297 403.9 268.794 403.553 271.135L403.553 271.136L403.537 271.242C403.525 271.33 403.512 271.416 403.5 271.5C402.167 271 395.52 268.432 393 261.5ZM403.5 271.5C403.5 271.5 411.551 273.797 414.5 274.5C427.316 277.557 444.5 277.5 444.5 277.5C444.5 277.5 419.5 279 404.5 274.5C402.477 273.893 403.5 271.5 403.5 271.5ZM352 247.5C350.096 247.228 350.623 245.112 351.103 243.185C351.306 242.372 351.5 241.593 351.5 241C351.5 238.791 354.512 243.024 355.5 245C356 246 353.933 247.776 352 247.5ZM436.5 206.5C435.066 205.982 432.5 212.928 434 213C436.349 213.113 436.776 212.709 436.5 210.5C436.434 209.969 436.625 209.338 436.809 208.732C437.109 207.744 437.389 206.821 436.5 206.5ZM410 219.5C411 217 415 218 415 218C415 218 412.785 222.456 411 222C410.054 221.758 409.536 220.661 410 219.5Z" fill="#253360"/>
</mask>
<g mask="url(#mask0_101_22464)">
<circle cx="398" cy="199" r="104" fill="#253360"/>
<rect x="264" y="63" width="252" height="160" fill="#384EC1"/>
</g>
</g>
</g>
<defs>
<clipPath id="clip0_101_22464">
<rect width="800" height="800" fill="white"/>
</clipPath>
<clipPath id="clip1_101_22464">
<rect width="400" height="400" fill="white" transform="translate(198 23)"/>
</clipPath>
</defs>
</svg>
