<svg width="800" height="800" viewBox="0 0 800 800" fill="none" xmlns="http://www.w3.org/2000/svg">
<g clip-path="url(#clip0_101_22464)">
<rect x="4" y="4" width="792" height="792" stroke="#253360" stroke-width="8"/>
<path d="M161.479 523.045C167.373 523.045 172.614 522.223 177.204 520.58C181.794 518.88 185.166 517.208 187.319 515.565L196.414 533.67C193.808 535.937 189.303 538.232 182.899 540.555C176.553 542.878 168.959 544.04 160.119 544.04C151.846 544.04 144.111 542.595 136.914 539.705C129.718 536.758 123.399 532.678 117.959 527.465C112.519 522.195 108.269 516.047 105.209 509.02C102.149 501.937 100.619 494.287 100.619 486.07C100.619 477.853 102.121 470.203 105.124 463.12C108.184 455.98 112.434 449.775 117.874 444.505C123.314 439.235 129.633 435.127 136.829 432.18C144.083 429.233 151.846 427.76 160.119 427.76C168.959 427.76 176.553 428.922 182.899 431.245C189.303 433.568 193.808 435.863 196.414 438.13L187.319 456.235C185.166 454.592 181.794 452.948 177.204 451.305C172.614 449.605 167.373 448.755 161.479 448.755C155.473 448.755 150.118 449.718 145.414 451.645C140.768 453.572 136.801 456.263 133.514 459.72C130.284 463.12 127.819 467.058 126.119 471.535C124.419 476.012 123.569 480.772 123.569 485.815C123.569 490.915 124.419 495.732 126.119 500.265C127.819 504.742 130.284 508.708 133.514 512.165C136.801 515.565 140.768 518.228 145.414 520.155C150.118 522.082 155.473 523.045 161.479 523.045ZM267.5 542V529.845C266.99 531.092 265.686 532.848 263.59 535.115C261.493 537.382 258.66 539.45 255.09 541.32C251.576 543.133 247.44 544.04 242.68 544.04C235.993 544.04 230.071 542.453 224.915 539.28C219.758 536.05 215.706 531.658 212.76 526.105C209.87 520.495 208.425 514.177 208.425 507.15C208.425 500.123 209.87 493.833 212.76 488.28C215.706 482.67 219.758 478.25 224.915 475.02C230.071 471.79 235.993 470.175 242.68 470.175C247.326 470.175 251.35 470.968 254.75 472.555C258.206 474.085 260.983 475.898 263.08 477.995C265.233 480.035 266.621 481.877 267.245 483.52V472.215H288.665V542H267.5ZM229.59 507.15C229.59 511.06 230.468 514.517 232.225 517.52C233.981 520.467 236.305 522.762 239.195 524.405C242.085 526.048 245.23 526.87 248.63 526.87C252.2 526.87 255.373 526.048 258.15 524.405C260.926 522.705 263.108 520.382 264.695 517.435C266.338 514.432 267.16 511.003 267.16 507.15C267.16 503.297 266.338 499.897 264.695 496.95C263.108 493.947 260.926 491.595 258.15 489.895C255.373 488.195 252.2 487.345 248.63 487.345C245.23 487.345 242.085 488.195 239.195 489.895C236.305 491.538 233.981 493.862 232.225 496.865C230.468 499.812 229.59 503.24 229.59 507.15ZM300.438 472.215H313.018V443.57H334.438V472.215H350.928V490.15H334.438V515.395C334.438 518.738 334.977 521.345 336.053 523.215C337.13 525.028 338.83 525.935 341.153 525.935C342.91 525.935 344.355 525.595 345.488 524.915C346.622 524.178 347.302 523.668 347.528 523.385L355.178 538.855C354.838 539.195 353.733 539.79 351.863 540.64C350.05 541.49 347.698 542.255 344.808 542.935C341.975 543.672 338.773 544.04 335.203 544.04C328.8 544.04 323.502 542.198 319.308 538.515C315.115 534.775 313.018 528.995 313.018 521.175V490.15H300.438V472.215ZM420.898 542V529.845C420.388 531.092 419.085 532.848 416.988 535.115C414.891 537.382 412.058 539.45 408.488 541.32C404.975 543.133 400.838 544.04 396.078 544.04C389.391 544.04 383.47 542.453 378.313 539.28C373.156 536.05 369.105 531.658 366.158 526.105C363.268 520.495 361.823 514.177 361.823 507.15C361.823 500.123 363.268 493.833 366.158 488.28C369.105 482.67 373.156 478.25 378.313 475.02C383.47 471.79 389.391 470.175 396.078 470.175C400.725 470.175 404.748 470.968 408.148 472.555C411.605 474.085 414.381 475.898 416.478 477.995C418.631 480.035 420.02 481.877 420.643 483.52V472.215H442.063V542H420.898ZM382.988 507.15C382.988 511.06 383.866 514.517 385.623 517.52C387.38 520.467 389.703 522.762 392.593 524.405C395.483 526.048 398.628 526.87 402.028 526.87C405.598 526.87 408.771 526.048 411.548 524.405C414.325 522.705 416.506 520.382 418.093 517.435C419.736 514.432 420.558 511.003 420.558 507.15C420.558 503.297 419.736 499.897 418.093 496.95C416.506 493.947 414.325 491.595 411.548 489.895C408.771 488.195 405.598 487.345 402.028 487.345C398.628 487.345 395.483 488.195 392.593 489.895C389.703 491.538 387.38 493.862 385.623 496.865C383.866 499.812 382.988 503.24 382.988 507.15ZM481.632 542H459.957V425.04H481.632V542ZM532.773 523.045L553.428 472.215H574.763L527.078 577.36H505.403L521.468 542L492.483 472.215H514.073L532.773 523.045ZM613.291 470.175C617.485 470.175 621.366 470.572 624.936 471.365C628.506 472.102 631.51 472.952 633.946 473.915C636.44 474.878 638.083 475.7 638.876 476.38L631.481 489.385C630.348 488.478 628.308 487.402 625.361 486.155C622.471 484.908 619.241 484.285 615.671 484.285C612.441 484.285 609.721 484.852 607.511 485.985C605.301 487.062 604.196 488.705 604.196 490.915C604.196 493.125 605.386 494.882 607.766 496.185C610.146 497.488 613.461 498.622 617.711 499.585C621.281 500.322 624.795 501.455 628.251 502.985C631.708 504.458 634.57 506.612 636.836 509.445C639.103 512.222 640.236 515.933 640.236 520.58C640.236 525.17 639.245 528.995 637.261 532.055C635.335 535.058 632.756 537.438 629.526 539.195C626.296 540.952 622.755 542.198 618.901 542.935C615.048 543.672 611.223 544.04 607.426 544.04C602.496 544.04 598.161 543.558 594.421 542.595C590.681 541.688 587.593 540.64 585.156 539.45C582.776 538.203 581.076 537.155 580.056 536.305L587.451 521.855C588.925 523.158 591.333 524.603 594.676 526.19C598.076 527.72 601.731 528.485 605.641 528.485C609.721 528.485 612.923 527.777 615.246 526.36C617.626 524.943 618.816 523.045 618.816 520.665C618.816 518.908 618.25 517.492 617.116 516.415C615.983 515.282 614.425 514.347 612.441 513.61C610.458 512.873 608.135 512.222 605.471 511.655C603.035 511.145 600.541 510.408 597.991 509.445C595.441 508.425 593.061 507.093 590.851 505.45C588.641 503.807 586.856 501.767 585.496 499.33C584.136 496.837 583.456 493.862 583.456 490.405C583.456 485.985 584.873 482.302 587.706 479.355C590.54 476.352 594.223 474.085 598.756 472.555C603.29 470.968 608.135 470.175 613.291 470.175ZM648.241 472.215H660.821V443.57H682.241V472.215H698.731V490.15H682.241V515.395C682.241 518.738 682.779 521.345 683.856 523.215C684.933 525.028 686.633 525.935 688.956 525.935C690.713 525.935 692.158 525.595 693.291 524.915C694.424 524.178 695.104 523.668 695.331 523.385L702.981 538.855C702.641 539.195 701.536 539.79 699.666 540.64C697.853 541.49 695.501 542.255 692.611 542.935C689.778 543.672 686.576 544.04 683.006 544.04C676.603 544.04 671.304 542.198 667.111 538.515C662.918 534.775 660.821 528.995 660.821 521.175V490.15H648.241V472.215Z" fill="#253360"/>
<path d="M294.74 647V598.98H325.12V603.67H300.06V620.4H322.74V625.09H300.06V647H294.74ZM350.723 647.84C347.083 647.84 343.956 647.257 341.343 646.09C338.729 644.877 336.723 642.94 335.323 640.28C333.923 637.573 333.223 634.027 333.223 629.64V598.98H338.613V630.69C338.613 634.89 339.663 638.017 341.763 640.07C343.863 642.123 346.849 643.15 350.723 643.15C354.736 643.15 357.816 642.123 359.963 640.07C362.156 638.017 363.253 634.89 363.253 630.69V598.98H368.573V629.64C368.573 634.027 367.849 637.573 366.403 640.28C364.956 642.94 362.903 644.877 360.243 646.09C357.583 647.257 354.409 647.84 350.723 647.84ZM379.984 647V598.98H385.234L407.074 632.02C407.307 632.3 407.587 632.72 407.914 633.28C408.24 633.793 408.567 634.33 408.894 634.89C409.267 635.45 409.57 635.94 409.804 636.36H410.084C410.084 635.567 410.084 634.797 410.084 634.05C410.084 633.257 410.084 632.533 410.084 631.88V598.98H415.334V647H410.574L388.314 613.33C388.034 612.91 387.59 612.233 386.984 611.3C386.424 610.367 385.934 609.55 385.514 608.85H385.164C385.164 609.597 385.164 610.367 385.164 611.16C385.21 611.953 385.234 612.723 385.234 613.47V647H379.984ZM426.947 647V598.98H442.767C447.48 598.98 451.447 599.82 454.667 601.5C457.933 603.133 460.407 605.723 462.087 609.27C463.767 612.77 464.607 617.343 464.607 622.99C464.607 628.543 463.767 633.093 462.087 636.64C460.407 640.187 457.933 642.8 454.667 644.48C451.447 646.16 447.457 647 442.697 647H426.947ZM432.267 642.31H442.347C444.913 642.31 447.2 642.007 449.207 641.4C451.26 640.793 453.033 639.79 454.527 638.39C456.02 636.943 457.14 635.053 457.887 632.72C458.68 630.34 459.077 627.423 459.077 623.97V622.29C459.077 618.743 458.68 615.78 457.887 613.4C457.14 611.02 456.02 609.13 454.527 607.73C453.08 606.283 451.33 605.257 449.277 604.65C447.223 603.997 444.913 603.67 442.347 603.67H432.267V642.31ZM499.066 647.84C495.893 647.84 493.35 647.21 491.436 645.95C489.523 644.69 488.123 642.94 487.236 640.7C486.35 638.46 485.906 635.893 485.906 633H490.876C490.876 635.427 491.18 637.433 491.786 639.02C492.393 640.607 493.326 641.773 494.586 642.52C495.846 643.267 497.433 643.64 499.346 643.64C502.193 643.64 504.386 642.847 505.926 641.26C507.513 639.673 508.61 637.363 509.216 634.33C509.823 631.25 510.15 627.587 510.196 623.34C509.45 624.787 508.446 626 507.186 626.98C505.973 627.96 504.62 628.707 503.126 629.22C501.633 629.687 500.046 629.92 498.366 629.92C495.146 629.92 492.51 629.243 490.456 627.89C488.403 626.537 486.863 624.693 485.836 622.36C484.81 620.027 484.296 617.39 484.296 614.45C484.296 611.09 484.926 608.197 486.186 605.77C487.493 603.343 489.243 601.477 491.436 600.17C493.676 598.817 496.196 598.14 498.996 598.14C501.61 598.14 503.92 598.513 505.926 599.26C507.933 600.007 509.613 601.267 510.966 603.04C512.32 604.813 513.346 607.217 514.046 610.25C514.793 613.283 515.166 617.063 515.166 621.59C515.166 626.49 514.816 630.62 514.116 633.98C513.416 637.34 512.39 640.047 511.036 642.1C509.683 644.107 508.003 645.577 505.996 646.51C503.99 647.397 501.68 647.84 499.066 647.84ZM499.276 625.79C501.61 625.79 503.523 625.277 505.016 624.25C506.556 623.177 507.7 621.753 508.446 619.98C509.193 618.16 509.566 616.153 509.566 613.96C509.566 611.813 509.216 609.877 508.516 608.15C507.816 606.377 506.72 604.953 505.226 603.88C503.733 602.807 501.82 602.27 499.486 602.27C497.06 602.27 495.1 602.83 493.606 603.95C492.16 605.07 491.086 606.54 490.386 608.36C489.686 610.18 489.336 612.21 489.336 614.45C489.336 616.503 489.663 618.393 490.316 620.12C491.016 621.847 492.09 623.223 493.536 624.25C494.983 625.277 496.896 625.79 499.276 625.79Z" fill="#253360"/>
<path d="M248.24 708V680.56H257.6C260.587 680.56 263.12 681.027 265.2 681.96C267.28 682.893 268.867 684.373 269.96 686.4C271.054 688.4 271.6 691.027 271.6 694.28C271.6 697.48 271.054 700.093 269.96 702.12C268.867 704.147 267.28 705.64 265.2 706.6C263.12 707.533 260.587 708 257.6 708H248.24ZM250.4 706.08H257.44C259.227 706.08 260.84 705.893 262.28 705.52C263.747 705.12 265 704.48 266.04 703.6C267.107 702.72 267.92 701.56 268.48 700.12C269.04 698.653 269.32 696.867 269.32 694.76V693.96C269.32 691.773 269.04 689.947 268.48 688.48C267.92 687.013 267.12 685.84 266.08 684.96C265.04 684.08 263.787 683.453 262.32 683.08C260.88 682.68 259.254 682.48 257.44 682.48H250.4V706.08ZM273.978 708L285.018 680.56H288.138L299.178 708H296.858L293.658 700.08H279.338L276.178 708H273.978ZM280.138 698.16H292.858L288.858 688.2C288.778 687.987 288.658 687.667 288.498 687.24C288.338 686.813 288.151 686.32 287.938 685.76C287.725 685.2 287.498 684.627 287.258 684.04C287.045 683.453 286.845 682.907 286.658 682.4H286.338C286.151 682.907 285.925 683.507 285.658 684.2C285.391 684.893 285.125 685.6 284.858 686.32C284.591 687.013 284.351 687.64 284.138 688.2L280.138 698.16ZM315.083 708.48C312.256 708.48 309.83 707.947 307.803 706.88C305.803 705.813 304.256 704.227 303.163 702.12C302.096 700.013 301.563 697.4 301.563 694.28C301.563 691.133 302.096 688.52 303.163 686.44C304.256 684.333 305.803 682.747 307.803 681.68C309.83 680.613 312.256 680.08 315.083 680.08C317.936 680.08 320.363 680.613 322.363 681.68C324.39 682.747 325.936 684.333 327.003 686.44C328.096 688.52 328.643 691.133 328.643 694.28C328.643 697.4 328.096 700.013 327.003 702.12C325.936 704.227 324.39 705.813 322.363 706.88C320.363 707.947 317.936 708.48 315.083 708.48ZM315.083 706.56C316.736 706.56 318.256 706.347 319.643 705.92C321.03 705.493 322.216 704.813 323.203 703.88C324.216 702.92 324.99 701.693 325.523 700.2C326.083 698.68 326.363 696.84 326.363 694.68V693.88C326.363 691.72 326.083 689.893 325.523 688.4C324.99 686.88 324.216 685.653 323.203 684.72C322.216 683.76 321.03 683.067 319.643 682.64C318.256 682.213 316.736 682 315.083 682C313.43 682 311.91 682.213 310.523 682.64C309.163 683.067 307.976 683.76 306.963 684.72C305.976 685.653 305.203 686.88 304.643 688.4C304.11 689.893 303.843 691.72 303.843 693.88V694.68C303.843 696.84 304.11 698.68 304.643 700.2C305.203 701.693 305.976 702.92 306.963 703.88C307.976 704.813 309.163 705.493 310.523 705.92C311.91 706.347 313.43 706.56 315.083 706.56ZM340.32 708.48C338.987 708.48 337.8 708.347 336.76 708.08C335.747 707.84 334.893 707.467 334.2 706.96C333.533 706.427 333.027 705.773 332.68 705C332.333 704.227 332.16 703.32 332.16 702.28C332.16 702.173 332.16 702.053 332.16 701.92C332.16 701.787 332.173 701.667 332.2 701.56H334.12C334.093 701.72 334.08 701.853 334.08 701.96C334.08 702.067 334.08 702.173 334.08 702.28C334.08 703.453 334.333 704.373 334.84 705.04C335.373 705.68 336.12 706.133 337.08 706.4C338.067 706.64 339.213 706.76 340.52 706.76C341.64 706.76 342.627 706.6 343.48 706.28C344.36 705.933 345.04 705.453 345.52 704.84C346.027 704.2 346.28 703.427 346.28 702.52C346.28 701.4 345.96 700.56 345.32 700C344.68 699.413 343.853 698.973 342.84 698.68C341.853 698.36 340.827 698.04 339.76 697.72C338.933 697.48 338.107 697.227 337.28 696.96C336.48 696.667 335.747 696.32 335.08 695.92C334.44 695.493 333.92 694.96 333.52 694.32C333.147 693.68 332.96 692.867 332.96 691.88C332.96 691.08 333.12 690.347 333.44 689.68C333.76 689.013 334.227 688.44 334.84 687.96C335.48 687.48 336.267 687.12 337.2 686.88C338.133 686.613 339.213 686.48 340.44 686.48C341.907 686.48 343.12 686.653 344.08 687C345.04 687.32 345.787 687.773 346.32 688.36C346.88 688.92 347.267 689.533 347.48 690.2C347.72 690.867 347.84 691.547 347.84 692.24C347.84 692.32 347.84 692.413 347.84 692.52C347.84 692.627 347.827 692.747 347.8 692.88H345.88V692.24C345.88 691.68 345.747 691.093 345.48 690.48C345.24 689.84 344.72 689.307 343.92 688.88C343.147 688.427 341.947 688.2 340.32 688.2C339.413 688.2 338.627 688.28 337.96 688.44C337.293 688.6 336.733 688.84 336.28 689.16C335.827 689.453 335.48 689.827 335.24 690.28C335.027 690.733 334.92 691.267 334.92 691.88C334.92 692.787 335.187 693.48 335.72 693.96C336.253 694.413 336.947 694.773 337.8 695.04C338.653 695.307 339.56 695.6 340.52 695.92C341.427 696.213 342.333 696.507 343.24 696.8C344.173 697.093 345.013 697.453 345.76 697.88C346.533 698.307 347.147 698.867 347.6 699.56C348.053 700.227 348.28 701.107 348.28 702.2C348.28 703.187 348.08 704.067 347.68 704.84C347.28 705.613 346.72 706.28 346 706.84C345.307 707.373 344.467 707.773 343.48 708.04C342.52 708.333 341.467 708.48 340.32 708.48ZM379.975 707.72L360.975 699.36V696.8L379.975 688.44V690.6L362.855 698.08L379.975 705.56V707.72ZM394.588 708.48C392.428 708.48 390.614 708.173 389.148 707.56C387.708 706.947 386.614 706.053 385.868 704.88C385.148 703.707 384.788 702.293 384.788 700.64V700.24H386.668V700.56C386.668 702.56 387.321 704.093 388.628 705.16C389.961 706.227 391.788 706.76 394.108 706.76C396.534 706.76 398.481 706.267 399.948 705.28C401.414 704.293 402.148 702.707 402.148 700.52C402.148 699.053 401.761 697.92 400.988 697.12C400.214 696.293 399.214 695.72 397.988 695.4C396.761 695.08 395.481 694.92 394.148 694.92H390.588V693.2H394.268C395.521 693.2 396.694 693.013 397.788 692.64C398.881 692.267 399.761 691.653 400.428 690.8C401.121 689.92 401.468 688.747 401.468 687.28C401.468 686.053 401.161 685.04 400.548 684.24C399.934 683.44 399.121 682.84 398.108 682.44C397.094 682.013 395.988 681.8 394.788 681.8C393.454 681.8 392.228 682.04 391.108 682.52C389.988 682.973 389.094 683.653 388.428 684.56C387.761 685.44 387.428 686.533 387.428 687.84V688.28H385.428V687.88C385.428 686.36 385.828 685.013 386.628 683.84C387.428 682.667 388.521 681.747 389.908 681.08C391.321 680.413 392.921 680.08 394.708 680.08C396.388 680.08 397.894 680.36 399.228 680.92C400.561 681.453 401.601 682.253 402.348 683.32C403.121 684.387 403.508 685.707 403.508 687.28C403.508 688.533 403.268 689.6 402.788 690.48C402.308 691.333 401.708 692.027 400.988 692.56C400.268 693.093 399.521 693.493 398.748 693.76V693.92C400.294 694.347 401.588 695.12 402.628 696.24C403.668 697.36 404.188 698.827 404.188 700.64C404.188 702.267 403.774 703.667 402.948 704.84C402.121 706.013 400.974 706.92 399.508 707.56C398.068 708.173 396.428 708.48 394.588 708.48ZM429.989 708.48C427.189 708.48 424.829 707.947 422.909 706.88C421.016 705.813 419.576 704.227 418.589 702.12C417.629 700.013 417.149 697.4 417.149 694.28C417.149 689.587 418.282 686.053 420.549 683.68C422.816 681.28 425.989 680.08 430.069 680.08C432.496 680.08 434.602 680.453 436.389 681.2C438.202 681.947 439.602 683.067 440.589 684.56C441.576 686.053 442.069 687.933 442.069 690.2H439.909C439.909 688.28 439.509 686.72 438.709 685.52C437.936 684.32 436.802 683.44 435.309 682.88C433.842 682.293 432.069 682 429.989 682C427.936 682 426.109 682.4 424.509 683.2C422.909 684 421.656 685.28 420.749 687.04C419.869 688.8 419.429 691.147 419.429 694.08V694.92C419.429 697.72 419.869 699.973 420.749 701.68C421.656 703.387 422.909 704.627 424.509 705.4C426.109 706.173 427.949 706.56 430.029 706.56C432.082 706.56 433.842 706.28 435.309 705.72C436.802 705.133 437.949 704.24 438.749 703.04C439.549 701.84 439.949 700.28 439.949 698.36H442.069C442.069 700.68 441.549 702.587 440.509 704.08C439.469 705.573 438.042 706.68 436.229 707.4C434.416 708.12 432.336 708.48 429.989 708.48ZM452.361 708.48C451.401 708.48 450.508 708.36 449.681 708.12C448.881 707.907 448.175 707.573 447.561 707.12C446.975 706.64 446.508 706.04 446.161 705.32C445.841 704.6 445.681 703.747 445.681 702.76C445.681 701.293 446.055 700.107 446.801 699.2C447.548 698.293 448.588 697.6 449.921 697.12C451.255 696.613 452.828 696.28 454.641 696.12C456.455 695.933 458.415 695.84 460.521 695.84V692.68C460.521 691.72 460.335 690.907 459.961 690.24C459.615 689.573 458.988 689.067 458.081 688.72C457.201 688.373 455.975 688.2 454.401 688.2C452.908 688.2 451.721 688.4 450.841 688.8C449.988 689.173 449.375 689.693 449.001 690.36C448.655 691 448.481 691.72 448.481 692.52V693.2H446.641C446.615 693.067 446.601 692.933 446.601 692.8C446.601 692.667 446.601 692.507 446.601 692.32C446.601 690.933 446.948 689.813 447.641 688.96C448.335 688.107 449.308 687.48 450.561 687.08C451.841 686.68 453.308 686.48 454.961 686.48C456.535 686.48 457.868 686.72 458.961 687.2C460.081 687.653 460.935 688.32 461.521 689.2C462.135 690.053 462.441 691.093 462.441 692.32V705.44C462.441 705.947 462.521 706.293 462.681 706.48C462.841 706.667 463.095 706.76 463.441 706.76H465.321V707.88C464.841 708.093 464.401 708.24 464.001 708.32C463.601 708.4 463.228 708.44 462.881 708.44C462.161 708.44 461.628 708.28 461.281 707.96C460.961 707.613 460.748 707.16 460.641 706.6C460.561 706.013 460.521 705.387 460.521 704.72H460.241C459.708 705.52 459.015 706.2 458.161 706.76C457.308 707.32 456.388 707.747 455.401 708.04C454.415 708.333 453.401 708.48 452.361 708.48ZM452.521 706.76C453.428 706.76 454.348 706.613 455.281 706.32C456.215 706 457.068 705.56 457.841 705C458.641 704.44 459.281 703.773 459.761 703C460.268 702.2 460.521 701.32 460.521 700.36V697.64C457.561 697.64 455.148 697.8 453.281 698.12C451.415 698.413 450.028 698.933 449.121 699.68C448.241 700.427 447.801 701.467 447.801 702.8C447.801 703.76 448.015 704.533 448.441 705.12C448.868 705.707 449.441 706.133 450.161 706.4C450.881 706.64 451.668 706.76 452.521 706.76ZM468.451 708V686.96H469.891L470.091 690.6H470.331C470.491 689.96 470.745 689.333 471.091 688.72C471.465 688.08 471.985 687.547 472.651 687.12C473.318 686.693 474.158 686.48 475.171 686.48C475.545 686.48 475.878 686.507 476.171 686.56C476.465 686.613 476.678 686.667 476.811 686.72V688.4H475.691C474.705 688.4 473.865 688.6 473.171 689C472.505 689.4 471.958 689.933 471.531 690.6C471.131 691.267 470.838 692.013 470.651 692.84C470.465 693.64 470.371 694.453 470.371 695.28V708H468.451ZM486.897 708.48C485.137 708.48 483.63 708.093 482.377 707.32C481.15 706.547 480.203 705.333 479.537 703.68C478.897 702.027 478.577 699.867 478.577 697.2C478.577 694.747 478.91 692.733 479.577 691.16C480.243 689.587 481.19 688.413 482.417 687.64C483.67 686.867 485.163 686.48 486.897 686.48C487.803 686.48 488.643 686.587 489.417 686.8C490.217 687.013 490.937 687.36 491.577 687.84C492.243 688.32 492.83 688.987 493.337 689.84H493.617V679.08H495.537V708H494.137L493.857 704.8H493.577C492.803 706.053 491.83 706.987 490.657 707.6C489.483 708.187 488.23 708.48 486.897 708.48ZM486.897 706.76C488.497 706.76 489.79 706.413 490.777 705.72C491.763 705.027 492.483 704.027 492.937 702.72C493.39 701.387 493.617 699.76 493.617 697.84V697.04C493.617 695.093 493.403 693.533 492.977 692.36C492.577 691.187 492.043 690.307 491.377 689.72C490.737 689.107 490.043 688.707 489.297 688.52C488.55 688.307 487.843 688.2 487.177 688.2C485.763 688.2 484.563 688.493 483.577 689.08C482.617 689.667 481.883 690.6 481.377 691.88C480.87 693.133 480.617 694.8 480.617 696.88V698.08C480.617 700.293 480.897 702.04 481.457 703.32C482.017 704.573 482.763 705.467 483.697 706C484.657 706.507 485.723 706.76 486.897 706.76ZM506.541 708.48C505.581 708.48 504.688 708.36 503.861 708.12C503.061 707.907 502.354 707.573 501.741 707.12C501.154 706.64 500.688 706.04 500.341 705.32C500.021 704.6 499.861 703.747 499.861 702.76C499.861 701.293 500.234 700.107 500.981 699.2C501.728 698.293 502.768 697.6 504.101 697.12C505.434 696.613 507.008 696.28 508.821 696.12C510.634 695.933 512.594 695.84 514.701 695.84V692.68C514.701 691.72 514.514 690.907 514.141 690.24C513.794 689.573 513.168 689.067 512.261 688.72C511.381 688.373 510.154 688.2 508.581 688.2C507.088 688.2 505.901 688.4 505.021 688.8C504.168 689.173 503.554 689.693 503.181 690.36C502.834 691 502.661 691.72 502.661 692.52V693.2H500.821C500.794 693.067 500.781 692.933 500.781 692.8C500.781 692.667 500.781 692.507 500.781 692.32C500.781 690.933 501.128 689.813 501.821 688.96C502.514 688.107 503.488 687.48 504.741 687.08C506.021 686.68 507.488 686.48 509.141 686.48C510.714 686.48 512.048 686.72 513.141 687.2C514.261 687.653 515.114 688.32 515.701 689.2C516.314 690.053 516.621 691.093 516.621 692.32V705.44C516.621 705.947 516.701 706.293 516.861 706.48C517.021 706.667 517.274 706.76 517.621 706.76H519.501V707.88C519.021 708.093 518.581 708.24 518.181 708.32C517.781 708.4 517.408 708.44 517.061 708.44C516.341 708.44 515.808 708.28 515.461 707.96C515.141 707.613 514.928 707.16 514.821 706.6C514.741 706.013 514.701 705.387 514.701 704.72H514.421C513.888 705.52 513.194 706.2 512.341 706.76C511.488 707.32 510.568 707.747 509.581 708.04C508.594 708.333 507.581 708.48 506.541 708.48ZM506.701 706.76C507.608 706.76 508.528 706.613 509.461 706.32C510.394 706 511.248 705.56 512.021 705C512.821 704.44 513.461 703.773 513.941 703C514.448 702.2 514.701 701.32 514.701 700.36V697.64C511.741 697.64 509.328 697.8 507.461 698.12C505.594 698.413 504.208 698.933 503.301 699.68C502.421 700.427 501.981 701.467 501.981 702.8C501.981 703.76 502.194 704.533 502.621 705.12C503.048 705.707 503.621 706.133 504.341 706.4C505.061 706.64 505.848 706.76 506.701 706.76ZM522.631 708V686.96H524.031L524.271 690.52H524.551C525.191 689.427 525.898 688.587 526.671 688C527.471 687.413 528.311 687.013 529.191 686.8C530.071 686.587 530.991 686.48 531.951 686.48C533.284 686.48 534.444 686.693 535.431 687.12C536.418 687.52 537.178 688.2 537.711 689.16C538.271 690.12 538.551 691.427 538.551 693.08V708H536.631V693.08C536.631 692.067 536.498 691.24 536.231 690.6C535.964 689.96 535.591 689.467 535.111 689.12C534.658 688.773 534.111 688.533 533.471 688.4C532.858 688.267 532.191 688.2 531.471 688.2C530.324 688.2 529.218 688.48 528.151 689.04C527.084 689.6 526.218 690.427 525.551 691.52C524.884 692.587 524.551 693.907 524.551 695.48V708H522.631ZM551.954 708.48C550.034 708.48 548.394 708.093 547.034 707.32C545.674 706.52 544.634 705.307 543.914 703.68C543.194 702.053 542.834 699.987 542.834 697.48C542.834 694.947 543.194 692.88 543.914 691.28C544.634 689.653 545.674 688.453 547.034 687.68C548.394 686.88 550.034 686.48 551.954 686.48C553.901 686.48 555.541 686.88 556.874 687.68C558.234 688.453 559.274 689.653 559.994 691.28C560.714 692.88 561.074 694.947 561.074 697.48C561.074 699.987 560.714 702.053 559.994 703.68C559.274 705.307 558.234 706.52 556.874 707.32C555.541 708.093 553.901 708.48 551.954 708.48ZM551.954 706.76C553.421 706.76 554.674 706.467 555.714 705.88C556.781 705.293 557.594 704.36 558.154 703.08C558.741 701.8 559.034 700.133 559.034 698.08V696.88C559.034 694.8 558.741 693.133 558.154 691.88C557.594 690.6 556.781 689.667 555.714 689.08C554.674 688.493 553.421 688.2 551.954 688.2C550.488 688.2 549.221 688.493 548.154 689.08C547.114 689.667 546.301 690.6 545.714 691.88C545.154 693.133 544.874 694.8 544.874 696.88V698.08C544.874 700.133 545.154 701.8 545.714 703.08C546.301 704.36 547.114 705.293 548.154 705.88C549.221 706.467 550.488 706.76 551.954 706.76Z" fill="#384EC1"/>
<path d="M609 630H708" stroke="#253360" stroke-width="3"/>
<path d="M99 630H198" stroke="#253360" stroke-width="3"/>
<g clip-path="url(#clip1_101_22464)">
<path fill-rule="evenodd" clip-rule="evenodd" d="M398.619 95.0018C398.413 95.0006 398.206 95 398 95C395.153 95 392.332 95.1144 389.542 95.3389C392.488 95.1313 395.513 95.0172 398.619 95.0018ZM398 303C348.823 303 307.618 268.867 296.783 223H499.217C488.383 268.867 447.177 303 398 303Z" fill="#253360"/>
<rect x="373" y="378" width="50" height="16" fill="#253360"/>
<path d="M394 324C386.5 304 381.5 303 374 300L399 293V383.5H381C381 383.5 381.211 381.035 381.5 371.5C382.5 338.5 395.448 327.861 394 324Z" fill="#253360"/>
<path d="M402 324C409.5 304 414.5 303 422 300L397 293V383.5H415C415 383.5 414.789 381.035 414.5 371.5C413.5 338.5 400.552 327.861 402 324Z" fill="#253360"/>
<path d="M377.957 316.823C385.327 313.431 397.746 312.291 401.28 314.266C398.331 314.436 389.51 318.306 384.171 323.769C377.956 330.13 379.106 337.603 372.765 342.778C366.403 347.968 359.239 341.973 360.409 336.124C361.635 329.996 368.745 321.063 377.957 316.823Z" fill="#253360"/>
<path d="M295.349 251.64C298.251 259.216 298.576 271.684 296.374 275.08C296.397 272.127 293.113 263.071 288.011 257.387C282.071 250.769 274.538 251.427 269.79 244.76C265.027 238.073 271.478 231.317 277.238 232.867C283.272 234.491 291.721 242.17 295.349 251.64Z" fill="#253360"/>
<path d="M355.135 307.65C366.015 307.786 381.714 313.559 384.857 317.986C381.187 316.494 368.274 316.1 358.661 319.642C347.469 323.766 344.557 333.48 333.896 336.095C323.201 338.718 317.977 327.329 322.763 320.919C327.778 314.203 341.534 307.479 355.135 307.65Z" fill="#253360"/>
<path d="M330.285 294.501C340.266 298.834 352.511 310.229 353.698 315.526C350.89 312.731 339.134 307.374 328.899 306.924C316.983 306.399 310.541 314.232 299.698 312.521C288.821 310.804 288.407 298.281 295.3 294.22C302.521 289.966 317.808 289.084 330.285 294.501Z" fill="#253360"/>
<path d="M307.445 273.906C314.586 279.782 321.926 291.957 321.656 296.563C320.016 293.622 311.664 286.495 303.406 283.732C293.793 280.516 286.697 285.409 278.238 281.474C269.752 277.527 272.344 267.197 278.926 265.492C285.821 263.705 298.518 266.561 307.445 273.906Z" fill="#253360"/>
<path d="M418.372 316.823C411.002 313.431 398.582 312.291 395.049 314.266C397.998 314.436 406.819 318.306 412.158 323.769C418.372 330.13 417.223 337.603 423.564 342.778C429.925 347.968 437.09 341.973 435.92 336.124C434.694 329.996 427.584 321.063 418.372 316.823Z" fill="#253360"/>
<path d="M500.98 251.64C498.078 259.216 497.753 271.684 499.954 275.08C499.931 272.127 503.215 263.071 508.318 257.387C514.258 250.769 521.791 251.427 526.539 244.76C531.302 238.073 524.851 231.317 519.091 232.867C513.056 234.491 504.608 242.17 500.98 251.64Z" fill="#253360"/>
<path d="M441.194 307.65C430.313 307.786 414.614 313.559 411.471 317.986C415.141 316.494 428.055 316.1 437.668 319.642C448.859 323.766 451.772 333.48 462.433 336.095C473.127 338.718 478.352 327.329 473.565 320.919C468.551 314.203 454.794 307.479 441.194 307.65Z" fill="#253360"/>
<path d="M466.044 294.501C456.063 298.834 443.818 310.229 442.631 315.526C445.438 312.731 457.195 307.374 467.43 306.924C479.345 306.399 485.788 314.232 496.631 312.521C507.507 310.804 507.921 298.281 501.029 294.22C493.807 289.966 478.52 289.084 466.044 294.501Z" fill="#253360"/>
<path d="M488.884 273.906C481.742 279.782 474.402 291.957 474.672 296.563C476.312 293.622 484.665 286.495 492.922 283.732C502.535 280.516 509.632 285.409 518.091 281.474C526.576 277.527 523.985 267.197 517.403 265.492C510.507 263.705 497.811 266.561 488.884 273.906Z" fill="#253360"/>
<circle cx="397" cy="111" r="16" fill="#384EC1"/>
<circle cx="352" cy="190" r="16" fill="#384EC1"/>
<circle cx="332" cy="130" r="8" fill="#384EC1"/>
<circle cx="421" cy="166" r="8" fill="#384EC1"/>
<circle cx="477" cy="165" r="16" fill="#384EC1"/>
<mask id="mask0_101_22464" style="mask-type:alpha" maskUnits="userSpaceOnUse" x="294" y="95" width="208" height="112">
<path fill-rule="evenodd" clip-rule="evenodd" d="M501.697 207C501.898 204.36 502 201.692 502 199C502 141.562 455.438 95 398 95C340.562 95 294 141.562 294 199C294 201.692 294.102 204.36 294.303 207H501.697Z" fill="#D9D9D9"/>
</mask>
<g mask="url(#mask0_101_22464)">
<path fill-rule="evenodd" clip-rule="evenodd" d="M417.714 117L461.183 148.698L456.47 155.162L413 123.464L417.714 117ZM372 178.761L406.849 166.351L409.533 173.887L374.684 186.297L372 178.761ZM364.684 171.002L387.696 132.169L380.814 128.09L357.802 166.924L364.684 171.002ZM340.391 142.05L348.64 166.965L341.045 169.479L332.797 144.565L340.391 142.05ZM422.019 218.27L461.992 181.837L456.603 175.925L416.63 212.357L422.019 218.27ZM487.727 184L495.976 214.785L488.249 216.856L480 186.071L487.727 184ZM330 186H288V194H330V186Z" fill="#798AFF"/>
<path fill-rule="evenodd" clip-rule="evenodd" d="M417.714 117L461.183 148.698L456.47 155.162L413 123.464L417.714 117ZM372 178.761L406.849 166.351L409.533 173.887L374.684 186.297L372 178.761ZM364.684 171.002L387.696 132.169L380.814 128.09L357.802 166.924L364.684 171.002ZM340.391 142.05L348.64 166.965L341.045 169.479L332.797 144.565L340.391 142.05ZM422.019 218.27L461.992 181.837L456.603 175.925L416.63 212.357L422.019 218.27ZM487.727 184L495.976 214.785L488.249 216.856L480 186.071L487.727 184ZM330 186H288V194H330V186Z" fill="#798AFF"/>
</g>
</g>
</g>
<defs>
<clipPath id="clip0_101_22464">
<rect width="800" height="800" fill="white"/>
</clipPath>
<clipPath id="clip1_101_22464">
<rect width="400" height="400" fill="white" transform="translate(198 23)"/>
</clipPath>
</defs>
</svg>
