<svg width="800" height="800" viewBox="0 0 800 800" fill="none" xmlns="http://www.w3.org/2000/svg">
<g clip-path="url(#clip0_101_22464)">
<rect x="4" y="4" width="792" height="792" stroke="#253360" stroke-width="8"/>
<path d="M161.479 523.045C167.373 523.045 172.614 522.223 177.204 520.58C181.794 518.88 185.166 517.208 187.319 515.565L196.414 533.67C193.808 535.937 189.303 538.232 182.899 540.555C176.553 542.878 168.959 544.04 160.119 544.04C151.846 544.04 144.111 542.595 136.914 539.705C129.718 536.758 123.399 532.678 117.959 527.465C112.519 522.195 108.269 516.047 105.209 509.02C102.149 501.937 100.619 494.287 100.619 486.07C100.619 477.853 102.121 470.203 105.124 463.12C108.184 455.98 112.434 449.775 117.874 444.505C123.314 439.235 129.633 435.127 136.829 432.18C144.083 429.233 151.846 427.76 160.119 427.76C168.959 427.76 176.553 428.922 182.899 431.245C189.303 433.568 193.808 435.863 196.414 438.13L187.319 456.235C185.166 454.592 181.794 452.948 177.204 451.305C172.614 449.605 167.373 448.755 161.479 448.755C155.473 448.755 150.118 449.718 145.414 451.645C140.768 453.572 136.801 456.263 133.514 459.72C130.284 463.12 127.819 467.058 126.119 471.535C124.419 476.012 123.569 480.772 123.569 485.815C123.569 490.915 124.419 495.732 126.119 500.265C127.819 504.742 130.284 508.708 133.514 512.165C136.801 515.565 140.768 518.228 145.414 520.155C150.118 522.082 155.473 523.045 161.479 523.045ZM267.5 542V529.845C266.99 531.092 265.686 532.848 263.59 535.115C261.493 537.382 258.66 539.45 255.09 541.32C251.576 543.133 247.44 544.04 242.68 544.04C235.993 544.04 230.071 542.453 224.915 539.28C219.758 536.05 215.706 531.658 212.76 526.105C209.87 520.495 208.425 514.177 208.425 507.15C208.425 500.123 209.87 493.833 212.76 488.28C215.706 482.67 219.758 478.25 224.915 475.02C230.071 471.79 235.993 470.175 242.68 470.175C247.326 470.175 251.35 470.968 254.75 472.555C258.206 474.085 260.983 475.898 263.08 477.995C265.233 480.035 266.621 481.877 267.245 483.52V472.215H288.665V542H267.5ZM229.59 507.15C229.59 511.06 230.468 514.517 232.225 517.52C233.981 520.467 236.305 522.762 239.195 524.405C242.085 526.048 245.23 526.87 248.63 526.87C252.2 526.87 255.373 526.048 258.15 524.405C260.926 522.705 263.108 520.382 264.695 517.435C266.338 514.432 267.16 511.003 267.16 507.15C267.16 503.297 266.338 499.897 264.695 496.95C263.108 493.947 260.926 491.595 258.15 489.895C255.373 488.195 252.2 487.345 248.63 487.345C245.23 487.345 242.085 488.195 239.195 489.895C236.305 491.538 233.981 493.862 232.225 496.865C230.468 499.812 229.59 503.24 229.59 507.15ZM300.438 472.215H313.018V443.57H334.438V472.215H350.928V490.15H334.438V515.395C334.438 518.738 334.977 521.345 336.053 523.215C337.13 525.028 338.83 525.935 341.153 525.935C342.91 525.935 344.355 525.595 345.488 524.915C346.622 524.178 347.302 523.668 347.528 523.385L355.178 538.855C354.838 539.195 353.733 539.79 351.863 540.64C350.05 541.49 347.698 542.255 344.808 542.935C341.975 543.672 338.773 544.04 335.203 544.04C328.8 544.04 323.502 542.198 319.308 538.515C315.115 534.775 313.018 528.995 313.018 521.175V490.15H300.438V472.215ZM420.898 542V529.845C420.388 531.092 419.085 532.848 416.988 535.115C414.891 537.382 412.058 539.45 408.488 541.32C404.975 543.133 400.838 544.04 396.078 544.04C389.391 544.04 383.47 542.453 378.313 539.28C373.156 536.05 369.105 531.658 366.158 526.105C363.268 520.495 361.823 514.177 361.823 507.15C361.823 500.123 363.268 493.833 366.158 488.28C369.105 482.67 373.156 478.25 378.313 475.02C383.47 471.79 389.391 470.175 396.078 470.175C400.725 470.175 404.748 470.968 408.148 472.555C411.605 474.085 414.381 475.898 416.478 477.995C418.631 480.035 420.02 481.877 420.643 483.52V472.215H442.063V542H420.898ZM382.988 507.15C382.988 511.06 383.866 514.517 385.623 517.52C387.38 520.467 389.703 522.762 392.593 524.405C395.483 526.048 398.628 526.87 402.028 526.87C405.598 526.87 408.771 526.048 411.548 524.405C414.325 522.705 416.506 520.382 418.093 517.435C419.736 514.432 420.558 511.003 420.558 507.15C420.558 503.297 419.736 499.897 418.093 496.95C416.506 493.947 414.325 491.595 411.548 489.895C408.771 488.195 405.598 487.345 402.028 487.345C398.628 487.345 395.483 488.195 392.593 489.895C389.703 491.538 387.38 493.862 385.623 496.865C383.866 499.812 382.988 503.24 382.988 507.15ZM481.632 542H459.957V425.04H481.632V542ZM532.773 523.045L553.428 472.215H574.763L527.078 577.36H505.403L521.468 542L492.483 472.215H514.073L532.773 523.045ZM613.291 470.175C617.485 470.175 621.366 470.572 624.936 471.365C628.506 472.102 631.51 472.952 633.946 473.915C636.44 474.878 638.083 475.7 638.876 476.38L631.481 489.385C630.348 488.478 628.308 487.402 625.361 486.155C622.471 484.908 619.241 484.285 615.671 484.285C612.441 484.285 609.721 484.852 607.511 485.985C605.301 487.062 604.196 488.705 604.196 490.915C604.196 493.125 605.386 494.882 607.766 496.185C610.146 497.488 613.461 498.622 617.711 499.585C621.281 500.322 624.795 501.455 628.251 502.985C631.708 504.458 634.57 506.612 636.836 509.445C639.103 512.222 640.236 515.933 640.236 520.58C640.236 525.17 639.245 528.995 637.261 532.055C635.335 535.058 632.756 537.438 629.526 539.195C626.296 540.952 622.755 542.198 618.901 542.935C615.048 543.672 611.223 544.04 607.426 544.04C602.496 544.04 598.161 543.558 594.421 542.595C590.681 541.688 587.593 540.64 585.156 539.45C582.776 538.203 581.076 537.155 580.056 536.305L587.451 521.855C588.925 523.158 591.333 524.603 594.676 526.19C598.076 527.72 601.731 528.485 605.641 528.485C609.721 528.485 612.923 527.777 615.246 526.36C617.626 524.943 618.816 523.045 618.816 520.665C618.816 518.908 618.25 517.492 617.116 516.415C615.983 515.282 614.425 514.347 612.441 513.61C610.458 512.873 608.135 512.222 605.471 511.655C603.035 511.145 600.541 510.408 597.991 509.445C595.441 508.425 593.061 507.093 590.851 505.45C588.641 503.807 586.856 501.767 585.496 499.33C584.136 496.837 583.456 493.862 583.456 490.405C583.456 485.985 584.873 482.302 587.706 479.355C590.54 476.352 594.223 474.085 598.756 472.555C603.29 470.968 608.135 470.175 613.291 470.175ZM648.241 472.215H660.821V443.57H682.241V472.215H698.731V490.15H682.241V515.395C682.241 518.738 682.779 521.345 683.856 523.215C684.933 525.028 686.633 525.935 688.956 525.935C690.713 525.935 692.158 525.595 693.291 524.915C694.424 524.178 695.104 523.668 695.331 523.385L702.981 538.855C702.641 539.195 701.536 539.79 699.666 540.64C697.853 541.49 695.501 542.255 692.611 542.935C689.778 543.672 686.576 544.04 683.006 544.04C676.603 544.04 671.304 542.198 667.111 538.515C662.918 534.775 660.821 528.995 660.821 521.175V490.15H648.241V472.215Z" fill="#253360"/>
<path d="M294.74 647V598.98H325.12V603.67H300.06V620.4H322.74V625.09H300.06V647H294.74ZM350.723 647.84C347.083 647.84 343.956 647.257 341.343 646.09C338.729 644.877 336.723 642.94 335.323 640.28C333.923 637.573 333.223 634.027 333.223 629.64V598.98H338.613V630.69C338.613 634.89 339.663 638.017 341.763 640.07C343.863 642.123 346.849 643.15 350.723 643.15C354.736 643.15 357.816 642.123 359.963 640.07C362.156 638.017 363.253 634.89 363.253 630.69V598.98H368.573V629.64C368.573 634.027 367.849 637.573 366.403 640.28C364.956 642.94 362.903 644.877 360.243 646.09C357.583 647.257 354.409 647.84 350.723 647.84ZM379.984 647V598.98H385.234L407.074 632.02C407.307 632.3 407.587 632.72 407.914 633.28C408.24 633.793 408.567 634.33 408.894 634.89C409.267 635.45 409.57 635.94 409.804 636.36H410.084C410.084 635.567 410.084 634.797 410.084 634.05C410.084 633.257 410.084 632.533 410.084 631.88V598.98H415.334V647H410.574L388.314 613.33C388.034 612.91 387.59 612.233 386.984 611.3C386.424 610.367 385.934 609.55 385.514 608.85H385.164C385.164 609.597 385.164 610.367 385.164 611.16C385.21 611.953 385.234 612.723 385.234 613.47V647H379.984ZM426.947 647V598.98H442.767C447.48 598.98 451.447 599.82 454.667 601.5C457.933 603.133 460.407 605.723 462.087 609.27C463.767 612.77 464.607 617.343 464.607 622.99C464.607 628.543 463.767 633.093 462.087 636.64C460.407 640.187 457.933 642.8 454.667 644.48C451.447 646.16 447.457 647 442.697 647H426.947ZM432.267 642.31H442.347C444.913 642.31 447.2 642.007 449.207 641.4C451.26 640.793 453.033 639.79 454.527 638.39C456.02 636.943 457.14 635.053 457.887 632.72C458.68 630.34 459.077 627.423 459.077 623.97V622.29C459.077 618.743 458.68 615.78 457.887 613.4C457.14 611.02 456.02 609.13 454.527 607.73C453.08 606.283 451.33 605.257 449.277 604.65C447.223 603.997 444.913 603.67 442.347 603.67H432.267V642.31ZM499.066 647.84C495.893 647.84 493.35 647.21 491.436 645.95C489.523 644.69 488.123 642.94 487.236 640.7C486.35 638.46 485.906 635.893 485.906 633H490.876C490.876 635.427 491.18 637.433 491.786 639.02C492.393 640.607 493.326 641.773 494.586 642.52C495.846 643.267 497.433 643.64 499.346 643.64C502.193 643.64 504.386 642.847 505.926 641.26C507.513 639.673 508.61 637.363 509.216 634.33C509.823 631.25 510.15 627.587 510.196 623.34C509.45 624.787 508.446 626 507.186 626.98C505.973 627.96 504.62 628.707 503.126 629.22C501.633 629.687 500.046 629.92 498.366 629.92C495.146 629.92 492.51 629.243 490.456 627.89C488.403 626.537 486.863 624.693 485.836 622.36C484.81 620.027 484.296 617.39 484.296 614.45C484.296 611.09 484.926 608.197 486.186 605.77C487.493 603.343 489.243 601.477 491.436 600.17C493.676 598.817 496.196 598.14 498.996 598.14C501.61 598.14 503.92 598.513 505.926 599.26C507.933 600.007 509.613 601.267 510.966 603.04C512.32 604.813 513.346 607.217 514.046 610.25C514.793 613.283 515.166 617.063 515.166 621.59C515.166 626.49 514.816 630.62 514.116 633.98C513.416 637.34 512.39 640.047 511.036 642.1C509.683 644.107 508.003 645.577 505.996 646.51C503.99 647.397 501.68 647.84 499.066 647.84ZM499.276 625.79C501.61 625.79 503.523 625.277 505.016 624.25C506.556 623.177 507.7 621.753 508.446 619.98C509.193 618.16 509.566 616.153 509.566 613.96C509.566 611.813 509.216 609.877 508.516 608.15C507.816 606.377 506.72 604.953 505.226 603.88C503.733 602.807 501.82 602.27 499.486 602.27C497.06 602.27 495.1 602.83 493.606 603.95C492.16 605.07 491.086 606.54 490.386 608.36C489.686 610.18 489.336 612.21 489.336 614.45C489.336 616.503 489.663 618.393 490.316 620.12C491.016 621.847 492.09 623.223 493.536 624.25C494.983 625.277 496.896 625.79 499.276 625.79Z" fill="#253360"/>
<path d="M196.434 708.48C193.634 708.48 191.274 707.947 189.354 706.88C187.461 705.813 186.021 704.227 185.034 702.12C184.074 700.013 183.594 697.4 183.594 694.28C183.594 689.587 184.728 686.053 186.994 683.68C189.261 681.28 192.434 680.08 196.514 680.08C198.941 680.08 201.048 680.453 202.834 681.2C204.648 681.947 206.048 683.067 207.034 684.56C208.021 686.053 208.514 687.933 208.514 690.2H206.354C206.354 688.28 205.954 686.72 205.154 685.52C204.381 684.32 203.248 683.44 201.754 682.88C200.288 682.293 198.514 682 196.434 682C194.381 682 192.554 682.4 190.954 683.2C189.354 684 188.101 685.28 187.194 687.04C186.314 688.8 185.874 691.147 185.874 694.08V694.92C185.874 697.72 186.314 699.973 187.194 701.68C188.101 703.387 189.354 704.627 190.954 705.4C192.554 706.173 194.394 706.56 196.474 706.56C198.528 706.56 200.288 706.28 201.754 705.72C203.248 705.133 204.394 704.24 205.194 703.04C205.994 701.84 206.394 700.28 206.394 698.36H208.514C208.514 700.68 207.994 702.587 206.954 704.08C205.914 705.573 204.488 706.68 202.674 707.4C200.861 708.12 198.781 708.48 196.434 708.48ZM213.647 708V686.96H215.087L215.287 690.6H215.527C215.687 689.96 215.94 689.333 216.287 688.72C216.66 688.08 217.18 687.547 217.847 687.12C218.513 686.693 219.353 686.48 220.367 686.48C220.74 686.48 221.073 686.507 221.367 686.56C221.66 686.613 221.873 686.667 222.007 686.72V688.4H220.887C219.9 688.4 219.06 688.6 218.367 689C217.7 689.4 217.153 689.933 216.727 690.6C216.327 691.267 216.033 692.013 215.847 692.84C215.66 693.64 215.567 694.453 215.567 695.28V708H213.647ZM232.892 708.48C230.972 708.48 229.332 708.093 227.972 707.32C226.612 706.52 225.572 705.307 224.852 703.68C224.132 702.053 223.772 699.987 223.772 697.48C223.772 694.947 224.132 692.88 224.852 691.28C225.572 689.653 226.612 688.453 227.972 687.68C229.332 686.88 230.972 686.48 232.892 686.48C234.839 686.48 236.479 686.88 237.812 687.68C239.172 688.453 240.212 689.653 240.932 691.28C241.652 692.88 242.012 694.947 242.012 697.48C242.012 699.987 241.652 702.053 240.932 703.68C240.212 705.307 239.172 706.52 237.812 707.32C236.479 708.093 234.839 708.48 232.892 708.48ZM232.892 706.76C234.359 706.76 235.612 706.467 236.652 705.88C237.719 705.293 238.532 704.36 239.092 703.08C239.679 701.8 239.972 700.133 239.972 698.08V696.88C239.972 694.8 239.679 693.133 239.092 691.88C238.532 690.6 237.719 689.667 236.652 689.08C235.612 688.493 234.359 688.2 232.892 688.2C231.425 688.2 230.159 688.493 229.092 689.08C228.052 689.667 227.239 690.6 226.652 691.88C226.092 693.133 225.812 694.8 225.812 696.88V698.08C225.812 700.133 226.092 701.8 226.652 703.08C227.239 704.36 228.052 705.293 229.092 705.88C230.159 706.467 231.425 706.76 232.892 706.76ZM252.937 708.48C251.604 708.48 250.417 708.347 249.377 708.08C248.364 707.84 247.511 707.467 246.817 706.96C246.151 706.427 245.644 705.773 245.297 705C244.951 704.227 244.777 703.32 244.777 702.28C244.777 702.173 244.777 702.053 244.777 701.92C244.777 701.787 244.791 701.667 244.817 701.56H246.737C246.711 701.72 246.697 701.853 246.697 701.96C246.697 702.067 246.697 702.173 246.697 702.28C246.697 703.453 246.951 704.373 247.457 705.04C247.991 705.68 248.737 706.133 249.697 706.4C250.684 706.64 251.831 706.76 253.137 706.76C254.257 706.76 255.244 706.6 256.097 706.28C256.977 705.933 257.657 705.453 258.137 704.84C258.644 704.2 258.897 703.427 258.897 702.52C258.897 701.4 258.577 700.56 257.937 700C257.297 699.413 256.471 698.973 255.457 698.68C254.471 698.36 253.444 698.04 252.377 697.72C251.551 697.48 250.724 697.227 249.897 696.96C249.097 696.667 248.364 696.32 247.697 695.92C247.057 695.493 246.537 694.96 246.137 694.32C245.764 693.68 245.577 692.867 245.577 691.88C245.577 691.08 245.737 690.347 246.057 689.68C246.377 689.013 246.844 688.44 247.457 687.96C248.097 687.48 248.884 687.12 249.817 686.88C250.751 686.613 251.831 686.48 253.057 686.48C254.524 686.48 255.737 686.653 256.697 687C257.657 687.32 258.404 687.773 258.937 688.36C259.497 688.92 259.884 689.533 260.097 690.2C260.337 690.867 260.457 691.547 260.457 692.24C260.457 692.32 260.457 692.413 260.457 692.52C260.457 692.627 260.444 692.747 260.417 692.88H258.497V692.24C258.497 691.68 258.364 691.093 258.097 690.48C257.857 689.84 257.337 689.307 256.537 688.88C255.764 688.427 254.564 688.2 252.937 688.2C252.031 688.2 251.244 688.28 250.577 688.44C249.911 688.6 249.351 688.84 248.897 689.16C248.444 689.453 248.097 689.827 247.857 690.28C247.644 690.733 247.537 691.267 247.537 691.88C247.537 692.787 247.804 693.48 248.337 693.96C248.871 694.413 249.564 694.773 250.417 695.04C251.271 695.307 252.177 695.6 253.137 695.92C254.044 696.213 254.951 696.507 255.857 696.8C256.791 697.093 257.631 697.453 258.377 697.88C259.151 698.307 259.764 698.867 260.217 699.56C260.671 700.227 260.897 701.107 260.897 702.2C260.897 703.187 260.697 704.067 260.297 704.84C259.897 705.613 259.337 706.28 258.617 706.84C257.924 707.373 257.084 707.773 256.097 708.04C255.137 708.333 254.084 708.48 252.937 708.48ZM271.843 708.48C270.51 708.48 269.323 708.347 268.283 708.08C267.27 707.84 266.417 707.467 265.723 706.96C265.057 706.427 264.55 705.773 264.203 705C263.857 704.227 263.683 703.32 263.683 702.28C263.683 702.173 263.683 702.053 263.683 701.92C263.683 701.787 263.697 701.667 263.723 701.56H265.643C265.617 701.72 265.603 701.853 265.603 701.96C265.603 702.067 265.603 702.173 265.603 702.28C265.603 703.453 265.857 704.373 266.363 705.04C266.897 705.68 267.643 706.133 268.603 706.4C269.59 706.64 270.737 706.76 272.043 706.76C273.163 706.76 274.15 706.6 275.003 706.28C275.883 705.933 276.563 705.453 277.043 704.84C277.55 704.2 277.803 703.427 277.803 702.52C277.803 701.4 277.483 700.56 276.843 700C276.203 699.413 275.377 698.973 274.363 698.68C273.377 698.36 272.35 698.04 271.283 697.72C270.457 697.48 269.63 697.227 268.803 696.96C268.003 696.667 267.27 696.32 266.603 695.92C265.963 695.493 265.443 694.96 265.043 694.32C264.67 693.68 264.483 692.867 264.483 691.88C264.483 691.08 264.643 690.347 264.963 689.68C265.283 689.013 265.75 688.44 266.363 687.96C267.003 687.48 267.79 687.12 268.723 686.88C269.657 686.613 270.737 686.48 271.963 686.48C273.43 686.48 274.643 686.653 275.603 687C276.563 687.32 277.31 687.773 277.843 688.36C278.403 688.92 278.79 689.533 279.003 690.2C279.243 690.867 279.363 691.547 279.363 692.24C279.363 692.32 279.363 692.413 279.363 692.52C279.363 692.627 279.35 692.747 279.323 692.88H277.403V692.24C277.403 691.68 277.27 691.093 277.003 690.48C276.763 689.84 276.243 689.307 275.443 688.88C274.67 688.427 273.47 688.2 271.843 688.2C270.937 688.2 270.15 688.28 269.483 688.44C268.817 688.6 268.257 688.84 267.803 689.16C267.35 689.453 267.003 689.827 266.763 690.28C266.55 690.733 266.443 691.267 266.443 691.88C266.443 692.787 266.71 693.48 267.243 693.96C267.777 694.413 268.47 694.773 269.323 695.04C270.177 695.307 271.083 695.6 272.043 695.92C272.95 696.213 273.857 696.507 274.763 696.8C275.697 697.093 276.537 697.453 277.283 697.88C278.057 698.307 278.67 698.867 279.123 699.56C279.577 700.227 279.803 701.107 279.803 702.2C279.803 703.187 279.603 704.067 279.203 704.84C278.803 705.613 278.243 706.28 277.523 706.84C276.83 707.373 275.99 707.773 275.003 708.04C274.043 708.333 272.99 708.48 271.843 708.48ZM305.419 708.48C302.619 708.48 300.259 707.947 298.339 706.88C296.445 705.813 295.005 704.227 294.019 702.12C293.059 700.013 292.579 697.4 292.579 694.28C292.579 689.587 293.712 686.053 295.979 683.68C298.245 681.28 301.419 680.08 305.499 680.08C307.925 680.08 310.032 680.453 311.819 681.2C313.632 681.947 315.032 683.067 316.019 684.56C317.005 686.053 317.499 687.933 317.499 690.2H315.339C315.339 688.28 314.939 686.72 314.139 685.52C313.365 684.32 312.232 683.44 310.739 682.88C309.272 682.293 307.499 682 305.419 682C303.365 682 301.539 682.4 299.939 683.2C298.339 684 297.085 685.28 296.179 687.04C295.299 688.8 294.859 691.147 294.859 694.08V694.92C294.859 697.72 295.299 699.973 296.179 701.68C297.085 703.387 298.339 704.627 299.939 705.4C301.539 706.173 303.379 706.56 305.459 706.56C307.512 706.56 309.272 706.28 310.739 705.72C312.232 705.133 313.379 704.24 314.179 703.04C314.979 701.84 315.379 700.28 315.379 698.36H317.499C317.499 700.68 316.979 702.587 315.939 704.08C314.899 705.573 313.472 706.68 311.659 707.4C309.845 708.12 307.765 708.48 305.419 708.48ZM322.631 708V679.08H324.551V689.84H324.831C325.471 688.96 326.151 688.28 326.871 687.8C327.618 687.32 328.404 686.987 329.231 686.8C330.084 686.587 330.991 686.48 331.951 686.48C333.284 686.48 334.444 686.693 335.431 687.12C336.418 687.52 337.178 688.2 337.711 689.16C338.271 690.12 338.551 691.427 338.551 693.08V708H336.631V693.08C336.631 692.067 336.498 691.24 336.231 690.6C335.964 689.96 335.591 689.467 335.111 689.12C334.658 688.773 334.111 688.533 333.471 688.4C332.858 688.267 332.191 688.2 331.471 688.2C330.324 688.2 329.218 688.467 328.151 689C327.084 689.507 326.218 690.293 325.551 691.36C324.884 692.427 324.551 693.8 324.551 695.48V708H322.631ZM349.314 708.48C348.354 708.48 347.461 708.36 346.634 708.12C345.834 707.907 345.128 707.573 344.514 707.12C343.928 706.64 343.461 706.04 343.114 705.32C342.794 704.6 342.634 703.747 342.634 702.76C342.634 701.293 343.008 700.107 343.754 699.2C344.501 698.293 345.541 697.6 346.874 697.12C348.208 696.613 349.781 696.28 351.594 696.12C353.408 695.933 355.368 695.84 357.474 695.84V692.68C357.474 691.72 357.288 690.907 356.914 690.24C356.568 689.573 355.941 689.067 355.034 688.72C354.154 688.373 352.928 688.2 351.354 688.2C349.861 688.2 348.674 688.4 347.794 688.8C346.941 689.173 346.328 689.693 345.954 690.36C345.608 691 345.434 691.72 345.434 692.52V693.2H343.594C343.568 693.067 343.554 692.933 343.554 692.8C343.554 692.667 343.554 692.507 343.554 692.32C343.554 690.933 343.901 689.813 344.594 688.96C345.288 688.107 346.261 687.48 347.514 687.08C348.794 686.68 350.261 686.48 351.914 686.48C353.488 686.48 354.821 686.72 355.914 687.2C357.034 687.653 357.888 688.32 358.474 689.2C359.088 690.053 359.394 691.093 359.394 692.32V705.44C359.394 705.947 359.474 706.293 359.634 706.48C359.794 706.667 360.048 706.76 360.394 706.76H362.274V707.88C361.794 708.093 361.354 708.24 360.954 708.32C360.554 708.4 360.181 708.44 359.834 708.44C359.114 708.44 358.581 708.28 358.234 707.96C357.914 707.613 357.701 707.16 357.594 706.6C357.514 706.013 357.474 705.387 357.474 704.72H357.194C356.661 705.52 355.968 706.2 355.114 706.76C354.261 707.32 353.341 707.747 352.354 708.04C351.368 708.333 350.354 708.48 349.314 708.48ZM349.474 706.76C350.381 706.76 351.301 706.613 352.234 706.32C353.168 706 354.021 705.56 354.794 705C355.594 704.44 356.234 703.773 356.714 703C357.221 702.2 357.474 701.32 357.474 700.36V697.64C354.514 697.64 352.101 697.8 350.234 698.12C348.368 698.413 346.981 698.933 346.074 699.68C345.194 700.427 344.754 701.467 344.754 702.8C344.754 703.76 344.968 704.533 345.394 705.12C345.821 705.707 346.394 706.133 347.114 706.4C347.834 706.64 348.621 706.76 349.474 706.76ZM365.404 682.12V679.08H367.324V682.12H365.404ZM365.404 708V686.96H367.324V708H365.404ZM373.178 708V686.96H374.578L374.818 690.52H375.098C375.738 689.427 376.444 688.587 377.218 688C378.018 687.413 378.858 687.013 379.738 686.8C380.618 686.587 381.538 686.48 382.498 686.48C383.831 686.48 384.991 686.693 385.978 687.12C386.964 687.52 387.724 688.2 388.258 689.16C388.818 690.12 389.098 691.427 389.098 693.08V708H387.178V693.08C387.178 692.067 387.044 691.24 386.778 690.6C386.511 689.96 386.138 689.467 385.658 689.12C385.204 688.773 384.658 688.533 384.018 688.4C383.404 688.267 382.738 688.2 382.018 688.2C380.871 688.2 379.764 688.48 378.698 689.04C377.631 689.6 376.764 690.427 376.098 691.52C375.431 692.587 375.098 693.907 375.098 695.48V708H373.178ZM415.77 708.48C412.97 708.48 410.61 707.947 408.69 706.88C406.797 705.813 405.357 704.227 404.37 702.12C403.41 700.013 402.93 697.4 402.93 694.28C402.93 689.587 404.064 686.053 406.33 683.68C408.597 681.28 411.77 680.08 415.85 680.08C418.277 680.08 420.384 680.453 422.17 681.2C423.984 681.947 425.384 683.067 426.37 684.56C427.357 686.053 427.85 687.933 427.85 690.2H425.69C425.69 688.28 425.29 686.72 424.49 685.52C423.717 684.32 422.584 683.44 421.09 682.88C419.624 682.293 417.85 682 415.77 682C413.717 682 411.89 682.4 410.29 683.2C408.69 684 407.437 685.28 406.53 687.04C405.65 688.8 405.21 691.147 405.21 694.08V694.92C405.21 697.72 405.65 699.973 406.53 701.68C407.437 703.387 408.69 704.627 410.29 705.4C411.89 706.173 413.73 706.56 415.81 706.56C417.864 706.56 419.624 706.28 421.09 705.72C422.584 705.133 423.73 704.24 424.53 703.04C425.33 701.84 425.73 700.28 425.73 698.36H427.85C427.85 700.68 427.33 702.587 426.29 704.08C425.25 705.573 423.824 706.68 422.01 707.4C420.197 708.12 418.117 708.48 415.77 708.48ZM440.783 708.48C438.863 708.48 437.223 708.093 435.863 707.32C434.503 706.52 433.463 705.307 432.743 703.68C432.023 702.053 431.663 699.987 431.663 697.48C431.663 694.947 432.023 692.88 432.743 691.28C433.463 689.653 434.503 688.453 435.863 687.68C437.223 686.88 438.863 686.48 440.783 686.48C442.729 686.48 444.369 686.88 445.703 687.68C447.063 688.453 448.103 689.653 448.823 691.28C449.543 692.88 449.903 694.947 449.903 697.48C449.903 699.987 449.543 702.053 448.823 703.68C448.103 705.307 447.063 706.52 445.703 707.32C444.369 708.093 442.729 708.48 440.783 708.48ZM440.783 706.76C442.249 706.76 443.503 706.467 444.543 705.88C445.609 705.293 446.423 704.36 446.983 703.08C447.569 701.8 447.863 700.133 447.863 698.08V696.88C447.863 694.8 447.569 693.133 446.983 691.88C446.423 690.6 445.609 689.667 444.543 689.08C443.503 688.493 442.249 688.2 440.783 688.2C439.316 688.2 438.049 688.493 436.983 689.08C435.943 689.667 435.129 690.6 434.543 691.88C433.983 693.133 433.703 694.8 433.703 696.88V698.08C433.703 700.133 433.983 701.8 434.543 703.08C435.129 704.36 435.943 705.293 436.983 705.88C438.049 706.467 439.316 706.76 440.783 706.76ZM454.428 708V679.08H456.348V708H454.428ZM462.201 708V679.08H464.121V708H462.201ZM475.135 708.48C474.175 708.48 473.281 708.36 472.455 708.12C471.655 707.907 470.948 707.573 470.335 707.12C469.748 706.64 469.281 706.04 468.935 705.32C468.615 704.6 468.455 703.747 468.455 702.76C468.455 701.293 468.828 700.107 469.575 699.2C470.321 698.293 471.361 697.6 472.695 697.12C474.028 696.613 475.601 696.28 477.415 696.12C479.228 695.933 481.188 695.84 483.295 695.84V692.68C483.295 691.72 483.108 690.907 482.735 690.24C482.388 689.573 481.761 689.067 480.855 688.72C479.975 688.373 478.748 688.2 477.175 688.2C475.681 688.2 474.495 688.4 473.615 688.8C472.761 689.173 472.148 689.693 471.775 690.36C471.428 691 471.255 691.72 471.255 692.52V693.2H469.415C469.388 693.067 469.375 692.933 469.375 692.8C469.375 692.667 469.375 692.507 469.375 692.32C469.375 690.933 469.721 689.813 470.415 688.96C471.108 688.107 472.081 687.48 473.335 687.08C474.615 686.68 476.081 686.48 477.735 686.48C479.308 686.48 480.641 686.72 481.735 687.2C482.855 687.653 483.708 688.32 484.295 689.2C484.908 690.053 485.215 691.093 485.215 692.32V705.44C485.215 705.947 485.295 706.293 485.455 706.48C485.615 706.667 485.868 706.76 486.215 706.76H488.095V707.88C487.615 708.093 487.175 708.24 486.775 708.32C486.375 708.4 486.001 708.44 485.655 708.44C484.935 708.44 484.401 708.28 484.055 707.96C483.735 707.613 483.521 707.16 483.415 706.6C483.335 706.013 483.295 705.387 483.295 704.72H483.015C482.481 705.52 481.788 706.2 480.935 706.76C480.081 707.32 479.161 707.747 478.175 708.04C477.188 708.333 476.175 708.48 475.135 708.48ZM475.295 706.76C476.201 706.76 477.121 706.613 478.055 706.32C478.988 706 479.841 705.56 480.615 705C481.415 704.44 482.055 703.773 482.535 703C483.041 702.2 483.295 701.32 483.295 700.36V697.64C480.335 697.64 477.921 697.8 476.055 698.12C474.188 698.413 472.801 698.933 471.895 699.68C471.015 700.427 470.575 701.467 470.575 702.8C470.575 703.76 470.788 704.533 471.215 705.12C471.641 705.707 472.215 706.133 472.935 706.4C473.655 706.64 474.441 706.76 475.295 706.76ZM499.865 708.48C498.398 708.48 497.105 708.187 495.985 707.6C494.891 706.987 493.958 706.053 493.185 704.8H492.905L492.625 708H491.225V679.08H493.145V689.84H493.425C493.931 688.987 494.531 688.32 495.225 687.84C495.918 687.36 496.665 687.013 497.465 686.8C498.265 686.587 499.065 686.48 499.865 686.48C501.598 686.48 503.078 686.867 504.305 687.64C505.558 688.413 506.518 689.587 507.185 691.16C507.851 692.733 508.185 694.747 508.185 697.2C508.185 699.867 507.851 702.027 507.185 703.68C506.545 705.333 505.611 706.547 504.385 707.32C503.158 708.093 501.651 708.48 499.865 708.48ZM499.865 706.76C501.038 706.76 502.091 706.507 503.025 706C503.985 705.467 504.745 704.573 505.305 703.32C505.865 702.04 506.145 700.293 506.145 698.08V696.88C506.145 694.8 505.891 693.133 505.385 691.88C504.878 690.6 504.131 689.667 503.145 689.08C502.185 688.493 500.998 688.2 499.585 688.2C498.918 688.2 498.211 688.307 497.465 688.52C496.718 688.707 496.011 689.107 495.345 689.72C494.705 690.307 494.171 691.187 493.745 692.36C493.345 693.533 493.145 695.093 493.145 697.04V697.84C493.145 699.76 493.371 701.387 493.825 702.72C494.278 704.027 494.998 705.027 495.985 705.72C496.998 706.413 498.291 706.76 499.865 706.76ZM520.509 708.48C518.589 708.48 516.949 708.093 515.589 707.32C514.229 706.52 513.189 705.307 512.469 703.68C511.749 702.053 511.389 699.987 511.389 697.48C511.389 694.947 511.749 692.88 512.469 691.28C513.189 689.653 514.229 688.453 515.589 687.68C516.949 686.88 518.589 686.48 520.509 686.48C522.456 686.48 524.096 686.88 525.429 687.68C526.789 688.453 527.829 689.653 528.549 691.28C529.269 692.88 529.629 694.947 529.629 697.48C529.629 699.987 529.269 702.053 528.549 703.68C527.829 705.307 526.789 706.52 525.429 707.32C524.096 708.093 522.456 708.48 520.509 708.48ZM520.509 706.76C521.976 706.76 523.229 706.467 524.269 705.88C525.336 705.293 526.149 704.36 526.709 703.08C527.296 701.8 527.589 700.133 527.589 698.08V696.88C527.589 694.8 527.296 693.133 526.709 691.88C526.149 690.6 525.336 689.667 524.269 689.08C523.229 688.493 521.976 688.2 520.509 688.2C519.042 688.2 517.776 688.493 516.709 689.08C515.669 689.667 514.856 690.6 514.269 691.88C513.709 693.133 513.429 694.8 513.429 696.88V698.08C513.429 700.133 513.709 701.8 514.269 703.08C514.856 704.36 515.669 705.293 516.709 705.88C517.776 706.467 519.042 706.76 520.509 706.76ZM534.154 708V686.96H535.594L535.794 690.6H536.034C536.194 689.96 536.448 689.333 536.794 688.72C537.168 688.08 537.688 687.547 538.354 687.12C539.021 686.693 539.861 686.48 540.874 686.48C541.248 686.48 541.581 686.507 541.874 686.56C542.168 686.613 542.381 686.667 542.514 686.72V688.4H541.394C540.408 688.4 539.568 688.6 538.874 689C538.208 689.4 537.661 689.933 537.234 690.6C536.834 691.267 536.541 692.013 536.354 692.84C536.168 693.64 536.074 694.453 536.074 695.28V708H534.154ZM550.76 708.48C549.8 708.48 548.906 708.36 548.08 708.12C547.28 707.907 546.573 707.573 545.96 707.12C545.373 706.64 544.906 706.04 544.56 705.32C544.24 704.6 544.08 703.747 544.08 702.76C544.08 701.293 544.453 700.107 545.2 699.2C545.946 698.293 546.986 697.6 548.32 697.12C549.653 696.613 551.226 696.28 553.04 696.12C554.853 695.933 556.813 695.84 558.92 695.84V692.68C558.92 691.72 558.733 690.907 558.36 690.24C558.013 689.573 557.386 689.067 556.48 688.72C555.6 688.373 554.373 688.2 552.8 688.2C551.306 688.2 550.12 688.4 549.24 688.8C548.386 689.173 547.773 689.693 547.4 690.36C547.053 691 546.88 691.72 546.88 692.52V693.2H545.04C545.013 693.067 545 692.933 545 692.8C545 692.667 545 692.507 545 692.32C545 690.933 545.346 689.813 546.04 688.96C546.733 688.107 547.706 687.48 548.96 687.08C550.24 686.68 551.706 686.48 553.36 686.48C554.933 686.48 556.266 686.72 557.36 687.2C558.48 687.653 559.333 688.32 559.92 689.2C560.533 690.053 560.84 691.093 560.84 692.32V705.44C560.84 705.947 560.92 706.293 561.08 706.48C561.24 706.667 561.493 706.76 561.84 706.76H563.72V707.88C563.24 708.093 562.8 708.24 562.4 708.32C562 708.4 561.626 708.44 561.28 708.44C560.56 708.44 560.026 708.28 559.68 707.96C559.36 707.613 559.146 707.16 559.04 706.6C558.96 706.013 558.92 705.387 558.92 704.72H558.64C558.106 705.52 557.413 706.2 556.56 706.76C555.706 707.32 554.786 707.747 553.8 708.04C552.813 708.333 551.8 708.48 550.76 708.48ZM550.92 706.76C551.826 706.76 552.746 706.613 553.68 706.32C554.613 706 555.466 705.56 556.24 705C557.04 704.44 557.68 703.773 558.16 703C558.666 702.2 558.92 701.32 558.92 700.36V697.64C555.96 697.64 553.546 697.8 551.68 698.12C549.813 698.413 548.426 698.933 547.52 699.68C546.64 700.427 546.2 701.467 546.2 702.8C546.2 703.76 546.413 704.533 546.84 705.12C547.266 705.707 547.84 706.133 548.56 706.4C549.28 706.64 550.066 706.76 550.92 706.76ZM571.05 708.44C570.223 708.44 569.57 708.307 569.09 708.04C568.61 707.773 568.263 707.387 568.05 706.88C567.863 706.347 567.77 705.733 567.77 705.04V688.68H564.81V686.96H567.77L568.17 681.12H569.69V686.96H573.97V688.68H569.69V704.48C569.69 705.28 569.77 705.867 569.93 706.24C570.116 706.587 570.583 706.76 571.33 706.76H573.97V707.88C573.703 708.013 573.396 708.12 573.05 708.2C572.703 708.28 572.356 708.333 572.01 708.36C571.663 708.413 571.343 708.44 571.05 708.44ZM577.943 682.12V679.08H579.863V682.12H577.943ZM577.943 708V686.96H579.863V708H577.943ZM593.517 708.48C591.597 708.48 589.957 708.093 588.597 707.32C587.237 706.52 586.197 705.307 585.477 703.68C584.757 702.053 584.397 699.987 584.397 697.48C584.397 694.947 584.757 692.88 585.477 691.28C586.197 689.653 587.237 688.453 588.597 687.68C589.957 686.88 591.597 686.48 593.517 686.48C595.464 686.48 597.104 686.88 598.437 687.68C599.797 688.453 600.837 689.653 601.557 691.28C602.277 692.88 602.637 694.947 602.637 697.48C602.637 699.987 602.277 702.053 601.557 703.68C600.837 705.307 599.797 706.52 598.437 707.32C597.104 708.093 595.464 708.48 593.517 708.48ZM593.517 706.76C594.984 706.76 596.237 706.467 597.277 705.88C598.344 705.293 599.157 704.36 599.717 703.08C600.304 701.8 600.597 700.133 600.597 698.08V696.88C600.597 694.8 600.304 693.133 599.717 691.88C599.157 690.6 598.344 689.667 597.277 689.08C596.237 688.493 594.984 688.2 593.517 688.2C592.05 688.2 590.784 688.493 589.717 689.08C588.677 689.667 587.864 690.6 587.277 691.88C586.717 693.133 586.437 694.8 586.437 696.88V698.08C586.437 700.133 586.717 701.8 587.277 703.08C587.864 704.36 588.677 705.293 589.717 705.88C590.784 706.467 592.05 706.76 593.517 706.76ZM607.162 708V686.96H608.562L608.802 690.52H609.082C609.722 689.427 610.429 688.587 611.202 688C612.002 687.413 612.842 687.013 613.722 686.8C614.602 686.587 615.522 686.48 616.482 686.48C617.816 686.48 618.976 686.693 619.962 687.12C620.949 687.52 621.709 688.2 622.242 689.16C622.802 690.12 623.082 691.427 623.082 693.08V708H621.162V693.08C621.162 692.067 621.029 691.24 620.762 690.6C620.496 689.96 620.122 689.467 619.642 689.12C619.189 688.773 618.642 688.533 618.002 688.4C617.389 688.267 616.722 688.2 616.002 688.2C614.856 688.2 613.749 688.48 612.682 689.04C611.616 689.6 610.749 690.427 610.082 691.52C609.416 692.587 609.082 693.907 609.082 695.48V708H607.162Z" fill="#384EC1"/>
<path d="M609 630H708" stroke="#253360" stroke-width="3"/>
<path d="M99 630H198" stroke="#253360" stroke-width="3"/>
<g clip-path="url(#clip1_101_22464)">
<path fill-rule="evenodd" clip-rule="evenodd" d="M398.619 95.0018C398.413 95.0006 398.206 95 398 95C395.153 95 392.332 95.1144 389.542 95.3389C392.488 95.1313 395.513 95.0172 398.619 95.0018ZM398 303C348.823 303 307.618 268.867 296.783 223H499.217C488.383 268.867 447.177 303 398 303Z" fill="#253360"/>
<rect x="373" y="378" width="50" height="16" fill="#253360"/>
<path d="M394 324C386.5 304 381.5 303 374 300L399 293V383.5H381C381 383.5 381.211 381.035 381.5 371.5C382.5 338.5 395.448 327.861 394 324Z" fill="#253360"/>
<path d="M402 324C409.5 304 414.5 303 422 300L397 293V383.5H415C415 383.5 414.789 381.035 414.5 371.5C413.5 338.5 400.552 327.861 402 324Z" fill="#253360"/>
<path d="M377.957 316.823C385.327 313.431 397.746 312.291 401.28 314.266C398.331 314.436 389.51 318.306 384.171 323.769C377.956 330.13 379.106 337.603 372.765 342.778C366.403 347.968 359.239 341.973 360.409 336.124C361.635 329.996 368.745 321.063 377.957 316.823Z" fill="#253360"/>
<path d="M295.349 251.64C298.251 259.216 298.576 271.684 296.374 275.08C296.397 272.127 293.113 263.071 288.011 257.387C282.071 250.769 274.538 251.427 269.79 244.76C265.027 238.073 271.478 231.317 277.238 232.867C283.272 234.491 291.721 242.17 295.349 251.64Z" fill="#253360"/>
<path d="M355.135 307.65C366.015 307.786 381.714 313.559 384.857 317.986C381.187 316.494 368.274 316.1 358.661 319.642C347.469 323.766 344.557 333.48 333.896 336.095C323.201 338.718 317.977 327.329 322.763 320.919C327.778 314.203 341.534 307.479 355.135 307.65Z" fill="#253360"/>
<path d="M330.285 294.501C340.266 298.834 352.511 310.229 353.698 315.526C350.89 312.731 339.134 307.374 328.899 306.924C316.983 306.399 310.541 314.232 299.698 312.521C288.821 310.804 288.407 298.281 295.3 294.22C302.521 289.966 317.808 289.084 330.285 294.501Z" fill="#253360"/>
<path d="M307.445 273.906C314.586 279.782 321.926 291.957 321.656 296.563C320.016 293.622 311.664 286.495 303.406 283.732C293.793 280.516 286.697 285.409 278.238 281.474C269.752 277.527 272.344 267.197 278.926 265.492C285.821 263.705 298.518 266.561 307.445 273.906Z" fill="#253360"/>
<path d="M418.372 316.823C411.002 313.431 398.582 312.291 395.049 314.266C397.998 314.436 406.819 318.306 412.158 323.769C418.372 330.13 417.223 337.603 423.564 342.778C429.925 347.968 437.09 341.973 435.92 336.124C434.694 329.996 427.584 321.063 418.372 316.823Z" fill="#253360"/>
<path d="M500.98 251.64C498.078 259.216 497.753 271.684 499.954 275.08C499.931 272.127 503.215 263.071 508.318 257.387C514.258 250.769 521.791 251.427 526.539 244.76C531.302 238.073 524.851 231.317 519.091 232.867C513.056 234.491 504.608 242.17 500.98 251.64Z" fill="#253360"/>
<path d="M441.194 307.65C430.313 307.786 414.614 313.559 411.471 317.986C415.141 316.494 428.055 316.1 437.668 319.642C448.859 323.766 451.772 333.48 462.433 336.095C473.127 338.718 478.352 327.329 473.565 320.919C468.551 314.203 454.794 307.479 441.194 307.65Z" fill="#253360"/>
<path d="M466.044 294.501C456.063 298.834 443.818 310.229 442.631 315.526C445.438 312.731 457.195 307.374 467.43 306.924C479.345 306.399 485.788 314.232 496.631 312.521C507.507 310.804 507.921 298.281 501.029 294.22C493.807 289.966 478.52 289.084 466.044 294.501Z" fill="#253360"/>
<path d="M488.884 273.906C481.742 279.782 474.402 291.957 474.672 296.563C476.312 293.622 484.665 286.495 492.922 283.732C502.535 280.516 509.632 285.409 518.091 281.474C526.576 277.527 523.985 267.197 517.403 265.492C510.507 263.705 497.811 266.561 488.884 273.906Z" fill="#253360"/>
<path fill-rule="evenodd" clip-rule="evenodd" d="M454 207C449.582 207 446 203.418 446 199C446 194.582 449.582 191 454 191L454 175L438 175C438 170.582 434.418 167 430 167C425.582 167 422 170.582 422 175L406 175L406 191C401.582 191 398 194.582 398 199C398 203.418 401.582 207 406 207L454 207ZM342 111.349C342.183 111.232 342.366 111.116 342.549 111L358 111C358 115.418 361.582 119 366 119C370.418 119 374 115.418 374 111L390 111L390 127C394.418 127 398 130.582 398 135C398 139.418 394.418 143 390 143L390 159L374 159C374 163.418 370.418 167 366 167C361.582 167 358 163.418 358 159L342 159L342 143C346.418 143 350 139.418 350 135C350 130.582 346.418 127 342 127L342 111.349Z" fill="#384EC1"/>
<path fill-rule="evenodd" clip-rule="evenodd" d="M501.697 206.994C501.697 206.996 501.697 206.998 501.697 207L454 207C449.582 207 446 203.418 446 199C446 194.582 449.582 191 454 191V175L470 175C470 179.418 473.582 183 478 183C482.418 183 486 179.418 486 175L499.217 175C500.444 180.196 501.282 185.542 501.697 191.006C497.419 191.165 494 194.683 494 199C494 203.317 497.419 206.835 501.697 206.994ZM296.783 175L310 175C310 179.418 313.582 183 318 183C322.418 183 326 179.418 326 175L342 175L342 191C337.582 191 334 194.582 334 199C334 203.418 337.582 207 342 207L294.303 207C294.102 204.36 294 201.692 294 199C294 190.74 294.963 182.704 296.783 175ZM358 207V207C353.582 207 350 203.418 350 199C350 194.582 353.582 191 358 191L358 175H374C374 179.418 377.582 183 382 183C386.418 183 390 179.418 390 175L406 175L406 191C410.418 191 414 194.582 414 199C414 203.418 410.418 207 406 207V207H358ZM406 175L406 159C410.418 159 414 155.418 414 151C414 146.582 410.418 143 406 143V127L422 127C422 122.582 425.582 119 430 119C434.418 119 438 122.582 438 127L454 127L454 143C449.582 143 446 146.582 446 151C446 155.418 449.582 159 454 159L454 175L438 175C438 170.582 434.418 167 430 167C425.582 167 422 170.582 422 175H406Z" fill="#798AFF"/>
</g>
</g>
<defs>
<clipPath id="clip0_101_22464">
<rect width="800" height="800" fill="white"/>
</clipPath>
<clipPath id="clip1_101_22464">
<rect width="400" height="400" fill="white" transform="translate(198 23)"/>
</clipPath>
</defs>
</svg>
