<svg width="800" height="800" viewBox="0 0 800 800" fill="none" xmlns="http://www.w3.org/2000/svg">
<g clip-path="url(#clip0_101_22464)">
<rect x="4" y="4" width="792" height="792" stroke="#253360" stroke-width="8"/>
<path d="M161.479 523.045C167.373 523.045 172.614 522.223 177.204 520.58C181.794 518.88 185.166 517.208 187.319 515.565L196.414 533.67C193.808 535.937 189.303 538.232 182.899 540.555C176.553 542.878 168.959 544.04 160.119 544.04C151.846 544.04 144.111 542.595 136.914 539.705C129.718 536.758 123.399 532.678 117.959 527.465C112.519 522.195 108.269 516.047 105.209 509.02C102.149 501.937 100.619 494.287 100.619 486.07C100.619 477.853 102.121 470.203 105.124 463.12C108.184 455.98 112.434 449.775 117.874 444.505C123.314 439.235 129.633 435.127 136.829 432.18C144.083 429.233 151.846 427.76 160.119 427.76C168.959 427.76 176.553 428.922 182.899 431.245C189.303 433.568 193.808 435.863 196.414 438.13L187.319 456.235C185.166 454.592 181.794 452.948 177.204 451.305C172.614 449.605 167.373 448.755 161.479 448.755C155.473 448.755 150.118 449.718 145.414 451.645C140.768 453.572 136.801 456.263 133.514 459.72C130.284 463.12 127.819 467.058 126.119 471.535C124.419 476.012 123.569 480.772 123.569 485.815C123.569 490.915 124.419 495.732 126.119 500.265C127.819 504.742 130.284 508.708 133.514 512.165C136.801 515.565 140.768 518.228 145.414 520.155C150.118 522.082 155.473 523.045 161.479 523.045ZM267.5 542V529.845C266.99 531.092 265.686 532.848 263.59 535.115C261.493 537.382 258.66 539.45 255.09 541.32C251.576 543.133 247.44 544.04 242.68 544.04C235.993 544.04 230.071 542.453 224.915 539.28C219.758 536.05 215.706 531.658 212.76 526.105C209.87 520.495 208.425 514.177 208.425 507.15C208.425 500.123 209.87 493.833 212.76 488.28C215.706 482.67 219.758 478.25 224.915 475.02C230.071 471.79 235.993 470.175 242.68 470.175C247.326 470.175 251.35 470.968 254.75 472.555C258.206 474.085 260.983 475.898 263.08 477.995C265.233 480.035 266.621 481.877 267.245 483.52V472.215H288.665V542H267.5ZM229.59 507.15C229.59 511.06 230.468 514.517 232.225 517.52C233.981 520.467 236.305 522.762 239.195 524.405C242.085 526.048 245.23 526.87 248.63 526.87C252.2 526.87 255.373 526.048 258.15 524.405C260.926 522.705 263.108 520.382 264.695 517.435C266.338 514.432 267.16 511.003 267.16 507.15C267.16 503.297 266.338 499.897 264.695 496.95C263.108 493.947 260.926 491.595 258.15 489.895C255.373 488.195 252.2 487.345 248.63 487.345C245.23 487.345 242.085 488.195 239.195 489.895C236.305 491.538 233.981 493.862 232.225 496.865C230.468 499.812 229.59 503.24 229.59 507.15ZM300.438 472.215H313.018V443.57H334.438V472.215H350.928V490.15H334.438V515.395C334.438 518.738 334.977 521.345 336.053 523.215C337.13 525.028 338.83 525.935 341.153 525.935C342.91 525.935 344.355 525.595 345.488 524.915C346.622 524.178 347.302 523.668 347.528 523.385L355.178 538.855C354.838 539.195 353.733 539.79 351.863 540.64C350.05 541.49 347.698 542.255 344.808 542.935C341.975 543.672 338.773 544.04 335.203 544.04C328.8 544.04 323.502 542.198 319.308 538.515C315.115 534.775 313.018 528.995 313.018 521.175V490.15H300.438V472.215ZM420.898 542V529.845C420.388 531.092 419.085 532.848 416.988 535.115C414.891 537.382 412.058 539.45 408.488 541.32C404.975 543.133 400.838 544.04 396.078 544.04C389.391 544.04 383.47 542.453 378.313 539.28C373.156 536.05 369.105 531.658 366.158 526.105C363.268 520.495 361.823 514.177 361.823 507.15C361.823 500.123 363.268 493.833 366.158 488.28C369.105 482.67 373.156 478.25 378.313 475.02C383.47 471.79 389.391 470.175 396.078 470.175C400.725 470.175 404.748 470.968 408.148 472.555C411.605 474.085 414.381 475.898 416.478 477.995C418.631 480.035 420.02 481.877 420.643 483.52V472.215H442.063V542H420.898ZM382.988 507.15C382.988 511.06 383.866 514.517 385.623 517.52C387.38 520.467 389.703 522.762 392.593 524.405C395.483 526.048 398.628 526.87 402.028 526.87C405.598 526.87 408.771 526.048 411.548 524.405C414.325 522.705 416.506 520.382 418.093 517.435C419.736 514.432 420.558 511.003 420.558 507.15C420.558 503.297 419.736 499.897 418.093 496.95C416.506 493.947 414.325 491.595 411.548 489.895C408.771 488.195 405.598 487.345 402.028 487.345C398.628 487.345 395.483 488.195 392.593 489.895C389.703 491.538 387.38 493.862 385.623 496.865C383.866 499.812 382.988 503.24 382.988 507.15ZM481.632 542H459.957V425.04H481.632V542ZM532.773 523.045L553.428 472.215H574.763L527.078 577.36H505.403L521.468 542L492.483 472.215H514.073L532.773 523.045ZM613.291 470.175C617.485 470.175 621.366 470.572 624.936 471.365C628.506 472.102 631.51 472.952 633.946 473.915C636.44 474.878 638.083 475.7 638.876 476.38L631.481 489.385C630.348 488.478 628.308 487.402 625.361 486.155C622.471 484.908 619.241 484.285 615.671 484.285C612.441 484.285 609.721 484.852 607.511 485.985C605.301 487.062 604.196 488.705 604.196 490.915C604.196 493.125 605.386 494.882 607.766 496.185C610.146 497.488 613.461 498.622 617.711 499.585C621.281 500.322 624.795 501.455 628.251 502.985C631.708 504.458 634.57 506.612 636.836 509.445C639.103 512.222 640.236 515.933 640.236 520.58C640.236 525.17 639.245 528.995 637.261 532.055C635.335 535.058 632.756 537.438 629.526 539.195C626.296 540.952 622.755 542.198 618.901 542.935C615.048 543.672 611.223 544.04 607.426 544.04C602.496 544.04 598.161 543.558 594.421 542.595C590.681 541.688 587.593 540.64 585.156 539.45C582.776 538.203 581.076 537.155 580.056 536.305L587.451 521.855C588.925 523.158 591.333 524.603 594.676 526.19C598.076 527.72 601.731 528.485 605.641 528.485C609.721 528.485 612.923 527.777 615.246 526.36C617.626 524.943 618.816 523.045 618.816 520.665C618.816 518.908 618.25 517.492 617.116 516.415C615.983 515.282 614.425 514.347 612.441 513.61C610.458 512.873 608.135 512.222 605.471 511.655C603.035 511.145 600.541 510.408 597.991 509.445C595.441 508.425 593.061 507.093 590.851 505.45C588.641 503.807 586.856 501.767 585.496 499.33C584.136 496.837 583.456 493.862 583.456 490.405C583.456 485.985 584.873 482.302 587.706 479.355C590.54 476.352 594.223 474.085 598.756 472.555C603.29 470.968 608.135 470.175 613.291 470.175ZM648.241 472.215H660.821V443.57H682.241V472.215H698.731V490.15H682.241V515.395C682.241 518.738 682.779 521.345 683.856 523.215C684.933 525.028 686.633 525.935 688.956 525.935C690.713 525.935 692.158 525.595 693.291 524.915C694.424 524.178 695.104 523.668 695.331 523.385L702.981 538.855C702.641 539.195 701.536 539.79 699.666 540.64C697.853 541.49 695.501 542.255 692.611 542.935C689.778 543.672 686.576 544.04 683.006 544.04C676.603 544.04 671.304 542.198 667.111 538.515C662.918 534.775 660.821 528.995 660.821 521.175V490.15H648.241V472.215Z" fill="#253360"/>
<path d="M294.74 647V598.98H325.12V603.67H300.06V620.4H322.74V625.09H300.06V647H294.74ZM350.723 647.84C347.083 647.84 343.956 647.257 341.343 646.09C338.729 644.877 336.723 642.94 335.323 640.28C333.923 637.573 333.223 634.027 333.223 629.64V598.98H338.613V630.69C338.613 634.89 339.663 638.017 341.763 640.07C343.863 642.123 346.849 643.15 350.723 643.15C354.736 643.15 357.816 642.123 359.963 640.07C362.156 638.017 363.253 634.89 363.253 630.69V598.98H368.573V629.64C368.573 634.027 367.849 637.573 366.403 640.28C364.956 642.94 362.903 644.877 360.243 646.09C357.583 647.257 354.409 647.84 350.723 647.84ZM379.984 647V598.98H385.234L407.074 632.02C407.307 632.3 407.587 632.72 407.914 633.28C408.24 633.793 408.567 634.33 408.894 634.89C409.267 635.45 409.57 635.94 409.804 636.36H410.084C410.084 635.567 410.084 634.797 410.084 634.05C410.084 633.257 410.084 632.533 410.084 631.88V598.98H415.334V647H410.574L388.314 613.33C388.034 612.91 387.59 612.233 386.984 611.3C386.424 610.367 385.934 609.55 385.514 608.85H385.164C385.164 609.597 385.164 610.367 385.164 611.16C385.21 611.953 385.234 612.723 385.234 613.47V647H379.984ZM426.947 647V598.98H442.767C447.48 598.98 451.447 599.82 454.667 601.5C457.933 603.133 460.407 605.723 462.087 609.27C463.767 612.77 464.607 617.343 464.607 622.99C464.607 628.543 463.767 633.093 462.087 636.64C460.407 640.187 457.933 642.8 454.667 644.48C451.447 646.16 447.457 647 442.697 647H426.947ZM432.267 642.31H442.347C444.913 642.31 447.2 642.007 449.207 641.4C451.26 640.793 453.033 639.79 454.527 638.39C456.02 636.943 457.14 635.053 457.887 632.72C458.68 630.34 459.077 627.423 459.077 623.97V622.29C459.077 618.743 458.68 615.78 457.887 613.4C457.14 611.02 456.02 609.13 454.527 607.73C453.08 606.283 451.33 605.257 449.277 604.65C447.223 603.997 444.913 603.67 442.347 603.67H432.267V642.31ZM499.066 647.84C495.893 647.84 493.35 647.21 491.436 645.95C489.523 644.69 488.123 642.94 487.236 640.7C486.35 638.46 485.906 635.893 485.906 633H490.876C490.876 635.427 491.18 637.433 491.786 639.02C492.393 640.607 493.326 641.773 494.586 642.52C495.846 643.267 497.433 643.64 499.346 643.64C502.193 643.64 504.386 642.847 505.926 641.26C507.513 639.673 508.61 637.363 509.216 634.33C509.823 631.25 510.15 627.587 510.196 623.34C509.45 624.787 508.446 626 507.186 626.98C505.973 627.96 504.62 628.707 503.126 629.22C501.633 629.687 500.046 629.92 498.366 629.92C495.146 629.92 492.51 629.243 490.456 627.89C488.403 626.537 486.863 624.693 485.836 622.36C484.81 620.027 484.296 617.39 484.296 614.45C484.296 611.09 484.926 608.197 486.186 605.77C487.493 603.343 489.243 601.477 491.436 600.17C493.676 598.817 496.196 598.14 498.996 598.14C501.61 598.14 503.92 598.513 505.926 599.26C507.933 600.007 509.613 601.267 510.966 603.04C512.32 604.813 513.346 607.217 514.046 610.25C514.793 613.283 515.166 617.063 515.166 621.59C515.166 626.49 514.816 630.62 514.116 633.98C513.416 637.34 512.39 640.047 511.036 642.1C509.683 644.107 508.003 645.577 505.996 646.51C503.99 647.397 501.68 647.84 499.066 647.84ZM499.276 625.79C501.61 625.79 503.523 625.277 505.016 624.25C506.556 623.177 507.7 621.753 508.446 619.98C509.193 618.16 509.566 616.153 509.566 613.96C509.566 611.813 509.216 609.877 508.516 608.15C507.816 606.377 506.72 604.953 505.226 603.88C503.733 602.807 501.82 602.27 499.486 602.27C497.06 602.27 495.1 602.83 493.606 603.95C492.16 605.07 491.086 606.54 490.386 608.36C489.686 610.18 489.336 612.21 489.336 614.45C489.336 616.503 489.663 618.393 490.316 620.12C491.016 621.847 492.09 623.223 493.536 624.25C494.983 625.277 496.896 625.79 499.276 625.79Z" fill="#253360"/>
<path d="M157.44 708V680.56H166.8C169.786 680.56 172.32 681.027 174.4 681.96C176.48 682.893 178.066 684.373 179.16 686.4C180.253 688.4 180.8 691.027 180.8 694.28C180.8 697.48 180.253 700.093 179.16 702.12C178.066 704.147 176.48 705.64 174.4 706.6C172.32 707.533 169.786 708 166.8 708H157.44ZM159.6 706.08H166.64C168.426 706.08 170.04 705.893 171.48 705.52C172.946 705.12 174.2 704.48 175.24 703.6C176.306 702.72 177.12 701.56 177.68 700.12C178.24 698.653 178.52 696.867 178.52 694.76V693.96C178.52 691.773 178.24 689.947 177.68 688.48C177.12 687.013 176.32 685.84 175.28 684.96C174.24 684.08 172.986 683.453 171.52 683.08C170.08 682.68 168.453 682.48 166.64 682.48H159.6V706.08ZM191.248 708.48C190.288 708.48 189.395 708.36 188.568 708.12C187.768 707.907 187.061 707.573 186.448 707.12C185.861 706.64 185.395 706.04 185.048 705.32C184.728 704.6 184.568 703.747 184.568 702.76C184.568 701.293 184.941 700.107 185.688 699.2C186.435 698.293 187.475 697.6 188.808 697.12C190.141 696.613 191.715 696.28 193.528 696.12C195.341 695.933 197.301 695.84 199.408 695.84V692.68C199.408 691.72 199.221 690.907 198.848 690.24C198.501 689.573 197.875 689.067 196.968 688.72C196.088 688.373 194.861 688.2 193.288 688.2C191.795 688.2 190.608 688.4 189.728 688.8C188.875 689.173 188.261 689.693 187.888 690.36C187.541 691 187.368 691.72 187.368 692.52V693.2H185.528C185.501 693.067 185.488 692.933 185.488 692.8C185.488 692.667 185.488 692.507 185.488 692.32C185.488 690.933 185.835 689.813 186.528 688.96C187.221 688.107 188.195 687.48 189.448 687.08C190.728 686.68 192.195 686.48 193.848 686.48C195.421 686.48 196.755 686.72 197.848 687.2C198.968 687.653 199.821 688.32 200.408 689.2C201.021 690.053 201.328 691.093 201.328 692.32V705.44C201.328 705.947 201.408 706.293 201.568 706.48C201.728 706.667 201.981 706.76 202.328 706.76H204.208V707.88C203.728 708.093 203.288 708.24 202.888 708.32C202.488 708.4 202.115 708.44 201.768 708.44C201.048 708.44 200.515 708.28 200.168 707.96C199.848 707.613 199.635 707.16 199.528 706.6C199.448 706.013 199.408 705.387 199.408 704.72H199.128C198.595 705.52 197.901 706.2 197.048 706.76C196.195 707.32 195.275 707.747 194.288 708.04C193.301 708.333 192.288 708.48 191.248 708.48ZM191.408 706.76C192.315 706.76 193.235 706.613 194.168 706.32C195.101 706 195.955 705.56 196.728 705C197.528 704.44 198.168 703.773 198.648 703C199.155 702.2 199.408 701.32 199.408 700.36V697.64C196.448 697.64 194.035 697.8 192.168 698.12C190.301 698.413 188.915 698.933 188.008 699.68C187.128 700.427 186.688 701.467 186.688 702.8C186.688 703.76 186.901 704.533 187.328 705.12C187.755 705.707 188.328 706.133 189.048 706.4C189.768 706.64 190.555 706.76 191.408 706.76ZM207.338 714.92V686.96H208.738L209.018 690.16H209.298C210.071 688.907 211.018 687.987 212.138 687.4C213.258 686.787 214.538 686.48 215.978 686.48C217.765 686.48 219.271 686.867 220.498 687.64C221.725 688.413 222.658 689.627 223.298 691.28C223.965 692.933 224.298 695.093 224.298 697.76C224.298 700.187 223.965 702.2 223.298 703.8C222.631 705.373 221.671 706.547 220.418 707.32C219.191 708.093 217.711 708.48 215.978 708.48C215.178 708.48 214.378 708.373 213.578 708.16C212.778 707.947 212.031 707.6 211.338 707.12C210.645 706.613 210.045 705.947 209.538 705.12H209.258V714.92H207.338ZM215.698 706.76C217.111 706.76 218.298 706.467 219.258 705.88C220.245 705.293 220.991 704.36 221.498 703.08C222.005 701.8 222.258 700.133 222.258 698.08V696.88C222.258 694.64 221.978 692.893 221.418 691.64C220.858 690.387 220.098 689.507 219.138 689C218.205 688.467 217.151 688.2 215.978 688.2C214.405 688.2 213.111 688.547 212.098 689.24C211.111 689.907 210.391 690.907 209.938 692.24C209.485 693.573 209.258 695.2 209.258 697.12V697.92C209.258 699.867 209.458 701.427 209.858 702.6C210.285 703.773 210.818 704.667 211.458 705.28C212.125 705.867 212.831 706.267 213.578 706.48C214.325 706.667 215.031 706.76 215.698 706.76ZM228.822 714.92V686.96H230.222L230.502 690.16H230.782C231.556 688.907 232.502 687.987 233.622 687.4C234.742 686.787 236.022 686.48 237.462 686.48C239.249 686.48 240.756 686.867 241.982 687.64C243.209 688.413 244.142 689.627 244.782 691.28C245.449 692.933 245.782 695.093 245.782 697.76C245.782 700.187 245.449 702.2 244.782 703.8C244.116 705.373 243.156 706.547 241.902 707.32C240.676 708.093 239.196 708.48 237.462 708.48C236.662 708.48 235.862 708.373 235.062 708.16C234.262 707.947 233.516 707.6 232.822 707.12C232.129 706.613 231.529 705.947 231.022 705.12H230.742V714.92H228.822ZM237.182 706.76C238.596 706.76 239.782 706.467 240.742 705.88C241.729 705.293 242.476 704.36 242.982 703.08C243.489 701.8 243.742 700.133 243.742 698.08V696.88C243.742 694.64 243.462 692.893 242.902 691.64C242.342 690.387 241.582 689.507 240.622 689C239.689 688.467 238.636 688.2 237.462 688.2C235.889 688.2 234.596 688.547 233.582 689.24C232.596 689.907 231.876 690.907 231.422 692.24C230.969 693.573 230.742 695.2 230.742 697.12V697.92C230.742 699.867 230.942 701.427 231.342 702.6C231.769 703.773 232.302 704.667 232.942 705.28C233.609 705.867 234.316 706.267 235.062 706.48C235.809 706.667 236.516 706.76 237.182 706.76ZM256.707 708.48C255.373 708.48 254.187 708.347 253.147 708.08C252.133 707.84 251.28 707.467 250.587 706.96C249.92 706.427 249.413 705.773 249.067 705C248.72 704.227 248.547 703.32 248.547 702.28C248.547 702.173 248.547 702.053 248.547 701.92C248.547 701.787 248.56 701.667 248.587 701.56H250.507C250.48 701.72 250.467 701.853 250.467 701.96C250.467 702.067 250.467 702.173 250.467 702.28C250.467 703.453 250.72 704.373 251.227 705.04C251.76 705.68 252.507 706.133 253.467 706.4C254.453 706.64 255.6 706.76 256.907 706.76C258.027 706.76 259.013 706.6 259.867 706.28C260.747 705.933 261.427 705.453 261.907 704.84C262.413 704.2 262.667 703.427 262.667 702.52C262.667 701.4 262.347 700.56 261.707 700C261.067 699.413 260.24 698.973 259.227 698.68C258.24 698.36 257.213 698.04 256.147 697.72C255.32 697.48 254.493 697.227 253.667 696.96C252.867 696.667 252.133 696.32 251.467 695.92C250.827 695.493 250.307 694.96 249.907 694.32C249.533 693.68 249.347 692.867 249.347 691.88C249.347 691.08 249.507 690.347 249.827 689.68C250.147 689.013 250.613 688.44 251.227 687.96C251.867 687.48 252.653 687.12 253.587 686.88C254.52 686.613 255.6 686.48 256.827 686.48C258.293 686.48 259.507 686.653 260.467 687C261.427 687.32 262.173 687.773 262.707 688.36C263.267 688.92 263.653 689.533 263.867 690.2C264.107 690.867 264.227 691.547 264.227 692.24C264.227 692.32 264.227 692.413 264.227 692.52C264.227 692.627 264.213 692.747 264.187 692.88H262.267V692.24C262.267 691.68 262.133 691.093 261.867 690.48C261.627 689.84 261.107 689.307 260.307 688.88C259.533 688.427 258.333 688.2 256.707 688.2C255.8 688.2 255.013 688.28 254.347 688.44C253.68 688.6 253.12 688.84 252.667 689.16C252.213 689.453 251.867 689.827 251.627 690.28C251.413 690.733 251.307 691.267 251.307 691.88C251.307 692.787 251.573 693.48 252.107 693.96C252.64 694.413 253.333 694.773 254.187 695.04C255.04 695.307 255.947 695.6 256.907 695.92C257.813 696.213 258.72 696.507 259.627 696.8C260.56 697.093 261.4 697.453 262.147 697.88C262.92 698.307 263.533 698.867 263.987 699.56C264.44 700.227 264.667 701.107 264.667 702.2C264.667 703.187 264.467 704.067 264.067 704.84C263.667 705.613 263.107 706.28 262.387 706.84C261.693 707.373 260.853 707.773 259.867 708.04C258.907 708.333 257.853 708.48 256.707 708.48ZM269.413 713.12V711.96C269.786 711.827 270.093 711.573 270.333 711.2C270.573 710.853 270.746 710.4 270.853 709.84C270.96 709.307 271.013 708.693 271.013 708H269.933V704.92H272.493V707.56C272.493 709.08 272.306 710.213 271.933 710.96C271.56 711.733 271.12 712.267 270.613 712.56C270.133 712.853 269.733 713.04 269.413 713.12ZM289.002 708V680.56H302.322C304.082 680.56 305.535 680.907 306.682 681.6C307.855 682.293 308.722 683.24 309.282 684.44C309.869 685.613 310.162 686.933 310.162 688.4C310.162 689.973 309.815 691.387 309.122 692.64C308.429 693.867 307.509 694.84 306.362 695.56C305.215 696.253 303.949 696.6 302.562 696.6H291.162V708H289.002ZM291.162 694.68H302.242C303.922 694.68 305.295 694.133 306.362 693.04C307.429 691.92 307.962 690.4 307.962 688.48C307.962 687.227 307.749 686.16 307.322 685.28C306.922 684.373 306.295 683.68 305.442 683.2C304.589 682.72 303.522 682.48 302.242 682.48H291.162V694.68ZM314.369 708V686.96H315.809L316.009 690.6H316.249C316.409 689.96 316.663 689.333 317.009 688.72C317.383 688.08 317.903 687.547 318.569 687.12C319.236 686.693 320.076 686.48 321.089 686.48C321.463 686.48 321.796 686.507 322.089 686.56C322.383 686.613 322.596 686.667 322.729 686.72V688.4H321.609C320.623 688.4 319.783 688.6 319.089 689C318.423 689.4 317.876 689.933 317.449 690.6C317.049 691.267 316.756 692.013 316.569 692.84C316.383 693.64 316.289 694.453 316.289 695.28V708H314.369ZM333.615 708.48C331.695 708.48 330.055 708.093 328.695 707.32C327.335 706.52 326.295 705.307 325.575 703.68C324.855 702.053 324.495 699.987 324.495 697.48C324.495 694.947 324.855 692.88 325.575 691.28C326.295 689.653 327.335 688.453 328.695 687.68C330.055 686.88 331.695 686.48 333.615 686.48C335.561 686.48 337.201 686.88 338.535 687.68C339.895 688.453 340.935 689.653 341.655 691.28C342.375 692.88 342.735 694.947 342.735 697.48C342.735 699.987 342.375 702.053 341.655 703.68C340.935 705.307 339.895 706.52 338.535 707.32C337.201 708.093 335.561 708.48 333.615 708.48ZM333.615 706.76C335.081 706.76 336.335 706.467 337.375 705.88C338.441 705.293 339.255 704.36 339.815 703.08C340.401 701.8 340.695 700.133 340.695 698.08V696.88C340.695 694.8 340.401 693.133 339.815 691.88C339.255 690.6 338.441 689.667 337.375 689.08C336.335 688.493 335.081 688.2 333.615 688.2C332.148 688.2 330.881 688.493 329.815 689.08C328.775 689.667 327.961 690.6 327.375 691.88C326.815 693.133 326.535 694.8 326.535 696.88V698.08C326.535 700.133 326.815 701.8 327.375 703.08C327.961 704.36 328.775 705.293 329.815 705.88C330.881 706.467 332.148 706.76 333.615 706.76ZM354.26 708.48C352.5 708.48 350.993 708.093 349.74 707.32C348.513 706.547 347.567 705.333 346.9 703.68C346.26 702.027 345.94 699.867 345.94 697.2C345.94 694.747 346.273 692.733 346.94 691.16C347.607 689.587 348.553 688.413 349.78 687.64C351.033 686.867 352.527 686.48 354.26 686.48C355.167 686.48 356.007 686.587 356.78 686.8C357.58 687.013 358.3 687.36 358.94 687.84C359.607 688.32 360.193 688.987 360.7 689.84H360.98V679.08H362.9V708H361.5L361.22 704.8H360.94C360.167 706.053 359.193 706.987 358.02 707.6C356.847 708.187 355.593 708.48 354.26 708.48ZM354.26 706.76C355.86 706.76 357.153 706.413 358.14 705.72C359.127 705.027 359.847 704.027 360.3 702.72C360.753 701.387 360.98 699.76 360.98 697.84V697.04C360.98 695.093 360.767 693.533 360.34 692.36C359.94 691.187 359.407 690.307 358.74 689.72C358.1 689.107 357.407 688.707 356.66 688.52C355.913 688.307 355.207 688.2 354.54 688.2C353.127 688.2 351.927 688.493 350.94 689.08C349.98 689.667 349.247 690.6 348.74 691.88C348.233 693.133 347.98 694.8 347.98 696.88V698.08C347.98 700.293 348.26 702.04 348.82 703.32C349.38 704.573 350.127 705.467 351.06 706C352.02 706.507 353.087 706.76 354.26 706.76ZM375.104 708.48C373.104 708.48 371.504 708 370.304 707.04C369.104 706.053 368.504 704.333 368.504 701.88V686.96H370.424V701.88C370.424 702.893 370.558 703.72 370.824 704.36C371.091 705 371.451 705.493 371.904 705.84C372.384 706.187 372.931 706.427 373.544 706.56C374.184 706.693 374.864 706.76 375.584 706.76C376.731 706.76 377.824 706.48 378.864 705.92C379.931 705.36 380.798 704.533 381.464 703.44C382.158 702.347 382.504 701.027 382.504 699.48V686.96H384.424V708H383.024L382.784 704.44H382.504C381.864 705.533 381.158 706.373 380.384 706.96C379.611 707.547 378.771 707.947 377.864 708.16C376.984 708.373 376.064 708.48 375.104 708.48ZM397.428 708.48C395.588 708.48 394.014 708.08 392.708 707.28C391.428 706.48 390.441 705.267 389.748 703.64C389.054 701.987 388.708 699.933 388.708 697.48C388.708 695.08 389.041 693.067 389.708 691.44C390.401 689.787 391.414 688.547 392.748 687.72C394.081 686.893 395.708 686.48 397.628 686.48C399.121 686.48 400.361 686.68 401.348 687.08C402.361 687.48 403.161 688.053 403.748 688.8C404.334 689.52 404.748 690.387 404.988 691.4C405.254 692.387 405.388 693.467 405.388 694.64H403.508C403.508 693.12 403.308 691.893 402.908 690.96C402.534 690 401.908 689.307 401.028 688.88C400.174 688.427 399.014 688.2 397.548 688.2C396.321 688.2 395.188 688.467 394.148 689C393.108 689.533 392.281 690.427 391.668 691.68C391.054 692.933 390.748 694.667 390.748 696.88V698.08C390.748 700.133 391.028 701.8 391.588 703.08C392.148 704.36 392.934 705.293 393.948 705.88C394.961 706.467 396.134 706.76 397.468 706.76C399.014 706.76 400.214 706.507 401.068 706C401.948 705.467 402.574 704.72 402.948 703.76C403.321 702.773 403.508 701.627 403.508 700.32H405.388C405.388 701.333 405.254 702.333 404.988 703.32C404.748 704.28 404.321 705.147 403.708 705.92C403.121 706.693 402.308 707.32 401.268 707.8C400.254 708.253 398.974 708.48 397.428 708.48ZM413.882 708.44C413.055 708.44 412.402 708.307 411.922 708.04C411.442 707.773 411.095 707.387 410.882 706.88C410.695 706.347 410.602 705.733 410.602 705.04V688.68H407.642V686.96H410.602L411.002 681.12H412.522V686.96H416.802V688.68H412.522V704.48C412.522 705.28 412.602 705.867 412.762 706.24C412.948 706.587 413.415 706.76 414.162 706.76H416.802V707.88C416.535 708.013 416.228 708.12 415.882 708.2C415.535 708.28 415.188 708.333 414.842 708.36C414.495 708.413 414.175 708.44 413.882 708.44ZM427.175 708.48C425.842 708.48 424.655 708.347 423.615 708.08C422.602 707.84 421.749 707.467 421.055 706.96C420.389 706.427 419.882 705.773 419.535 705C419.189 704.227 419.015 703.32 419.015 702.28C419.015 702.173 419.015 702.053 419.015 701.92C419.015 701.787 419.029 701.667 419.055 701.56H420.975C420.949 701.72 420.935 701.853 420.935 701.96C420.935 702.067 420.935 702.173 420.935 702.28C420.935 703.453 421.189 704.373 421.695 705.04C422.229 705.68 422.975 706.133 423.935 706.4C424.922 706.64 426.069 706.76 427.375 706.76C428.495 706.76 429.482 706.6 430.335 706.28C431.215 705.933 431.895 705.453 432.375 704.84C432.882 704.2 433.135 703.427 433.135 702.52C433.135 701.4 432.815 700.56 432.175 700C431.535 699.413 430.709 698.973 429.695 698.68C428.709 698.36 427.682 698.04 426.615 697.72C425.789 697.48 424.962 697.227 424.135 696.96C423.335 696.667 422.602 696.32 421.935 695.92C421.295 695.493 420.775 694.96 420.375 694.32C420.002 693.68 419.815 692.867 419.815 691.88C419.815 691.08 419.975 690.347 420.295 689.68C420.615 689.013 421.082 688.44 421.695 687.96C422.335 687.48 423.122 687.12 424.055 686.88C424.989 686.613 426.069 686.48 427.295 686.48C428.762 686.48 429.975 686.653 430.935 687C431.895 687.32 432.642 687.773 433.175 688.36C433.735 688.92 434.122 689.533 434.335 690.2C434.575 690.867 434.695 691.547 434.695 692.24C434.695 692.32 434.695 692.413 434.695 692.52C434.695 692.627 434.682 692.747 434.655 692.88H432.735V692.24C432.735 691.68 432.602 691.093 432.335 690.48C432.095 689.84 431.575 689.307 430.775 688.88C430.002 688.427 428.802 688.2 427.175 688.2C426.269 688.2 425.482 688.28 424.815 688.44C424.149 688.6 423.589 688.84 423.135 689.16C422.682 689.453 422.335 689.827 422.095 690.28C421.882 690.733 421.775 691.267 421.775 691.88C421.775 692.787 422.042 693.48 422.575 693.96C423.109 694.413 423.802 694.773 424.655 695.04C425.509 695.307 426.415 695.6 427.375 695.92C428.282 696.213 429.189 696.507 430.095 696.8C431.029 697.093 431.869 697.453 432.615 697.88C433.389 698.307 434.002 698.867 434.455 699.56C434.909 700.227 435.135 701.107 435.135 702.2C435.135 703.187 434.935 704.067 434.535 704.84C434.135 705.613 433.575 706.28 432.855 706.84C432.162 707.373 431.322 707.773 430.335 708.04C429.375 708.333 428.322 708.48 427.175 708.48ZM439.882 713.12V711.96C440.255 711.827 440.562 711.573 440.802 711.2C441.042 710.853 441.215 710.4 441.322 709.84C441.428 709.307 441.482 708.693 441.482 708H440.402V704.92H442.962V707.56C442.962 709.08 442.775 710.213 442.402 710.96C442.028 711.733 441.588 712.267 441.082 712.56C440.602 712.853 440.202 713.04 439.882 713.12ZM459.471 708V680.56H461.631V708H459.471ZM468.471 708V686.96H469.871L470.111 690.52H470.391C471.031 689.427 471.737 688.587 472.511 688C473.311 687.413 474.151 687.013 475.031 686.8C475.911 686.587 476.831 686.48 477.791 686.48C479.124 686.48 480.284 686.693 481.271 687.12C482.257 687.52 483.017 688.2 483.551 689.16C484.111 690.12 484.391 691.427 484.391 693.08V708H482.471V693.08C482.471 692.067 482.337 691.24 482.071 690.6C481.804 689.96 481.431 689.467 480.951 689.12C480.497 688.773 479.951 688.533 479.311 688.4C478.697 688.267 478.031 688.2 477.311 688.2C476.164 688.2 475.057 688.48 473.991 689.04C472.924 689.6 472.057 690.427 471.391 691.52C470.724 692.587 470.391 693.907 470.391 695.48V708H468.471ZM494.194 708.44C493.368 708.44 492.714 708.307 492.234 708.04C491.754 707.773 491.408 707.387 491.194 706.88C491.008 706.347 490.914 705.733 490.914 705.04V688.68H487.954V686.96H490.914L491.314 681.12H492.834V686.96H497.114V688.68H492.834V704.48C492.834 705.28 492.914 705.867 493.074 706.24C493.261 706.587 493.728 706.76 494.474 706.76H497.114V707.88C496.848 708.013 496.541 708.12 496.194 708.2C495.848 708.28 495.501 708.333 495.154 708.36C494.808 708.413 494.488 708.44 494.194 708.44ZM508.768 708.48C506.875 708.48 505.248 708.093 503.888 707.32C502.555 706.52 501.528 705.307 500.808 703.68C500.115 702.053 499.768 699.987 499.768 697.48C499.768 694.947 500.115 692.88 500.808 691.28C501.528 689.653 502.581 688.453 503.968 687.68C505.355 686.88 507.061 686.48 509.088 686.48C511.008 686.48 512.608 686.867 513.888 687.64C515.195 688.413 516.181 689.52 516.848 690.96C517.515 692.373 517.848 694.053 517.848 696V698H501.808C501.808 700.133 502.088 701.853 502.648 703.16C503.235 704.44 504.048 705.36 505.088 705.92C506.155 706.48 507.421 706.76 508.888 706.76C510.115 706.76 511.155 706.6 512.008 706.28C512.861 705.96 513.555 705.533 514.088 705C514.648 704.467 515.061 703.853 515.328 703.16C515.621 702.467 515.781 701.76 515.808 701.04H517.648C517.621 701.947 517.435 702.84 517.088 703.72C516.768 704.6 516.261 705.4 515.568 706.12C514.875 706.84 513.968 707.413 512.848 707.84C511.728 708.267 510.368 708.48 508.768 708.48ZM501.808 696.28H515.848C515.848 694.76 515.675 693.493 515.328 692.48C514.981 691.44 514.488 690.613 513.848 690C513.235 689.36 512.501 688.907 511.648 688.64C510.821 688.347 509.901 688.2 508.888 688.2C507.421 688.2 506.168 688.493 505.128 689.08C504.115 689.64 503.328 690.52 502.768 691.72C502.208 692.893 501.888 694.413 501.808 696.28ZM526.017 715.28C524.95 715.28 523.977 715.04 523.097 714.56C522.217 714.107 521.524 713.467 521.017 712.64C520.51 711.813 520.257 710.893 520.257 709.88C520.257 708.707 520.55 707.68 521.137 706.8C521.75 705.893 522.577 705.227 523.617 704.8C522.87 704.507 522.31 704.053 521.937 703.44C521.59 702.827 521.417 702.2 521.417 701.56C521.417 700.68 521.724 699.907 522.337 699.24C522.95 698.547 523.75 698.093 524.737 697.88C523.91 697.293 523.23 696.573 522.697 695.72C522.19 694.84 521.937 693.907 521.937 692.92C521.937 691.72 522.217 690.64 522.777 689.68C523.337 688.693 524.204 687.92 525.377 687.36C526.577 686.773 528.097 686.48 529.937 686.48C530.87 686.48 531.724 686.56 532.497 686.72C533.27 686.853 533.964 687.067 534.577 687.36C535.51 687.12 536.27 686.693 536.857 686.08C537.47 685.44 537.884 684.627 538.097 683.64H540.097C540.044 684.307 539.844 684.987 539.497 685.68C539.177 686.347 538.71 686.92 538.097 687.4C537.51 687.88 536.79 688.173 535.937 688.28C536.63 688.947 537.137 689.68 537.457 690.48C537.777 691.253 537.937 692.067 537.937 692.92C537.937 694.093 537.657 695.173 537.097 696.16C536.537 697.12 535.67 697.893 534.497 698.48C533.324 699.067 531.804 699.36 529.937 699.36H526.577C525.67 699.36 524.91 699.533 524.297 699.88C523.684 700.2 523.377 700.787 523.377 701.64C523.377 702.387 523.697 702.96 524.337 703.36C525.004 703.733 525.817 703.92 526.777 703.92H534.577C536.097 703.92 537.324 704.453 538.257 705.52C539.217 706.56 539.697 707.853 539.697 709.4C539.697 710.493 539.43 711.48 538.897 712.36C538.39 713.267 537.67 713.973 536.737 714.48C535.83 715.013 534.777 715.28 533.577 715.28H526.017ZM526.137 713.6H533.497C534.27 713.6 534.977 713.413 535.617 713.04C536.257 712.693 536.764 712.213 537.137 711.6C537.537 711.013 537.737 710.373 537.737 709.68C537.737 708.507 537.404 707.547 536.737 706.8C536.07 706.053 535.257 705.68 534.297 705.68H526.137C525.07 705.68 524.15 706.08 523.377 706.88C522.604 707.653 522.217 708.587 522.217 709.68C522.217 710.88 522.604 711.827 523.377 712.52C524.15 713.24 525.07 713.6 526.137 713.6ZM529.937 697.64C531.99 697.64 533.51 697.213 534.497 696.36C535.484 695.507 535.977 694.36 535.977 692.92C535.977 691.48 535.484 690.333 534.497 689.48C533.51 688.627 531.99 688.2 529.937 688.2C527.91 688.2 526.39 688.627 525.377 689.48C524.39 690.333 523.897 691.48 523.897 692.92C523.897 693.8 524.11 694.6 524.537 695.32C524.99 696.04 525.67 696.613 526.577 697.04C527.484 697.44 528.604 697.64 529.937 697.64ZM542.963 708V686.96H544.403L544.603 690.6H544.843C545.003 689.96 545.256 689.333 545.603 688.72C545.976 688.08 546.496 687.547 547.163 687.12C547.83 686.693 548.67 686.48 549.683 686.48C550.056 686.48 550.39 686.507 550.683 686.56C550.976 686.613 551.19 686.667 551.323 686.72V688.4H550.203C549.216 688.4 548.376 688.6 547.683 689C547.016 689.4 546.47 689.933 546.043 690.6C545.643 691.267 545.35 692.013 545.163 692.84C544.976 693.64 544.883 694.453 544.883 695.28V708H542.963ZM559.568 708.48C558.608 708.48 557.715 708.36 556.888 708.12C556.088 707.907 555.382 707.573 554.768 707.12C554.182 706.64 553.715 706.04 553.368 705.32C553.048 704.6 552.888 703.747 552.888 702.76C552.888 701.293 553.262 700.107 554.008 699.2C554.755 698.293 555.795 697.6 557.128 697.12C558.462 696.613 560.035 696.28 561.848 696.12C563.662 695.933 565.622 695.84 567.728 695.84V692.68C567.728 691.72 567.542 690.907 567.168 690.24C566.822 689.573 566.195 689.067 565.288 688.72C564.408 688.373 563.182 688.2 561.608 688.2C560.115 688.2 558.928 688.4 558.048 688.8C557.195 689.173 556.582 689.693 556.208 690.36C555.862 691 555.688 691.72 555.688 692.52V693.2H553.848C553.822 693.067 553.808 692.933 553.808 692.8C553.808 692.667 553.808 692.507 553.808 692.32C553.808 690.933 554.155 689.813 554.848 688.96C555.542 688.107 556.515 687.48 557.768 687.08C559.048 686.68 560.515 686.48 562.168 686.48C563.742 686.48 565.075 686.72 566.168 687.2C567.288 687.653 568.142 688.32 568.728 689.2C569.342 690.053 569.648 691.093 569.648 692.32V705.44C569.648 705.947 569.728 706.293 569.888 706.48C570.048 706.667 570.302 706.76 570.648 706.76H572.528V707.88C572.048 708.093 571.608 708.24 571.208 708.32C570.808 708.4 570.435 708.44 570.088 708.44C569.368 708.44 568.835 708.28 568.488 707.96C568.168 707.613 567.955 707.16 567.848 706.6C567.768 706.013 567.728 705.387 567.728 704.72H567.448C566.915 705.52 566.222 706.2 565.368 706.76C564.515 707.32 563.595 707.747 562.608 708.04C561.622 708.333 560.608 708.48 559.568 708.48ZM559.728 706.76C560.635 706.76 561.555 706.613 562.488 706.32C563.422 706 564.275 705.56 565.048 705C565.848 704.44 566.488 703.773 566.968 703C567.475 702.2 567.728 701.32 567.728 700.36V697.64C564.768 697.64 562.355 697.8 560.488 698.12C558.622 698.413 557.235 698.933 556.328 699.68C555.448 700.427 555.008 701.467 555.008 702.8C555.008 703.76 555.222 704.533 555.648 705.12C556.075 705.707 556.648 706.133 557.368 706.4C558.088 706.64 558.875 706.76 559.728 706.76ZM579.858 708.44C579.032 708.44 578.378 708.307 577.898 708.04C577.418 707.773 577.072 707.387 576.858 706.88C576.672 706.347 576.578 705.733 576.578 705.04V688.68H573.618V686.96H576.578L576.978 681.12H578.498V686.96H582.778V688.68H578.498V704.48C578.498 705.28 578.578 705.867 578.738 706.24C578.925 706.587 579.392 706.76 580.138 706.76H582.778V707.88C582.512 708.013 582.205 708.12 581.858 708.2C581.512 708.28 581.165 708.333 580.818 708.36C580.472 708.413 580.152 708.44 579.858 708.44ZM586.752 682.12V679.08H588.672V682.12H586.752ZM586.752 708V686.96H588.672V708H586.752ZM602.325 708.48C600.405 708.48 598.765 708.093 597.405 707.32C596.045 706.52 595.005 705.307 594.285 703.68C593.565 702.053 593.205 699.987 593.205 697.48C593.205 694.947 593.565 692.88 594.285 691.28C595.005 689.653 596.045 688.453 597.405 687.68C598.765 686.88 600.405 686.48 602.325 686.48C604.272 686.48 605.912 686.88 607.245 687.68C608.605 688.453 609.645 689.653 610.365 691.28C611.085 692.88 611.445 694.947 611.445 697.48C611.445 699.987 611.085 702.053 610.365 703.68C609.645 705.307 608.605 706.52 607.245 707.32C605.912 708.093 604.272 708.48 602.325 708.48ZM602.325 706.76C603.792 706.76 605.045 706.467 606.085 705.88C607.152 705.293 607.965 704.36 608.525 703.08C609.112 701.8 609.405 700.133 609.405 698.08V696.88C609.405 694.8 609.112 693.133 608.525 691.88C607.965 690.6 607.152 689.667 606.085 689.08C605.045 688.493 603.792 688.2 602.325 688.2C600.859 688.2 599.592 688.493 598.525 689.08C597.485 689.667 596.672 690.6 596.085 691.88C595.525 693.133 595.245 694.8 595.245 696.88V698.08C595.245 700.133 595.525 701.8 596.085 703.08C596.672 704.36 597.485 705.293 598.525 705.88C599.592 706.467 600.859 706.76 602.325 706.76ZM615.971 708V686.96H617.371L617.611 690.52H617.891C618.531 689.427 619.237 688.587 620.011 688C620.811 687.413 621.651 687.013 622.531 686.8C623.411 686.587 624.331 686.48 625.291 686.48C626.624 686.48 627.784 686.693 628.771 687.12C629.757 687.52 630.517 688.2 631.051 689.16C631.611 690.12 631.891 691.427 631.891 693.08V708H629.971V693.08C629.971 692.067 629.837 691.24 629.571 690.6C629.304 689.96 628.931 689.467 628.451 689.12C627.997 688.773 627.451 688.533 626.811 688.4C626.197 688.267 625.531 688.2 624.811 688.2C623.664 688.2 622.557 688.48 621.491 689.04C620.424 689.6 619.557 690.427 618.891 691.52C618.224 692.587 617.891 693.907 617.891 695.48V708H615.971ZM643.894 708.48C642.561 708.48 641.374 708.347 640.334 708.08C639.321 707.84 638.468 707.467 637.774 706.96C637.108 706.427 636.601 705.773 636.254 705C635.908 704.227 635.734 703.32 635.734 702.28C635.734 702.173 635.734 702.053 635.734 701.92C635.734 701.787 635.748 701.667 635.774 701.56H637.694C637.668 701.72 637.654 701.853 637.654 701.96C637.654 702.067 637.654 702.173 637.654 702.28C637.654 703.453 637.908 704.373 638.414 705.04C638.948 705.68 639.694 706.133 640.654 706.4C641.641 706.64 642.788 706.76 644.094 706.76C645.214 706.76 646.201 706.6 647.054 706.28C647.934 705.933 648.614 705.453 649.094 704.84C649.601 704.2 649.854 703.427 649.854 702.52C649.854 701.4 649.534 700.56 648.894 700C648.254 699.413 647.428 698.973 646.414 698.68C645.428 698.36 644.401 698.04 643.334 697.72C642.508 697.48 641.681 697.227 640.854 696.96C640.054 696.667 639.321 696.32 638.654 695.92C638.014 695.493 637.494 694.96 637.094 694.32C636.721 693.68 636.534 692.867 636.534 691.88C636.534 691.08 636.694 690.347 637.014 689.68C637.334 689.013 637.801 688.44 638.414 687.96C639.054 687.48 639.841 687.12 640.774 686.88C641.708 686.613 642.788 686.48 644.014 686.48C645.481 686.48 646.694 686.653 647.654 687C648.614 687.32 649.361 687.773 649.894 688.36C650.454 688.92 650.841 689.533 651.054 690.2C651.294 690.867 651.414 691.547 651.414 692.24C651.414 692.32 651.414 692.413 651.414 692.52C651.414 692.627 651.401 692.747 651.374 692.88H649.454V692.24C649.454 691.68 649.321 691.093 649.054 690.48C648.814 689.84 648.294 689.307 647.494 688.88C646.721 688.427 645.521 688.2 643.894 688.2C642.988 688.2 642.201 688.28 641.534 688.44C640.868 688.6 640.308 688.84 639.854 689.16C639.401 689.453 639.054 689.827 638.814 690.28C638.601 690.733 638.494 691.267 638.494 691.88C638.494 692.787 638.761 693.48 639.294 693.96C639.828 694.413 640.521 694.773 641.374 695.04C642.228 695.307 643.134 695.6 644.094 695.92C645.001 696.213 645.908 696.507 646.814 696.8C647.748 697.093 648.588 697.453 649.334 697.88C650.108 698.307 650.721 698.867 651.174 699.56C651.628 700.227 651.854 701.107 651.854 702.2C651.854 703.187 651.654 704.067 651.254 704.84C650.854 705.613 650.294 706.28 649.574 706.84C648.881 707.373 648.041 707.773 647.054 708.04C646.094 708.333 645.041 708.48 643.894 708.48Z" fill="#384EC1"/>
<path d="M609 630H708" stroke="#253360" stroke-width="3"/>
<path d="M99 630H198" stroke="#253360" stroke-width="3"/>
<g clip-path="url(#clip1_101_22464)">
<path fill-rule="evenodd" clip-rule="evenodd" d="M398.619 95.0018C398.413 95.0006 398.206 95 398 95C395.153 95 392.332 95.1144 389.542 95.3389C392.488 95.1313 395.513 95.0172 398.619 95.0018ZM398 303C348.823 303 307.618 268.867 296.783 223H499.217C488.383 268.867 447.177 303 398 303Z" fill="#253360"/>
<rect x="373" y="378" width="50" height="16" fill="#253360"/>
<path d="M394 324C386.5 304 381.5 303 374 300L399 293V383.5H381C381 383.5 381.211 381.035 381.5 371.5C382.5 338.5 395.448 327.861 394 324Z" fill="#253360"/>
<path d="M402 324C409.5 304 414.5 303 422 300L397 293V383.5H415C415 383.5 414.789 381.035 414.5 371.5C413.5 338.5 400.552 327.861 402 324Z" fill="#253360"/>
<path d="M377.957 316.823C385.327 313.431 397.746 312.291 401.28 314.266C398.331 314.436 389.51 318.306 384.171 323.769C377.956 330.13 379.106 337.603 372.765 342.778C366.403 347.968 359.239 341.973 360.409 336.124C361.635 329.996 368.745 321.063 377.957 316.823Z" fill="#253360"/>
<path d="M295.349 251.64C298.251 259.216 298.576 271.684 296.374 275.08C296.397 272.127 293.113 263.071 288.011 257.387C282.071 250.769 274.538 251.427 269.79 244.76C265.027 238.073 271.478 231.317 277.238 232.867C283.272 234.491 291.721 242.17 295.349 251.64Z" fill="#253360"/>
<path d="M355.135 307.65C366.015 307.786 381.714 313.559 384.857 317.986C381.187 316.494 368.274 316.1 358.661 319.642C347.469 323.766 344.557 333.48 333.896 336.095C323.201 338.718 317.977 327.329 322.763 320.919C327.778 314.203 341.534 307.479 355.135 307.65Z" fill="#253360"/>
<path d="M330.285 294.501C340.266 298.834 352.511 310.229 353.698 315.526C350.89 312.731 339.134 307.374 328.899 306.924C316.983 306.399 310.541 314.232 299.698 312.521C288.821 310.804 288.407 298.281 295.3 294.22C302.521 289.966 317.808 289.084 330.285 294.501Z" fill="#253360"/>
<path d="M307.445 273.906C314.586 279.782 321.926 291.957 321.656 296.563C320.016 293.622 311.664 286.495 303.406 283.732C293.793 280.516 286.697 285.409 278.238 281.474C269.752 277.527 272.344 267.197 278.926 265.492C285.821 263.705 298.518 266.561 307.445 273.906Z" fill="#253360"/>
<path d="M418.372 316.823C411.002 313.431 398.582 312.291 395.049 314.266C397.998 314.436 406.819 318.306 412.158 323.769C418.372 330.13 417.223 337.603 423.564 342.778C429.925 347.968 437.09 341.973 435.92 336.124C434.694 329.996 427.584 321.063 418.372 316.823Z" fill="#253360"/>
<path d="M500.98 251.64C498.078 259.216 497.753 271.684 499.954 275.08C499.931 272.127 503.215 263.071 508.318 257.387C514.258 250.769 521.791 251.427 526.539 244.76C531.302 238.073 524.851 231.317 519.091 232.867C513.056 234.491 504.608 242.17 500.98 251.64Z" fill="#253360"/>
<path d="M441.194 307.65C430.313 307.786 414.614 313.559 411.471 317.986C415.141 316.494 428.055 316.1 437.668 319.642C448.859 323.766 451.772 333.48 462.433 336.095C473.127 338.718 478.352 327.329 473.565 320.919C468.551 314.203 454.794 307.479 441.194 307.65Z" fill="#253360"/>
<path d="M466.044 294.501C456.063 298.834 443.818 310.229 442.631 315.526C445.438 312.731 457.195 307.374 467.43 306.924C479.345 306.399 485.788 314.232 496.631 312.521C507.507 310.804 507.921 298.281 501.029 294.22C493.807 289.966 478.52 289.084 466.044 294.501Z" fill="#253360"/>
<path d="M488.884 273.906C481.742 279.782 474.402 291.957 474.672 296.563C476.312 293.622 484.665 286.495 492.922 283.732C502.535 280.516 509.632 285.409 518.091 281.474C526.576 277.527 523.985 267.197 517.403 265.492C510.507 263.705 497.811 266.561 488.884 273.906Z" fill="#253360"/>
<path fill-rule="evenodd" clip-rule="evenodd" d="M502 199C502 201.692 501.898 204.36 501.697 207H454.2C455.127 202.436 459.162 199 464 199H502ZM464.457 119H464C458.477 119 454 123.477 454 129V181C454 186.523 458.477 191 464 191H501.697C501.492 188.303 501.184 185.635 500.777 183H467C464.239 183 462 180.761 462 178V132C462 129.239 464.239 127 467 127H473.047C470.337 124.176 467.469 121.505 464.457 119ZM295.223 183H332C337.523 183 342 187.477 342 193V207H294.303C294.102 204.36 294 201.692 294 199C294 193.559 294.418 188.216 295.223 183ZM350 207V193C350 187.477 354.477 183 360 183H436C441.523 183 446 187.477 446 193V207H438V196C438 193.239 435.761 191 433 191H363C360.239 191 358 193.239 358 196V207H350ZM318 137C318 131.477 322.477 127 328 127H388C393.523 127 398 131.477 398 137V165C398 170.523 393.523 175 388 175H328C322.477 175 318 170.523 318 165V137ZM390 139C390 136.791 388.209 135 386 135C383.791 135 382 136.791 382 139C382 141.209 383.791 143 386 143C388.209 143 390 141.209 390 139Z" fill="#798AFF"/>
<path fill-rule="evenodd" clip-rule="evenodd" d="M406 165C406 170.523 410.477 175 416 175L436 175C441.523 175 446 170.523 446 165L446 113C446 107.477 441.523 103 436 103L416 103C410.477 103 406 107.477 406 113L406 165ZM430 163C430 160.791 428.209 159 426 159C423.791 159 422 160.791 422 163C422 165.209 423.791 167 426 167C428.209 167 430 165.209 430 163Z" fill="#384EC1"/>
</g>
</g>
<defs>
<clipPath id="clip0_101_22464">
<rect width="800" height="800" fill="white"/>
</clipPath>
<clipPath id="clip1_101_22464">
<rect width="400" height="400" fill="white" transform="translate(198 23)"/>
</clipPath>
</defs>
</svg>
