<svg width="800" height="800" viewBox="0 0 800 800" fill="none" xmlns="http://www.w3.org/2000/svg">
<g clip-path="url(#clip0_101_22464)">
<rect x="4" y="4" width="792" height="792" stroke="#253360" stroke-width="8"/>
<path d="M161.479 523.045C167.373 523.045 172.614 522.223 177.204 520.58C181.794 518.88 185.166 517.208 187.319 515.565L196.414 533.67C193.808 535.937 189.303 538.232 182.899 540.555C176.553 542.878 168.959 544.04 160.119 544.04C151.846 544.04 144.111 542.595 136.914 539.705C129.718 536.758 123.399 532.678 117.959 527.465C112.519 522.195 108.269 516.047 105.209 509.02C102.149 501.937 100.619 494.287 100.619 486.07C100.619 477.853 102.121 470.203 105.124 463.12C108.184 455.98 112.434 449.775 117.874 444.505C123.314 439.235 129.633 435.127 136.829 432.18C144.083 429.233 151.846 427.76 160.119 427.76C168.959 427.76 176.553 428.922 182.899 431.245C189.303 433.568 193.808 435.863 196.414 438.13L187.319 456.235C185.166 454.592 181.794 452.948 177.204 451.305C172.614 449.605 167.373 448.755 161.479 448.755C155.473 448.755 150.118 449.718 145.414 451.645C140.768 453.572 136.801 456.263 133.514 459.72C130.284 463.12 127.819 467.058 126.119 471.535C124.419 476.012 123.569 480.772 123.569 485.815C123.569 490.915 124.419 495.732 126.119 500.265C127.819 504.742 130.284 508.708 133.514 512.165C136.801 515.565 140.768 518.228 145.414 520.155C150.118 522.082 155.473 523.045 161.479 523.045ZM267.5 542V529.845C266.99 531.092 265.686 532.848 263.59 535.115C261.493 537.382 258.66 539.45 255.09 541.32C251.576 543.133 247.44 544.04 242.68 544.04C235.993 544.04 230.071 542.453 224.915 539.28C219.758 536.05 215.706 531.658 212.76 526.105C209.87 520.495 208.425 514.177 208.425 507.15C208.425 500.123 209.87 493.833 212.76 488.28C215.706 482.67 219.758 478.25 224.915 475.02C230.071 471.79 235.993 470.175 242.68 470.175C247.326 470.175 251.35 470.968 254.75 472.555C258.206 474.085 260.983 475.898 263.08 477.995C265.233 480.035 266.621 481.877 267.245 483.52V472.215H288.665V542H267.5ZM229.59 507.15C229.59 511.06 230.468 514.517 232.225 517.52C233.981 520.467 236.305 522.762 239.195 524.405C242.085 526.048 245.23 526.87 248.63 526.87C252.2 526.87 255.373 526.048 258.15 524.405C260.926 522.705 263.108 520.382 264.695 517.435C266.338 514.432 267.16 511.003 267.16 507.15C267.16 503.297 266.338 499.897 264.695 496.95C263.108 493.947 260.926 491.595 258.15 489.895C255.373 488.195 252.2 487.345 248.63 487.345C245.23 487.345 242.085 488.195 239.195 489.895C236.305 491.538 233.981 493.862 232.225 496.865C230.468 499.812 229.59 503.24 229.59 507.15ZM300.438 472.215H313.018V443.57H334.438V472.215H350.928V490.15H334.438V515.395C334.438 518.738 334.977 521.345 336.053 523.215C337.13 525.028 338.83 525.935 341.153 525.935C342.91 525.935 344.355 525.595 345.488 524.915C346.622 524.178 347.302 523.668 347.528 523.385L355.178 538.855C354.838 539.195 353.733 539.79 351.863 540.64C350.05 541.49 347.698 542.255 344.808 542.935C341.975 543.672 338.773 544.04 335.203 544.04C328.8 544.04 323.502 542.198 319.308 538.515C315.115 534.775 313.018 528.995 313.018 521.175V490.15H300.438V472.215ZM420.898 542V529.845C420.388 531.092 419.085 532.848 416.988 535.115C414.891 537.382 412.058 539.45 408.488 541.32C404.975 543.133 400.838 544.04 396.078 544.04C389.391 544.04 383.47 542.453 378.313 539.28C373.156 536.05 369.105 531.658 366.158 526.105C363.268 520.495 361.823 514.177 361.823 507.15C361.823 500.123 363.268 493.833 366.158 488.28C369.105 482.67 373.156 478.25 378.313 475.02C383.47 471.79 389.391 470.175 396.078 470.175C400.725 470.175 404.748 470.968 408.148 472.555C411.605 474.085 414.381 475.898 416.478 477.995C418.631 480.035 420.02 481.877 420.643 483.52V472.215H442.063V542H420.898ZM382.988 507.15C382.988 511.06 383.866 514.517 385.623 517.52C387.38 520.467 389.703 522.762 392.593 524.405C395.483 526.048 398.628 526.87 402.028 526.87C405.598 526.87 408.771 526.048 411.548 524.405C414.325 522.705 416.506 520.382 418.093 517.435C419.736 514.432 420.558 511.003 420.558 507.15C420.558 503.297 419.736 499.897 418.093 496.95C416.506 493.947 414.325 491.595 411.548 489.895C408.771 488.195 405.598 487.345 402.028 487.345C398.628 487.345 395.483 488.195 392.593 489.895C389.703 491.538 387.38 493.862 385.623 496.865C383.866 499.812 382.988 503.24 382.988 507.15ZM481.632 542H459.957V425.04H481.632V542ZM532.773 523.045L553.428 472.215H574.763L527.078 577.36H505.403L521.468 542L492.483 472.215H514.073L532.773 523.045ZM613.291 470.175C617.485 470.175 621.366 470.572 624.936 471.365C628.506 472.102 631.51 472.952 633.946 473.915C636.44 474.878 638.083 475.7 638.876 476.38L631.481 489.385C630.348 488.478 628.308 487.402 625.361 486.155C622.471 484.908 619.241 484.285 615.671 484.285C612.441 484.285 609.721 484.852 607.511 485.985C605.301 487.062 604.196 488.705 604.196 490.915C604.196 493.125 605.386 494.882 607.766 496.185C610.146 497.488 613.461 498.622 617.711 499.585C621.281 500.322 624.795 501.455 628.251 502.985C631.708 504.458 634.57 506.612 636.836 509.445C639.103 512.222 640.236 515.933 640.236 520.58C640.236 525.17 639.245 528.995 637.261 532.055C635.335 535.058 632.756 537.438 629.526 539.195C626.296 540.952 622.755 542.198 618.901 542.935C615.048 543.672 611.223 544.04 607.426 544.04C602.496 544.04 598.161 543.558 594.421 542.595C590.681 541.688 587.593 540.64 585.156 539.45C582.776 538.203 581.076 537.155 580.056 536.305L587.451 521.855C588.925 523.158 591.333 524.603 594.676 526.19C598.076 527.72 601.731 528.485 605.641 528.485C609.721 528.485 612.923 527.777 615.246 526.36C617.626 524.943 618.816 523.045 618.816 520.665C618.816 518.908 618.25 517.492 617.116 516.415C615.983 515.282 614.425 514.347 612.441 513.61C610.458 512.873 608.135 512.222 605.471 511.655C603.035 511.145 600.541 510.408 597.991 509.445C595.441 508.425 593.061 507.093 590.851 505.45C588.641 503.807 586.856 501.767 585.496 499.33C584.136 496.837 583.456 493.862 583.456 490.405C583.456 485.985 584.873 482.302 587.706 479.355C590.54 476.352 594.223 474.085 598.756 472.555C603.29 470.968 608.135 470.175 613.291 470.175ZM648.241 472.215H660.821V443.57H682.241V472.215H698.731V490.15H682.241V515.395C682.241 518.738 682.779 521.345 683.856 523.215C684.933 525.028 686.633 525.935 688.956 525.935C690.713 525.935 692.158 525.595 693.291 524.915C694.424 524.178 695.104 523.668 695.331 523.385L702.981 538.855C702.641 539.195 701.536 539.79 699.666 540.64C697.853 541.49 695.501 542.255 692.611 542.935C689.778 543.672 686.576 544.04 683.006 544.04C676.603 544.04 671.304 542.198 667.111 538.515C662.918 534.775 660.821 528.995 660.821 521.175V490.15H648.241V472.215Z" fill="#253360"/>
<path d="M294.74 647V598.98H325.12V603.67H300.06V620.4H322.74V625.09H300.06V647H294.74ZM350.723 647.84C347.083 647.84 343.956 647.257 341.343 646.09C338.729 644.877 336.723 642.94 335.323 640.28C333.923 637.573 333.223 634.027 333.223 629.64V598.98H338.613V630.69C338.613 634.89 339.663 638.017 341.763 640.07C343.863 642.123 346.849 643.15 350.723 643.15C354.736 643.15 357.816 642.123 359.963 640.07C362.156 638.017 363.253 634.89 363.253 630.69V598.98H368.573V629.64C368.573 634.027 367.849 637.573 366.403 640.28C364.956 642.94 362.903 644.877 360.243 646.09C357.583 647.257 354.409 647.84 350.723 647.84ZM379.984 647V598.98H385.234L407.074 632.02C407.307 632.3 407.587 632.72 407.914 633.28C408.24 633.793 408.567 634.33 408.894 634.89C409.267 635.45 409.57 635.94 409.804 636.36H410.084C410.084 635.567 410.084 634.797 410.084 634.05C410.084 633.257 410.084 632.533 410.084 631.88V598.98H415.334V647H410.574L388.314 613.33C388.034 612.91 387.59 612.233 386.984 611.3C386.424 610.367 385.934 609.55 385.514 608.85H385.164C385.164 609.597 385.164 610.367 385.164 611.16C385.21 611.953 385.234 612.723 385.234 613.47V647H379.984ZM426.947 647V598.98H442.767C447.48 598.98 451.447 599.82 454.667 601.5C457.933 603.133 460.407 605.723 462.087 609.27C463.767 612.77 464.607 617.343 464.607 622.99C464.607 628.543 463.767 633.093 462.087 636.64C460.407 640.187 457.933 642.8 454.667 644.48C451.447 646.16 447.457 647 442.697 647H426.947ZM432.267 642.31H442.347C444.913 642.31 447.2 642.007 449.207 641.4C451.26 640.793 453.033 639.79 454.527 638.39C456.02 636.943 457.14 635.053 457.887 632.72C458.68 630.34 459.077 627.423 459.077 623.97V622.29C459.077 618.743 458.68 615.78 457.887 613.4C457.14 611.02 456.02 609.13 454.527 607.73C453.08 606.283 451.33 605.257 449.277 604.65C447.223 603.997 444.913 603.67 442.347 603.67H432.267V642.31ZM499.066 647.84C495.893 647.84 493.35 647.21 491.436 645.95C489.523 644.69 488.123 642.94 487.236 640.7C486.35 638.46 485.906 635.893 485.906 633H490.876C490.876 635.427 491.18 637.433 491.786 639.02C492.393 640.607 493.326 641.773 494.586 642.52C495.846 643.267 497.433 643.64 499.346 643.64C502.193 643.64 504.386 642.847 505.926 641.26C507.513 639.673 508.61 637.363 509.216 634.33C509.823 631.25 510.15 627.587 510.196 623.34C509.45 624.787 508.446 626 507.186 626.98C505.973 627.96 504.62 628.707 503.126 629.22C501.633 629.687 500.046 629.92 498.366 629.92C495.146 629.92 492.51 629.243 490.456 627.89C488.403 626.537 486.863 624.693 485.836 622.36C484.81 620.027 484.296 617.39 484.296 614.45C484.296 611.09 484.926 608.197 486.186 605.77C487.493 603.343 489.243 601.477 491.436 600.17C493.676 598.817 496.196 598.14 498.996 598.14C501.61 598.14 503.92 598.513 505.926 599.26C507.933 600.007 509.613 601.267 510.966 603.04C512.32 604.813 513.346 607.217 514.046 610.25C514.793 613.283 515.166 617.063 515.166 621.59C515.166 626.49 514.816 630.62 514.116 633.98C513.416 637.34 512.39 640.047 511.036 642.1C509.683 644.107 508.003 645.577 505.996 646.51C503.99 647.397 501.68 647.84 499.066 647.84ZM499.276 625.79C501.61 625.79 503.523 625.277 505.016 624.25C506.556 623.177 507.7 621.753 508.446 619.98C509.193 618.16 509.566 616.153 509.566 613.96C509.566 611.813 509.216 609.877 508.516 608.15C507.816 606.377 506.72 604.953 505.226 603.88C503.733 602.807 501.82 602.27 499.486 602.27C497.06 602.27 495.1 602.83 493.606 603.95C492.16 605.07 491.086 606.54 490.386 608.36C489.686 610.18 489.336 612.21 489.336 614.45C489.336 616.503 489.663 618.393 490.316 620.12C491.016 621.847 492.09 623.223 493.536 624.25C494.983 625.277 496.896 625.79 499.276 625.79Z" fill="#253360"/>
<path d="M245.195 708V682.48H235.035V680.56H257.635V682.48H247.355V708H245.195ZM261.068 708V679.08H262.988V689.84H263.268C263.908 688.96 264.588 688.28 265.308 687.8C266.055 687.32 266.842 686.987 267.668 686.8C268.522 686.587 269.428 686.48 270.388 686.48C271.722 686.48 272.882 686.693 273.868 687.12C274.855 687.52 275.615 688.2 276.148 689.16C276.708 690.12 276.988 691.427 276.988 693.08V708H275.068V693.08C275.068 692.067 274.935 691.24 274.668 690.6C274.402 689.96 274.028 689.467 273.548 689.12C273.095 688.773 272.548 688.533 271.908 688.4C271.295 688.267 270.628 688.2 269.908 688.2C268.762 688.2 267.655 688.467 266.588 689C265.522 689.507 264.655 690.293 263.988 691.36C263.322 692.427 262.988 693.8 262.988 695.48V708H261.068ZM290.272 708.48C288.379 708.48 286.752 708.093 285.392 707.32C284.059 706.52 283.032 705.307 282.312 703.68C281.619 702.053 281.272 699.987 281.272 697.48C281.272 694.947 281.619 692.88 282.312 691.28C283.032 689.653 284.085 688.453 285.472 687.68C286.859 686.88 288.565 686.48 290.592 686.48C292.512 686.48 294.112 686.867 295.392 687.64C296.699 688.413 297.685 689.52 298.352 690.96C299.019 692.373 299.352 694.053 299.352 696V698H283.312C283.312 700.133 283.592 701.853 284.152 703.16C284.739 704.44 285.552 705.36 286.592 705.92C287.659 706.48 288.925 706.76 290.392 706.76C291.619 706.76 292.659 706.6 293.512 706.28C294.365 705.96 295.059 705.533 295.592 705C296.152 704.467 296.565 703.853 296.832 703.16C297.125 702.467 297.285 701.76 297.312 701.04H299.152C299.125 701.947 298.939 702.84 298.592 703.72C298.272 704.6 297.765 705.4 297.072 706.12C296.379 706.84 295.472 707.413 294.352 707.84C293.232 708.267 291.872 708.48 290.272 708.48ZM283.312 696.28H297.352C297.352 694.76 297.179 693.493 296.832 692.48C296.485 691.44 295.992 690.613 295.352 690C294.739 689.36 294.005 688.907 293.152 688.64C292.325 688.347 291.405 688.2 290.392 688.2C288.925 688.2 287.672 688.493 286.632 689.08C285.619 689.64 284.832 690.52 284.272 691.72C283.712 692.893 283.392 694.413 283.312 696.28ZM325.87 708.48C321.23 708.48 317.777 707.307 315.51 704.96C313.243 702.587 312.11 699.027 312.11 694.28C312.11 691.213 312.617 688.627 313.63 686.52C314.67 684.413 316.217 682.813 318.27 681.72C320.323 680.627 322.897 680.08 325.99 680.08C327.937 680.08 329.657 680.293 331.15 680.72C332.643 681.12 333.897 681.733 334.91 682.56C335.95 683.36 336.723 684.373 337.23 685.6C337.763 686.827 338.03 688.267 338.03 689.92H335.91C335.91 688.4 335.657 687.133 335.15 686.12C334.67 685.107 333.977 684.293 333.07 683.68C332.19 683.067 331.137 682.64 329.91 682.4C328.683 682.133 327.35 682 325.91 682C324.177 682 322.603 682.213 321.19 682.64C319.777 683.067 318.563 683.76 317.55 684.72C316.537 685.653 315.75 686.88 315.19 688.4C314.657 689.893 314.39 691.72 314.39 693.88V694.72C314.39 697.6 314.843 699.907 315.75 701.64C316.683 703.373 317.99 704.627 319.67 705.4C321.35 706.173 323.323 706.56 325.59 706.56C328.203 706.56 330.257 706.213 331.75 705.52C333.243 704.827 334.297 703.747 334.91 702.28C335.55 700.787 335.87 698.893 335.87 696.6V695.84H325.11V693.92H338.07V708H336.23L335.87 704.04C335.257 705.107 334.403 705.973 333.31 706.64C332.217 707.28 331.017 707.747 329.71 708.04C328.43 708.333 327.15 708.48 325.87 708.48ZM344.584 708V686.96H346.024L346.224 690.6H346.464C346.624 689.96 346.877 689.333 347.224 688.72C347.597 688.08 348.117 687.547 348.784 687.12C349.451 686.693 350.291 686.48 351.304 686.48C351.677 686.48 352.011 686.507 352.304 686.56C352.597 686.613 352.811 686.667 352.944 686.72V688.4H351.824C350.837 688.4 349.997 688.6 349.304 689C348.637 689.4 348.091 689.933 347.664 690.6C347.264 691.267 346.971 692.013 346.784 692.84C346.597 693.64 346.504 694.453 346.504 695.28V708H344.584ZM363.709 708.48C361.816 708.48 360.189 708.093 358.829 707.32C357.496 706.52 356.469 705.307 355.749 703.68C355.056 702.053 354.709 699.987 354.709 697.48C354.709 694.947 355.056 692.88 355.749 691.28C356.469 689.653 357.523 688.453 358.909 687.68C360.296 686.88 362.003 686.48 364.029 686.48C365.949 686.48 367.549 686.867 368.829 687.64C370.136 688.413 371.123 689.52 371.789 690.96C372.456 692.373 372.789 694.053 372.789 696V698H356.749C356.749 700.133 357.029 701.853 357.589 703.16C358.176 704.44 358.989 705.36 360.029 705.92C361.096 706.48 362.363 706.76 363.829 706.76C365.056 706.76 366.096 706.6 366.949 706.28C367.803 705.96 368.496 705.533 369.029 705C369.589 704.467 370.003 703.853 370.269 703.16C370.563 702.467 370.723 701.76 370.749 701.04H372.589C372.563 701.947 372.376 702.84 372.029 703.72C371.709 704.6 371.203 705.4 370.509 706.12C369.816 706.84 368.909 707.413 367.789 707.84C366.669 708.267 365.309 708.48 363.709 708.48ZM356.749 696.28H370.789C370.789 694.76 370.616 693.493 370.269 692.48C369.923 691.44 369.429 690.613 368.789 690C368.176 689.36 367.443 688.907 366.589 688.64C365.763 688.347 364.843 688.2 363.829 688.2C362.363 688.2 361.109 688.493 360.069 689.08C359.056 689.64 358.269 690.52 357.709 691.72C357.149 692.893 356.829 694.413 356.749 696.28ZM382.478 708.48C381.518 708.48 380.625 708.36 379.798 708.12C378.998 707.907 378.292 707.573 377.678 707.12C377.092 706.64 376.625 706.04 376.278 705.32C375.958 704.6 375.798 703.747 375.798 702.76C375.798 701.293 376.172 700.107 376.918 699.2C377.665 698.293 378.705 697.6 380.038 697.12C381.372 696.613 382.945 696.28 384.758 696.12C386.572 695.933 388.532 695.84 390.638 695.84V692.68C390.638 691.72 390.452 690.907 390.078 690.24C389.732 689.573 389.105 689.067 388.198 688.72C387.318 688.373 386.092 688.2 384.518 688.2C383.025 688.2 381.838 688.4 380.958 688.8C380.105 689.173 379.492 689.693 379.118 690.36C378.772 691 378.598 691.72 378.598 692.52V693.2H376.758C376.732 693.067 376.718 692.933 376.718 692.8C376.718 692.667 376.718 692.507 376.718 692.32C376.718 690.933 377.065 689.813 377.758 688.96C378.452 688.107 379.425 687.48 380.678 687.08C381.958 686.68 383.425 686.48 385.078 686.48C386.652 686.48 387.985 686.72 389.078 687.2C390.198 687.653 391.052 688.32 391.638 689.2C392.252 690.053 392.558 691.093 392.558 692.32V705.44C392.558 705.947 392.638 706.293 392.798 706.48C392.958 706.667 393.212 706.76 393.558 706.76H395.438V707.88C394.958 708.093 394.518 708.24 394.118 708.32C393.718 708.4 393.345 708.44 392.998 708.44C392.278 708.44 391.745 708.28 391.398 707.96C391.078 707.613 390.865 707.16 390.758 706.6C390.678 706.013 390.638 705.387 390.638 704.72H390.358C389.825 705.52 389.132 706.2 388.278 706.76C387.425 707.32 386.505 707.747 385.518 708.04C384.532 708.333 383.518 708.48 382.478 708.48ZM382.638 706.76C383.545 706.76 384.465 706.613 385.398 706.32C386.332 706 387.185 705.56 387.958 705C388.758 704.44 389.398 703.773 389.878 703C390.385 702.2 390.638 701.32 390.638 700.36V697.64C387.678 697.64 385.265 697.8 383.398 698.12C381.532 698.413 380.145 698.933 379.238 699.68C378.358 700.427 377.918 701.467 377.918 702.8C377.918 703.76 378.132 704.533 378.558 705.12C378.985 705.707 379.558 706.133 380.278 706.4C380.998 706.64 381.785 706.76 382.638 706.76ZM402.768 708.44C401.942 708.44 401.288 708.307 400.808 708.04C400.328 707.773 399.982 707.387 399.768 706.88C399.582 706.347 399.488 705.733 399.488 705.04V688.68H396.528V686.96H399.488L399.888 681.12H401.408V686.96H405.688V688.68H401.408V704.48C401.408 705.28 401.488 705.867 401.648 706.24C401.835 706.587 402.302 706.76 403.048 706.76H405.688V707.88C405.422 708.013 405.115 708.12 404.768 708.2C404.422 708.28 404.075 708.333 403.728 708.36C403.382 708.413 403.062 708.44 402.768 708.44ZM419.451 708V680.56H422.611L431.131 701.36C431.291 701.76 431.451 702.187 431.611 702.64C431.798 703.093 431.958 703.52 432.091 703.92C432.251 704.293 432.371 704.613 432.451 704.88H432.651C432.785 704.507 432.931 704.093 433.091 703.64C433.278 703.187 433.451 702.76 433.611 702.36C433.771 701.933 433.891 701.6 433.971 701.36L442.491 680.56H445.651V708H443.491V689.36C443.491 688.987 443.491 688.467 443.491 687.8C443.518 687.133 443.531 686.427 443.531 685.68C443.558 684.933 443.571 684.267 443.571 683.68H443.291C443.158 684.187 443.011 684.653 442.851 685.08C442.718 685.507 442.571 685.907 442.411 686.28C442.278 686.653 442.131 687.027 441.971 687.4L433.291 708H431.811L423.131 687.4C422.971 687.027 422.811 686.653 422.651 686.28C422.518 685.907 422.371 685.507 422.211 685.08C422.078 684.653 421.945 684.187 421.811 683.68H421.531C421.558 684.16 421.571 684.747 421.571 685.44C421.571 686.133 421.571 686.827 421.571 687.52C421.598 688.213 421.611 688.827 421.611 689.36V708H419.451ZM452.475 682.12V679.08H454.395V682.12H452.475ZM452.475 708V686.96H454.395V708H452.475ZM463.888 715.28C462.821 715.28 461.848 715.04 460.968 714.56C460.088 714.107 459.395 713.467 458.888 712.64C458.381 711.813 458.128 710.893 458.128 709.88C458.128 708.707 458.421 707.68 459.008 706.8C459.621 705.893 460.448 705.227 461.488 704.8C460.741 704.507 460.181 704.053 459.808 703.44C459.461 702.827 459.288 702.2 459.288 701.56C459.288 700.68 459.595 699.907 460.208 699.24C460.821 698.547 461.621 698.093 462.608 697.88C461.781 697.293 461.101 696.573 460.568 695.72C460.061 694.84 459.808 693.907 459.808 692.92C459.808 691.72 460.088 690.64 460.648 689.68C461.208 688.693 462.075 687.92 463.248 687.36C464.448 686.773 465.968 686.48 467.808 686.48C468.741 686.48 469.595 686.56 470.368 686.72C471.141 686.853 471.835 687.067 472.448 687.36C473.381 687.12 474.141 686.693 474.728 686.08C475.341 685.44 475.755 684.627 475.968 683.64H477.968C477.915 684.307 477.715 684.987 477.368 685.68C477.048 686.347 476.581 686.92 475.968 687.4C475.381 687.88 474.661 688.173 473.808 688.28C474.501 688.947 475.008 689.68 475.328 690.48C475.648 691.253 475.808 692.067 475.808 692.92C475.808 694.093 475.528 695.173 474.968 696.16C474.408 697.12 473.541 697.893 472.368 698.48C471.195 699.067 469.675 699.36 467.808 699.36H464.448C463.541 699.36 462.781 699.533 462.168 699.88C461.555 700.2 461.248 700.787 461.248 701.64C461.248 702.387 461.568 702.96 462.208 703.36C462.875 703.733 463.688 703.92 464.648 703.92H472.448C473.968 703.92 475.195 704.453 476.128 705.52C477.088 706.56 477.568 707.853 477.568 709.4C477.568 710.493 477.301 711.48 476.768 712.36C476.261 713.267 475.541 713.973 474.608 714.48C473.701 715.013 472.648 715.28 471.448 715.28H463.888ZM464.008 713.6H471.368C472.141 713.6 472.848 713.413 473.488 713.04C474.128 712.693 474.635 712.213 475.008 711.6C475.408 711.013 475.608 710.373 475.608 709.68C475.608 708.507 475.275 707.547 474.608 706.8C473.941 706.053 473.128 705.68 472.168 705.68H464.008C462.941 705.68 462.021 706.08 461.248 706.88C460.475 707.653 460.088 708.587 460.088 709.68C460.088 710.88 460.475 711.827 461.248 712.52C462.021 713.24 462.941 713.6 464.008 713.6ZM467.808 697.64C469.861 697.64 471.381 697.213 472.368 696.36C473.355 695.507 473.848 694.36 473.848 692.92C473.848 691.48 473.355 690.333 472.368 689.48C471.381 688.627 469.861 688.2 467.808 688.2C465.781 688.2 464.261 688.627 463.248 689.48C462.261 690.333 461.768 691.48 461.768 692.92C461.768 693.8 461.981 694.6 462.408 695.32C462.861 696.04 463.541 696.613 464.448 697.04C465.355 697.44 466.475 697.64 467.808 697.64ZM480.834 708V686.96H482.274L482.474 690.6H482.714C482.874 689.96 483.127 689.333 483.474 688.72C483.847 688.08 484.367 687.547 485.034 687.12C485.701 686.693 486.541 686.48 487.554 686.48C487.927 686.48 488.261 686.507 488.554 686.56C488.847 686.613 489.061 686.667 489.194 686.72V688.4H488.074C487.087 688.4 486.247 688.6 485.554 689C484.887 689.4 484.341 689.933 483.914 690.6C483.514 691.267 483.221 692.013 483.034 692.84C482.847 693.64 482.754 694.453 482.754 695.28V708H480.834ZM497.439 708.48C496.479 708.48 495.586 708.36 494.759 708.12C493.959 707.907 493.253 707.573 492.639 707.12C492.053 706.64 491.586 706.04 491.239 705.32C490.919 704.6 490.759 703.747 490.759 702.76C490.759 701.293 491.133 700.107 491.879 699.2C492.626 698.293 493.666 697.6 494.999 697.12C496.333 696.613 497.906 696.28 499.719 696.12C501.533 695.933 503.493 695.84 505.599 695.84V692.68C505.599 691.72 505.413 690.907 505.039 690.24C504.693 689.573 504.066 689.067 503.159 688.72C502.279 688.373 501.053 688.2 499.479 688.2C497.986 688.2 496.799 688.4 495.919 688.8C495.066 689.173 494.453 689.693 494.079 690.36C493.733 691 493.559 691.72 493.559 692.52V693.2H491.719C491.693 693.067 491.679 692.933 491.679 692.8C491.679 692.667 491.679 692.507 491.679 692.32C491.679 690.933 492.026 689.813 492.719 688.96C493.413 688.107 494.386 687.48 495.639 687.08C496.919 686.68 498.386 686.48 500.039 686.48C501.613 686.48 502.946 686.72 504.039 687.2C505.159 687.653 506.013 688.32 506.599 689.2C507.213 690.053 507.519 691.093 507.519 692.32V705.44C507.519 705.947 507.599 706.293 507.759 706.48C507.919 706.667 508.173 706.76 508.519 706.76H510.399V707.88C509.919 708.093 509.479 708.24 509.079 708.32C508.679 708.4 508.306 708.44 507.959 708.44C507.239 708.44 506.706 708.28 506.359 707.96C506.039 707.613 505.826 707.16 505.719 706.6C505.639 706.013 505.599 705.387 505.599 704.72H505.319C504.786 705.52 504.093 706.2 503.239 706.76C502.386 707.32 501.466 707.747 500.479 708.04C499.493 708.333 498.479 708.48 497.439 708.48ZM497.599 706.76C498.506 706.76 499.426 706.613 500.359 706.32C501.293 706 502.146 705.56 502.919 705C503.719 704.44 504.359 703.773 504.839 703C505.346 702.2 505.599 701.32 505.599 700.36V697.64C502.639 697.64 500.226 697.8 498.359 698.12C496.493 698.413 495.106 698.933 494.199 699.68C493.319 700.427 492.879 701.467 492.879 702.8C492.879 703.76 493.093 704.533 493.519 705.12C493.946 705.707 494.519 706.133 495.239 706.4C495.959 706.64 496.746 706.76 497.599 706.76ZM517.729 708.44C516.903 708.44 516.249 708.307 515.769 708.04C515.289 707.773 514.943 707.387 514.729 706.88C514.543 706.347 514.449 705.733 514.449 705.04V688.68H511.489V686.96H514.449L514.849 681.12H516.369V686.96H520.649V688.68H516.369V704.48C516.369 705.28 516.449 705.867 516.609 706.24C516.796 706.587 517.263 706.76 518.009 706.76H520.649V707.88C520.383 708.013 520.076 708.12 519.729 708.2C519.383 708.28 519.036 708.333 518.689 708.36C518.343 708.413 518.023 708.44 517.729 708.44ZM524.623 682.12V679.08H526.543V682.12H524.623ZM524.623 708V686.96H526.543V708H524.623ZM540.197 708.48C538.277 708.48 536.637 708.093 535.277 707.32C533.917 706.52 532.877 705.307 532.157 703.68C531.437 702.053 531.077 699.987 531.077 697.48C531.077 694.947 531.437 692.88 532.157 691.28C532.877 689.653 533.917 688.453 535.277 687.68C536.637 686.88 538.277 686.48 540.197 686.48C542.143 686.48 543.783 686.88 545.117 687.68C546.477 688.453 547.517 689.653 548.237 691.28C548.957 692.88 549.317 694.947 549.317 697.48C549.317 699.987 548.957 702.053 548.237 703.68C547.517 705.307 546.477 706.52 545.117 707.32C543.783 708.093 542.143 708.48 540.197 708.48ZM540.197 706.76C541.663 706.76 542.917 706.467 543.957 705.88C545.023 705.293 545.837 704.36 546.397 703.08C546.983 701.8 547.277 700.133 547.277 698.08V696.88C547.277 694.8 546.983 693.133 546.397 691.88C545.837 690.6 545.023 689.667 543.957 689.08C542.917 688.493 541.663 688.2 540.197 688.2C538.73 688.2 537.463 688.493 536.397 689.08C535.357 689.667 534.543 690.6 533.957 691.88C533.397 693.133 533.117 694.8 533.117 696.88V698.08C533.117 700.133 533.397 701.8 533.957 703.08C534.543 704.36 535.357 705.293 536.397 705.88C537.463 706.467 538.73 706.76 540.197 706.76ZM553.842 708V686.96H555.242L555.482 690.52H555.762C556.402 689.427 557.109 688.587 557.882 688C558.682 687.413 559.522 687.013 560.402 686.8C561.282 686.587 562.202 686.48 563.162 686.48C564.495 686.48 565.655 686.693 566.642 687.12C567.629 687.52 568.389 688.2 568.922 689.16C569.482 690.12 569.762 691.427 569.762 693.08V708H567.842V693.08C567.842 692.067 567.709 691.24 567.442 690.6C567.175 689.96 566.802 689.467 566.322 689.12C565.869 688.773 565.322 688.533 564.682 688.4C564.069 688.267 563.402 688.2 562.682 688.2C561.535 688.2 560.429 688.48 559.362 689.04C558.295 689.6 557.429 690.427 556.762 691.52C556.095 692.587 555.762 693.907 555.762 695.48V708H553.842Z" fill="#384EC1"/>
<path d="M609 630H708" stroke="#253360" stroke-width="3"/>
<path d="M99 630H198" stroke="#253360" stroke-width="3"/>
<g clip-path="url(#clip1_101_22464)">
<path fill-rule="evenodd" clip-rule="evenodd" d="M398.619 95.0018C398.413 95.0006 398.206 95 398 95C395.153 95 392.332 95.1144 389.542 95.3389C392.488 95.1313 395.513 95.0172 398.619 95.0018ZM398 303C348.823 303 307.618 268.867 296.783 223H499.217C488.383 268.867 447.177 303 398 303Z" fill="#253360"/>
<rect x="373" y="378" width="50" height="16" fill="#253360"/>
<path d="M394 324C386.5 304 381.5 303 374 300L399 293V383.5H381C381 383.5 381.211 381.035 381.5 371.5C382.5 338.5 395.448 327.861 394 324Z" fill="#253360"/>
<path d="M402 324C409.5 304 414.5 303 422 300L397 293V383.5H415C415 383.5 414.789 381.035 414.5 371.5C413.5 338.5 400.552 327.861 402 324Z" fill="#253360"/>
<path d="M377.957 316.823C385.327 313.431 397.746 312.291 401.28 314.266C398.331 314.436 389.51 318.306 384.171 323.769C377.956 330.13 379.106 337.603 372.765 342.778C366.403 347.968 359.239 341.973 360.409 336.124C361.635 329.996 368.745 321.063 377.957 316.823Z" fill="#253360"/>
<path d="M295.349 251.64C298.251 259.216 298.576 271.684 296.374 275.08C296.397 272.127 293.113 263.071 288.011 257.387C282.071 250.769 274.538 251.427 269.79 244.76C265.027 238.073 271.478 231.317 277.238 232.867C283.272 234.491 291.721 242.17 295.349 251.64Z" fill="#253360"/>
<path d="M355.135 307.65C366.015 307.786 381.714 313.559 384.857 317.986C381.187 316.494 368.274 316.1 358.661 319.642C347.469 323.766 344.557 333.48 333.896 336.095C323.201 338.718 317.977 327.329 322.763 320.919C327.778 314.203 341.534 307.479 355.135 307.65Z" fill="#253360"/>
<path d="M330.285 294.501C340.266 298.834 352.511 310.229 353.698 315.526C350.89 312.731 339.134 307.374 328.899 306.924C316.983 306.399 310.541 314.232 299.698 312.521C288.821 310.804 288.407 298.281 295.3 294.22C302.521 289.966 317.808 289.084 330.285 294.501Z" fill="#253360"/>
<path d="M307.445 273.906C314.586 279.782 321.926 291.957 321.656 296.563C320.016 293.622 311.664 286.495 303.406 283.732C293.793 280.516 286.697 285.409 278.238 281.474C269.752 277.527 272.344 267.197 278.926 265.492C285.821 263.705 298.518 266.561 307.445 273.906Z" fill="#253360"/>
<path d="M418.372 316.823C411.002 313.431 398.582 312.291 395.049 314.266C397.998 314.436 406.819 318.306 412.158 323.769C418.372 330.13 417.223 337.603 423.564 342.778C429.925 347.968 437.09 341.973 435.92 336.124C434.694 329.996 427.584 321.063 418.372 316.823Z" fill="#253360"/>
<path d="M500.98 251.64C498.078 259.216 497.753 271.684 499.954 275.08C499.931 272.127 503.215 263.071 508.318 257.387C514.258 250.769 521.791 251.427 526.539 244.76C531.302 238.073 524.851 231.317 519.091 232.867C513.056 234.491 504.608 242.17 500.98 251.64Z" fill="#253360"/>
<path d="M441.194 307.65C430.313 307.786 414.614 313.559 411.471 317.986C415.141 316.494 428.055 316.1 437.668 319.642C448.859 323.766 451.772 333.48 462.433 336.095C473.127 338.718 478.352 327.329 473.565 320.919C468.551 314.203 454.794 307.479 441.194 307.65Z" fill="#253360"/>
<path d="M466.044 294.501C456.063 298.834 443.818 310.229 442.631 315.526C445.438 312.731 457.195 307.374 467.43 306.924C479.345 306.399 485.788 314.232 496.631 312.521C507.507 310.804 507.921 298.281 501.029 294.22C493.807 289.966 478.52 289.084 466.044 294.501Z" fill="#253360"/>
<path d="M488.884 273.906C481.742 279.782 474.402 291.957 474.672 296.563C476.312 293.622 484.665 286.495 492.922 283.732C502.535 280.516 509.632 285.409 518.091 281.474C526.576 277.527 523.985 267.197 517.403 265.492C510.507 263.705 497.811 266.561 488.884 273.906Z" fill="#253360"/>
<path fill-rule="evenodd" clip-rule="evenodd" d="M397 134H461V206H397V134ZM405 142H429V150H405V142ZM429 158H405V166H429V158ZM405 174H429V182H405V174ZM429 190H405V198H429V190Z" fill="#384EC1"/>
<path fill-rule="evenodd" clip-rule="evenodd" d="M493 158H469V206H493V158ZM485 190H477V198H485V190Z" fill="#798AFF"/>
<path fill-rule="evenodd" clip-rule="evenodd" d="M325 158H301V206H325V158ZM317 190H309V198H317V190Z" fill="#798AFF"/>
<path fill-rule="evenodd" clip-rule="evenodd" d="M357 158H333V206H357V158ZM349 190H341V198H349V190Z" fill="#798AFF"/>
<path fill-rule="evenodd" clip-rule="evenodd" d="M389 158H365V206H389V158ZM381 190H373V198H381V190Z" fill="#798AFF"/>
<path d="M375 120.345V111.292C371.344 111.292 364.031 101.827 349 113.009C347.781 113.915 348.926 114.887 354.687 111.704C363.625 106.765 372.499 120.345 375 120.345Z" fill="#384EC1"/>
<path d="M375 120.345V111.292C378.656 111.292 385.969 101.827 401 113.009C402.219 113.915 401.074 114.887 395.313 111.704C386.375 106.765 377.501 120.345 375 120.345Z" fill="#384EC1"/>
</g>
</g>
<defs>
<clipPath id="clip0_101_22464">
<rect width="800" height="800" fill="white"/>
</clipPath>
<clipPath id="clip1_101_22464">
<rect width="400" height="400" fill="white" transform="translate(198 23)"/>
</clipPath>
</defs>
</svg>
