<svg width="800" height="800" viewBox="0 0 800 800" fill="none" xmlns="http://www.w3.org/2000/svg">
<g clip-path="url(#clip0_102_15572)">
<rect x="-49" y="-47" width="901" height="895" fill="#253360"/>
<rect x="-49" y="-47" width="901" height="895" fill="url(#paint0_linear_102_15572)" fill-opacity="0.2"/>
<mask id="mask0_102_15572" style="mask-type:alpha" maskUnits="userSpaceOnUse" x="0" y="0" width="800" height="800">
<path d="M161.479 523.045C167.373 523.045 172.614 522.223 177.204 520.58C181.794 518.88 185.166 517.208 187.319 515.565L196.414 533.67C193.808 535.937 189.303 538.232 182.899 540.555C176.553 542.878 168.959 544.04 160.119 544.04C151.846 544.04 144.111 542.595 136.914 539.705C129.718 536.758 123.399 532.678 117.959 527.465C112.519 522.195 108.269 516.047 105.209 509.02C102.149 501.937 100.619 494.287 100.619 486.07C100.619 477.853 102.121 470.203 105.124 463.12C108.184 455.98 112.434 449.775 117.874 444.505C123.314 439.235 129.633 435.127 136.829 432.18C144.083 429.233 151.846 427.76 160.119 427.76C168.959 427.76 176.553 428.922 182.899 431.245C189.303 433.568 193.808 435.863 196.414 438.13L187.319 456.235C185.166 454.592 181.794 452.948 177.204 451.305C172.614 449.605 167.373 448.755 161.479 448.755C155.473 448.755 150.118 449.718 145.414 451.645C140.768 453.572 136.801 456.263 133.514 459.72C130.284 463.12 127.819 467.058 126.119 471.535C124.419 476.012 123.569 480.772 123.569 485.815C123.569 490.915 124.419 495.732 126.119 500.265C127.819 504.742 130.284 508.708 133.514 512.165C136.801 515.565 140.768 518.228 145.414 520.155C150.118 522.082 155.473 523.045 161.479 523.045ZM267.5 542V529.845C266.99 531.092 265.686 532.848 263.59 535.115C261.493 537.382 258.66 539.45 255.09 541.32C251.576 543.133 247.44 544.04 242.68 544.04C235.993 544.04 230.071 542.453 224.915 539.28C219.758 536.05 215.706 531.658 212.76 526.105C209.87 520.495 208.425 514.177 208.425 507.15C208.425 500.123 209.87 493.833 212.76 488.28C215.706 482.67 219.758 478.25 224.915 475.02C230.071 471.79 235.993 470.175 242.68 470.175C247.326 470.175 251.35 470.968 254.75 472.555C258.206 474.085 260.983 475.898 263.08 477.995C265.233 480.035 266.621 481.877 267.245 483.52V472.215H288.665V542H267.5ZM229.59 507.15C229.59 511.06 230.468 514.517 232.225 517.52C233.981 520.467 236.305 522.762 239.195 524.405C242.085 526.048 245.23 526.87 248.63 526.87C252.2 526.87 255.373 526.048 258.15 524.405C260.926 522.705 263.108 520.382 264.695 517.435C266.338 514.432 267.16 511.003 267.16 507.15C267.16 503.297 266.338 499.897 264.695 496.95C263.108 493.947 260.926 491.595 258.15 489.895C255.373 488.195 252.2 487.345 248.63 487.345C245.23 487.345 242.085 488.195 239.195 489.895C236.305 491.538 233.981 493.862 232.225 496.865C230.468 499.812 229.59 503.24 229.59 507.15ZM300.438 472.215H313.018V443.57H334.438V472.215H350.928V490.15H334.438V515.395C334.438 518.738 334.977 521.345 336.053 523.215C337.13 525.028 338.83 525.935 341.153 525.935C342.91 525.935 344.355 525.595 345.488 524.915C346.622 524.178 347.302 523.668 347.528 523.385L355.178 538.855C354.838 539.195 353.733 539.79 351.863 540.64C350.05 541.49 347.698 542.255 344.808 542.935C341.975 543.672 338.773 544.04 335.203 544.04C328.8 544.04 323.502 542.198 319.308 538.515C315.115 534.775 313.018 528.995 313.018 521.175V490.15H300.438V472.215ZM420.898 542V529.845C420.388 531.092 419.085 532.848 416.988 535.115C414.891 537.382 412.058 539.45 408.488 541.32C404.975 543.133 400.838 544.04 396.078 544.04C389.391 544.04 383.47 542.453 378.313 539.28C373.156 536.05 369.105 531.658 366.158 526.105C363.268 520.495 361.823 514.177 361.823 507.15C361.823 500.123 363.268 493.833 366.158 488.28C369.105 482.67 373.156 478.25 378.313 475.02C383.47 471.79 389.391 470.175 396.078 470.175C400.725 470.175 404.748 470.968 408.148 472.555C411.605 474.085 414.381 475.898 416.478 477.995C418.631 480.035 420.02 481.877 420.643 483.52V472.215H442.063V542H420.898ZM382.988 507.15C382.988 511.06 383.866 514.517 385.623 517.52C387.38 520.467 389.703 522.762 392.593 524.405C395.483 526.048 398.628 526.87 402.028 526.87C405.598 526.87 408.771 526.048 411.548 524.405C414.325 522.705 416.506 520.382 418.093 517.435C419.736 514.432 420.558 511.003 420.558 507.15C420.558 503.297 419.736 499.897 418.093 496.95C416.506 493.947 414.325 491.595 411.548 489.895C408.771 488.195 405.598 487.345 402.028 487.345C398.628 487.345 395.483 488.195 392.593 489.895C389.703 491.538 387.38 493.862 385.623 496.865C383.866 499.812 382.988 503.24 382.988 507.15ZM481.632 542H459.957V425.04H481.632V542ZM532.773 523.045L553.428 472.215H574.763L527.078 577.36H505.403L521.468 542L492.483 472.215H514.073L532.773 523.045ZM613.291 470.175C617.485 470.175 621.366 470.572 624.936 471.365C628.506 472.102 631.51 472.952 633.946 473.915C636.44 474.878 638.083 475.7 638.876 476.38L631.481 489.385C630.348 488.478 628.308 487.402 625.361 486.155C622.471 484.908 619.241 484.285 615.671 484.285C612.441 484.285 609.721 484.852 607.511 485.985C605.301 487.062 604.196 488.705 604.196 490.915C604.196 493.125 605.386 494.882 607.766 496.185C610.146 497.488 613.461 498.622 617.711 499.585C621.281 500.322 624.795 501.455 628.251 502.985C631.708 504.458 634.57 506.612 636.836 509.445C639.103 512.222 640.236 515.933 640.236 520.58C640.236 525.17 639.245 528.995 637.261 532.055C635.335 535.058 632.756 537.438 629.526 539.195C626.296 540.952 622.755 542.198 618.901 542.935C615.048 543.672 611.223 544.04 607.426 544.04C602.496 544.04 598.161 543.558 594.421 542.595C590.681 541.688 587.593 540.64 585.156 539.45C582.776 538.203 581.076 537.155 580.056 536.305L587.451 521.855C588.925 523.158 591.333 524.603 594.676 526.19C598.076 527.72 601.731 528.485 605.641 528.485C609.721 528.485 612.923 527.777 615.246 526.36C617.626 524.943 618.816 523.045 618.816 520.665C618.816 518.908 618.25 517.492 617.116 516.415C615.983 515.282 614.425 514.347 612.441 513.61C610.458 512.873 608.135 512.222 605.471 511.655C603.035 511.145 600.541 510.408 597.991 509.445C595.441 508.425 593.061 507.093 590.851 505.45C588.641 503.807 586.856 501.767 585.496 499.33C584.136 496.837 583.456 493.862 583.456 490.405C583.456 485.985 584.873 482.302 587.706 479.355C590.54 476.352 594.223 474.085 598.756 472.555C603.29 470.968 608.135 470.175 613.291 470.175ZM648.241 472.215H660.821V443.57H682.241V472.215H698.731V490.15H682.241V515.395C682.241 518.738 682.779 521.345 683.856 523.215C684.933 525.028 686.633 525.935 688.956 525.935C690.713 525.935 692.158 525.595 693.291 524.915C694.424 524.178 695.104 523.668 695.331 523.385L702.981 538.855C702.641 539.195 701.536 539.79 699.666 540.64C697.853 541.49 695.501 542.255 692.611 542.935C689.778 543.672 686.576 544.04 683.006 544.04C676.603 544.04 671.304 542.198 667.111 538.515C662.918 534.775 660.821 528.995 660.821 521.175V490.15H648.241V472.215Z" fill="#253360"/>
<path d="M294.74 647V598.98H325.12V603.67H300.06V620.4H322.74V625.09H300.06V647H294.74ZM350.723 647.84C347.083 647.84 343.956 647.257 341.343 646.09C338.729 644.877 336.723 642.94 335.323 640.28C333.923 637.573 333.223 634.027 333.223 629.64V598.98H338.613V630.69C338.613 634.89 339.663 638.017 341.763 640.07C343.863 642.123 346.849 643.15 350.723 643.15C354.736 643.15 357.816 642.123 359.963 640.07C362.156 638.017 363.253 634.89 363.253 630.69V598.98H368.573V629.64C368.573 634.027 367.849 637.573 366.403 640.28C364.956 642.94 362.903 644.877 360.243 646.09C357.583 647.257 354.409 647.84 350.723 647.84ZM379.984 647V598.98H385.234L407.074 632.02C407.307 632.3 407.587 632.72 407.914 633.28C408.24 633.793 408.567 634.33 408.894 634.89C409.267 635.45 409.57 635.94 409.804 636.36H410.084C410.084 635.567 410.084 634.797 410.084 634.05C410.084 633.257 410.084 632.533 410.084 631.88V598.98H415.334V647H410.574L388.314 613.33C388.034 612.91 387.59 612.233 386.984 611.3C386.424 610.367 385.934 609.55 385.514 608.85H385.164C385.164 609.597 385.164 610.367 385.164 611.16C385.21 611.953 385.234 612.723 385.234 613.47V647H379.984ZM426.947 647V598.98H442.767C447.48 598.98 451.447 599.82 454.667 601.5C457.933 603.133 460.407 605.723 462.087 609.27C463.767 612.77 464.607 617.343 464.607 622.99C464.607 628.543 463.767 633.093 462.087 636.64C460.407 640.187 457.933 642.8 454.667 644.48C451.447 646.16 447.457 647 442.697 647H426.947ZM432.267 642.31H442.347C444.913 642.31 447.2 642.007 449.207 641.4C451.26 640.793 453.033 639.79 454.527 638.39C456.02 636.943 457.14 635.053 457.887 632.72C458.68 630.34 459.077 627.423 459.077 623.97V622.29C459.077 618.743 458.68 615.78 457.887 613.4C457.14 611.02 456.02 609.13 454.527 607.73C453.08 606.283 451.33 605.257 449.277 604.65C447.223 603.997 444.913 603.67 442.347 603.67H432.267V642.31ZM499.066 647.84C495.893 647.84 493.35 647.21 491.436 645.95C489.523 644.69 488.123 642.94 487.236 640.7C486.35 638.46 485.906 635.893 485.906 633H490.876C490.876 635.427 491.18 637.433 491.786 639.02C492.393 640.607 493.326 641.773 494.586 642.52C495.846 643.267 497.433 643.64 499.346 643.64C502.193 643.64 504.386 642.847 505.926 641.26C507.513 639.673 508.61 637.363 509.216 634.33C509.823 631.25 510.15 627.587 510.196 623.34C509.45 624.787 508.446 626 507.186 626.98C505.973 627.96 504.62 628.707 503.126 629.22C501.633 629.687 500.046 629.92 498.366 629.92C495.146 629.92 492.51 629.243 490.456 627.89C488.403 626.537 486.863 624.693 485.836 622.36C484.81 620.027 484.296 617.39 484.296 614.45C484.296 611.09 484.926 608.197 486.186 605.77C487.493 603.343 489.243 601.477 491.436 600.17C493.676 598.817 496.196 598.14 498.996 598.14C501.61 598.14 503.92 598.513 505.926 599.26C507.933 600.007 509.613 601.267 510.966 603.04C512.32 604.813 513.346 607.217 514.046 610.25C514.793 613.283 515.166 617.063 515.166 621.59C515.166 626.49 514.816 630.62 514.116 633.98C513.416 637.34 512.39 640.047 511.036 642.1C509.683 644.107 508.003 645.577 505.996 646.51C503.99 647.397 501.68 647.84 499.066 647.84ZM499.276 625.79C501.61 625.79 503.523 625.277 505.016 624.25C506.556 623.177 507.7 621.753 508.446 619.98C509.193 618.16 509.566 616.153 509.566 613.96C509.566 611.813 509.216 609.877 508.516 608.15C507.816 606.377 506.72 604.953 505.226 603.88C503.733 602.807 501.82 602.27 499.486 602.27C497.06 602.27 495.1 602.83 493.606 603.95C492.16 605.07 491.086 606.54 490.386 608.36C489.686 610.18 489.336 612.21 489.336 614.45C489.336 616.503 489.663 618.393 490.316 620.12C491.016 621.847 492.09 623.223 493.536 624.25C494.983 625.277 496.896 625.79 499.276 625.79Z" fill="#253360"/>
<path d="M321.261 708.48C316.621 708.48 313.167 707.307 310.901 704.96C308.634 702.587 307.501 699.027 307.501 694.28C307.501 691.213 308.007 688.627 309.021 686.52C310.061 684.413 311.607 682.813 313.661 681.72C315.714 680.627 318.287 680.08 321.381 680.08C323.327 680.08 325.047 680.293 326.541 680.72C328.034 681.12 329.287 681.733 330.301 682.56C331.341 683.36 332.114 684.373 332.621 685.6C333.154 686.827 333.421 688.267 333.421 689.92H331.301C331.301 688.4 331.047 687.133 330.541 686.12C330.061 685.107 329.367 684.293 328.461 683.68C327.581 683.067 326.527 682.64 325.301 682.4C324.074 682.133 322.741 682 321.301 682C319.567 682 317.994 682.213 316.581 682.64C315.167 683.067 313.954 683.76 312.941 684.72C311.927 685.653 311.141 686.88 310.581 688.4C310.047 689.893 309.781 691.72 309.781 693.88V694.72C309.781 697.6 310.234 699.907 311.141 701.64C312.074 703.373 313.381 704.627 315.061 705.4C316.741 706.173 318.714 706.56 320.981 706.56C323.594 706.56 325.647 706.213 327.141 705.52C328.634 704.827 329.687 703.747 330.301 702.28C330.941 700.787 331.261 698.893 331.261 696.6V695.84H320.501V693.92H333.461V708H331.621L331.261 704.04C330.647 705.107 329.794 705.973 328.701 706.64C327.607 707.28 326.407 707.747 325.101 708.04C323.821 708.333 322.541 708.48 321.261 708.48ZM339.975 708V686.96H341.415L341.615 690.6H341.855C342.015 689.96 342.268 689.333 342.615 688.72C342.988 688.08 343.508 687.547 344.175 687.12C344.841 686.693 345.681 686.48 346.695 686.48C347.068 686.48 347.401 686.507 347.695 686.56C347.988 686.613 348.201 686.667 348.335 686.72V688.4H347.215C346.228 688.4 345.388 688.6 344.695 689C344.028 689.4 343.481 689.933 343.055 690.6C342.655 691.267 342.361 692.013 342.175 692.84C341.988 693.64 341.895 694.453 341.895 695.28V708H339.975ZM359.22 708.48C357.3 708.48 355.66 708.093 354.3 707.32C352.94 706.52 351.9 705.307 351.18 703.68C350.46 702.053 350.1 699.987 350.1 697.48C350.1 694.947 350.46 692.88 351.18 691.28C351.9 689.653 352.94 688.453 354.3 687.68C355.66 686.88 357.3 686.48 359.22 686.48C361.167 686.48 362.807 686.88 364.14 687.68C365.5 688.453 366.54 689.653 367.26 691.28C367.98 692.88 368.34 694.947 368.34 697.48C368.34 699.987 367.98 702.053 367.26 703.68C366.54 705.307 365.5 706.52 364.14 707.32C362.807 708.093 361.167 708.48 359.22 708.48ZM359.22 706.76C360.687 706.76 361.94 706.467 362.98 705.88C364.047 705.293 364.86 704.36 365.42 703.08C366.007 701.8 366.3 700.133 366.3 698.08V696.88C366.3 694.8 366.007 693.133 365.42 691.88C364.86 690.6 364.047 689.667 362.98 689.08C361.94 688.493 360.687 688.2 359.22 688.2C357.753 688.2 356.487 688.493 355.42 689.08C354.38 689.667 353.567 690.6 352.98 691.88C352.42 693.133 352.14 694.8 352.14 696.88V698.08C352.14 700.133 352.42 701.8 352.98 703.08C353.567 704.36 354.38 705.293 355.42 705.88C356.487 706.467 357.753 706.76 359.22 706.76ZM376.795 708L370.355 686.96H372.355L375.915 698.68C376.075 699.213 376.248 699.853 376.435 700.6C376.648 701.32 376.848 702.04 377.035 702.76C377.248 703.48 377.421 704.107 377.555 704.64H377.755C377.888 704.107 378.035 703.48 378.195 702.76C378.381 702.013 378.555 701.28 378.715 700.56C378.901 699.84 379.061 699.213 379.195 698.68L382.195 686.96H384.355L387.355 698.68C387.488 699.213 387.635 699.84 387.795 700.56C387.981 701.28 388.155 702.013 388.315 702.76C388.501 703.48 388.648 704.107 388.755 704.64H388.955C389.115 704.107 389.288 703.48 389.475 702.76C389.688 702.04 389.901 701.32 390.115 700.6C390.328 699.853 390.515 699.213 390.675 698.68L394.235 686.96H396.035L389.595 708H387.875L384.755 696.12C384.648 695.64 384.501 695.04 384.315 694.32C384.128 693.573 383.941 692.813 383.755 692.04C383.595 691.24 383.448 690.533 383.315 689.92H383.075C382.941 690.533 382.781 691.24 382.595 692.04C382.435 692.813 382.261 693.573 382.075 694.32C381.915 695.04 381.768 695.653 381.635 696.16L378.555 708H376.795ZM406.009 708L417.049 680.56H420.169L431.209 708H428.889L425.689 700.08H411.369L408.209 708H406.009ZM412.169 698.16H424.889L420.889 688.2C420.809 687.987 420.689 687.667 420.529 687.24C420.369 686.813 420.183 686.32 419.969 685.76C419.756 685.2 419.529 684.627 419.289 684.04C419.076 683.453 418.876 682.907 418.689 682.4H418.369C418.183 682.907 417.956 683.507 417.689 684.2C417.423 684.893 417.156 685.6 416.889 686.32C416.623 687.013 416.383 687.64 416.169 688.2L412.169 698.16ZM435.185 708V688.68H431.985V686.96H435.185V682.8C435.185 682.133 435.278 681.493 435.465 680.88C435.652 680.267 436.012 679.76 436.545 679.36C437.078 678.96 437.838 678.76 438.825 678.76C439.145 678.76 439.452 678.773 439.745 678.8C440.065 678.8 440.358 678.827 440.625 678.88C440.918 678.907 441.185 678.96 441.425 679.04V680.48H439.225C438.478 680.48 437.932 680.667 437.585 681.04C437.265 681.387 437.105 681.907 437.105 682.6V686.96H441.425V688.68H437.105V708H435.185ZM444.506 708V686.96H445.946L446.146 690.6H446.386C446.546 689.96 446.799 689.333 447.146 688.72C447.519 688.08 448.039 687.547 448.706 687.12C449.373 686.693 450.213 686.48 451.226 686.48C451.599 686.48 451.933 686.507 452.226 686.56C452.519 686.613 452.733 686.667 452.866 686.72V688.4H451.746C450.759 688.4 449.919 688.6 449.226 689C448.559 689.4 448.013 689.933 447.586 690.6C447.186 691.267 446.893 692.013 446.706 692.84C446.519 693.64 446.426 694.453 446.426 695.28V708H444.506ZM456.342 682.12V679.08H458.262V682.12H456.342ZM456.342 708V686.96H458.262V708H456.342ZM471.275 708.48C469.435 708.48 467.862 708.08 466.555 707.28C465.275 706.48 464.289 705.267 463.595 703.64C462.902 701.987 462.555 699.933 462.555 697.48C462.555 695.08 462.889 693.067 463.555 691.44C464.249 689.787 465.262 688.547 466.595 687.72C467.929 686.893 469.555 686.48 471.475 686.48C472.969 686.48 474.209 686.68 475.195 687.08C476.209 687.48 477.009 688.053 477.595 688.8C478.182 689.52 478.595 690.387 478.835 691.4C479.102 692.387 479.235 693.467 479.235 694.64H477.355C477.355 693.12 477.155 691.893 476.755 690.96C476.382 690 475.755 689.307 474.875 688.88C474.022 688.427 472.862 688.2 471.395 688.2C470.169 688.2 469.035 688.467 467.995 689C466.955 689.533 466.129 690.427 465.515 691.68C464.902 692.933 464.595 694.667 464.595 696.88V698.08C464.595 700.133 464.875 701.8 465.435 703.08C465.995 704.36 466.782 705.293 467.795 705.88C468.809 706.467 469.982 706.76 471.315 706.76C472.862 706.76 474.062 706.507 474.915 706C475.795 705.467 476.422 704.72 476.795 703.76C477.169 702.773 477.355 701.627 477.355 700.32H479.235C479.235 701.333 479.102 702.333 478.835 703.32C478.595 704.28 478.169 705.147 477.555 705.92C476.969 706.693 476.155 707.32 475.115 707.8C474.102 708.253 472.822 708.48 471.275 708.48ZM488.689 708.48C487.729 708.48 486.836 708.36 486.009 708.12C485.209 707.907 484.503 707.573 483.889 707.12C483.303 706.64 482.836 706.04 482.489 705.32C482.169 704.6 482.009 703.747 482.009 702.76C482.009 701.293 482.383 700.107 483.129 699.2C483.876 698.293 484.916 697.6 486.249 697.12C487.583 696.613 489.156 696.28 490.969 696.12C492.783 695.933 494.743 695.84 496.849 695.84V692.68C496.849 691.72 496.663 690.907 496.289 690.24C495.943 689.573 495.316 689.067 494.409 688.72C493.529 688.373 492.303 688.2 490.729 688.2C489.236 688.2 488.049 688.4 487.169 688.8C486.316 689.173 485.703 689.693 485.329 690.36C484.983 691 484.809 691.72 484.809 692.52V693.2H482.969C482.943 693.067 482.929 692.933 482.929 692.8C482.929 692.667 482.929 692.507 482.929 692.32C482.929 690.933 483.276 689.813 483.969 688.96C484.663 688.107 485.636 687.48 486.889 687.08C488.169 686.68 489.636 686.48 491.289 686.48C492.863 686.48 494.196 686.72 495.289 687.2C496.409 687.653 497.263 688.32 497.849 689.2C498.463 690.053 498.769 691.093 498.769 692.32V705.44C498.769 705.947 498.849 706.293 499.009 706.48C499.169 706.667 499.423 706.76 499.769 706.76H501.649V707.88C501.169 708.093 500.729 708.24 500.329 708.32C499.929 708.4 499.556 708.44 499.209 708.44C498.489 708.44 497.956 708.28 497.609 707.96C497.289 707.613 497.076 707.16 496.969 706.6C496.889 706.013 496.849 705.387 496.849 704.72H496.569C496.036 705.52 495.343 706.2 494.489 706.76C493.636 707.32 492.716 707.747 491.729 708.04C490.743 708.333 489.729 708.48 488.689 708.48ZM488.849 706.76C489.756 706.76 490.676 706.613 491.609 706.32C492.543 706 493.396 705.56 494.169 705C494.969 704.44 495.609 703.773 496.089 703C496.596 702.2 496.849 701.32 496.849 700.36V697.64C493.889 697.64 491.476 697.8 489.609 698.12C487.743 698.413 486.356 698.933 485.449 699.68C484.569 700.427 484.129 701.467 484.129 702.8C484.129 703.76 484.343 704.533 484.769 705.12C485.196 705.707 485.769 706.133 486.489 706.4C487.209 706.64 487.996 706.76 488.849 706.76Z" fill="#384EC1"/>
<path d="M609 630H708" stroke="#253360" stroke-width="3"/>
<path d="M99 630H198" stroke="#253360" stroke-width="3"/>
<g clip-path="url(#clip1_102_15572)">
<path fill-rule="evenodd" clip-rule="evenodd" d="M398 95C398.206 95 398.413 95.0006 398.619 95.0018C395.513 95.0172 392.488 95.1313 389.542 95.3389C392.332 95.1144 395.153 95 398 95Z" fill="#253360"/>
<rect x="373" y="378" width="50" height="16" fill="#253360"/>
<path d="M394 324C386.5 304 381.5 303 374 300L399 293V383.5H381C381 383.5 381.211 381.035 381.5 371.5C382.5 338.5 395.448 327.861 394 324Z" fill="#253360"/>
<path d="M402 324C409.5 304 414.5 303 422 300L397 293V383.5H415C415 383.5 414.789 381.035 414.5 371.5C413.5 338.5 400.552 327.861 402 324Z" fill="#253360"/>
<path d="M377.957 316.823C385.327 313.431 397.746 312.291 401.28 314.266C398.331 314.436 389.51 318.306 384.171 323.769C377.956 330.13 379.106 337.603 372.765 342.778C366.403 347.968 359.239 341.973 360.409 336.124C361.635 329.996 368.745 321.063 377.957 316.823Z" fill="#253360"/>
<path d="M295.349 251.64C298.251 259.216 298.576 271.684 296.374 275.08C296.397 272.127 293.113 263.071 288.011 257.387C282.071 250.769 274.538 251.427 269.79 244.76C265.027 238.073 271.478 231.317 277.238 232.867C283.272 234.491 291.721 242.17 295.349 251.64Z" fill="#253360"/>
<path d="M355.135 307.65C366.015 307.786 381.714 313.559 384.857 317.986C381.187 316.494 368.274 316.1 358.661 319.642C347.469 323.766 344.557 333.48 333.896 336.095C323.201 338.718 317.977 327.329 322.763 320.919C327.778 314.203 341.534 307.479 355.135 307.65Z" fill="#253360"/>
<path d="M330.285 294.501C340.266 298.834 352.511 310.229 353.698 315.526C350.89 312.731 339.134 307.374 328.899 306.924C316.983 306.399 310.541 314.232 299.698 312.521C288.821 310.804 288.407 298.281 295.3 294.22C302.521 289.966 317.808 289.084 330.285 294.501Z" fill="#253360"/>
<path d="M307.445 273.906C314.586 279.782 321.926 291.957 321.656 296.563C320.016 293.622 311.664 286.495 303.406 283.732C293.793 280.516 286.697 285.409 278.238 281.474C269.752 277.527 272.344 267.197 278.926 265.492C285.821 263.705 298.518 266.561 307.445 273.906Z" fill="#253360"/>
<path d="M418.372 316.823C411.002 313.431 398.582 312.291 395.049 314.266C397.998 314.436 406.819 318.306 412.158 323.769C418.372 330.13 417.223 337.603 423.564 342.778C429.925 347.968 437.09 341.973 435.92 336.124C434.694 329.996 427.584 321.063 418.372 316.823Z" fill="#253360"/>
<path d="M500.98 251.64C498.078 259.216 497.753 271.684 499.954 275.08C499.931 272.127 503.215 263.071 508.318 257.387C514.258 250.769 521.791 251.427 526.539 244.76C531.302 238.073 524.851 231.317 519.091 232.867C513.056 234.491 504.608 242.17 500.98 251.64Z" fill="#253360"/>
<path d="M441.194 307.65C430.313 307.786 414.614 313.559 411.471 317.986C415.141 316.494 428.055 316.1 437.668 319.642C448.859 323.766 451.772 333.48 462.433 336.095C473.127 338.718 478.352 327.329 473.565 320.919C468.551 314.203 454.794 307.479 441.194 307.65Z" fill="#253360"/>
<path d="M466.044 294.501C456.063 298.834 443.818 310.229 442.631 315.526C445.438 312.731 457.195 307.374 467.43 306.924C479.345 306.399 485.788 314.232 496.631 312.521C507.507 310.804 507.921 298.281 501.029 294.22C493.807 289.966 478.52 289.084 466.044 294.501Z" fill="#253360"/>
<path d="M488.884 273.906C481.742 279.782 474.402 291.957 474.672 296.563C476.312 293.622 484.665 286.495 492.922 283.732C502.535 280.516 509.632 285.409 518.091 281.474C526.576 277.527 523.985 267.197 517.403 265.492C510.507 263.705 497.811 266.561 488.884 273.906Z" fill="#253360"/>
<mask id="mask1_102_15572" style="mask-type:luminance" maskUnits="userSpaceOnUse" x="294" y="95" width="208" height="208">
<path fill-rule="evenodd" clip-rule="evenodd" d="M398 303C455.438 303 502 256.438 502 199C502 141.562 455.438 95 398 95C340.562 95 294 141.562 294 199C294 256.438 340.562 303 398 303ZM473.976 182.221L473.958 182.381C473.441 187.101 472.267 197.802 463.5 203.5C462.1 204.41 460.749 205.242 459.461 206.035C451.547 210.906 446 214.32 446 225.5C446 230 450 231 450 231C450 231 451.5 241.3 447.5 244.5C441.5 249.3 434.001 254 434.001 254C434.001 254 438.389 259.919 434.001 262.5C430.497 264.561 430.051 265.994 429.407 268.066C428.49 271.021 427.168 275.274 416 284.5C414.797 285.494 412.551 285.068 409.987 284.581C407.225 284.057 404.093 283.463 401.5 284.5C399.112 285.455 398.891 284.557 398.277 282.065C397.605 279.338 396.463 274.704 391.5 268.5C388.949 265.31 389.291 263.748 389.681 261.968C390.208 259.563 390.822 256.759 384.5 249C382.703 246.795 383.766 243.5 385.264 238.856C386 236.574 386.841 233.965 387.5 231C389.08 223.889 382.584 216.778 379.017 212.873L379.017 212.873C378.069 211.836 377.328 211.025 377 210.5C376.317 209.407 376.613 208.506 377.08 207.086C377.68 205.256 378.563 202.567 378 197.5C377.62 194.08 370.001 197.5 370.001 197.5C370.001 197.5 368.107 189.61 361.5 192.5C354.014 195.775 352.317 195.475 349.717 195.014C347.554 194.631 344.766 194.138 337.5 195.5C335.565 195.863 335.067 195.36 333.92 194.202C332.777 193.049 330.991 191.245 326.5 189C324.775 188.138 324.887 187.495 325.061 186.496C325.342 184.889 325.783 182.358 319 176.5C317.7 171.561 319.486 169.055 321.091 166.803C322.573 164.723 323.9 162.861 322.5 159.5C319.584 152.5 332 142.5 335.5 140.5C340.951 137.385 341.635 135.707 342.256 134.184C342.72 133.047 343.149 131.996 345.5 130.5L353 124.5C356.584 126.548 359.775 125.975 364.855 125.061C369.696 124.191 376.253 123.012 386.5 123.5C388.46 123.593 387.014 125.833 385.54 128.116C384.044 130.433 382.519 132.795 384.5 133C391.772 133.752 395.774 136.265 398.462 137.953C401.133 139.63 402.506 140.492 404.5 138C405.242 137.072 405.481 136.034 405.679 135.177C406.033 133.64 406.252 132.686 409 134C415.736 137.222 422.689 137.063 427.568 136.952C431.02 136.874 433.434 136.819 434.001 138C438.501 147.376 433.187 144.174 430.859 142.771C430.084 142.304 429.639 142.036 430 142.5C439.813 155.116 441.293 160.013 442.288 163.3C443.066 165.875 443.546 167.463 447.5 171C457 179.5 460.5 184 460.5 184L474 182C473.992 182.072 473.984 182.146 473.976 182.221ZM470.5 244C470.5 244 470.5 234.071 468.5 237.5C464.784 243.87 461.519 244.858 459.334 245.519C457.401 246.104 456.312 246.434 456.5 250C456.738 254.529 455.954 254.967 455.122 255.431C454.209 255.941 453.238 256.483 453.5 262.5C453.848 270.5 461 266.5 462.5 261.5C463.218 259.105 466 251.5 470.5 244Z" fill="white"/>
</mask>
<g mask="url(#mask1_102_15572)">
<circle cx="398" cy="199" r="104" fill="#253360"/>
<path fill-rule="evenodd" clip-rule="evenodd" d="M499.217 223H296.783C294.963 215.296 294 207.26 294 199C294 141.562 340.562 95 398 95C455.438 95 502 141.562 502 199C502 207.26 501.037 215.296 499.217 223Z" fill="#384EC1"/>
</g>
</g>
</mask>
<g mask="url(#mask0_102_15572)">
<rect x="-49" y="-47" width="901" height="895" fill="#253360"/>
<rect x="-49" y="-47" width="901" height="895" fill="white"/>
</g>
</g>
<defs>
<linearGradient id="paint0_linear_102_15572" x1="756.5" y1="-75" x2="368.5" y2="570" gradientUnits="userSpaceOnUse">
<stop stop-color="white"/>
<stop offset="1" stop-color="white" stop-opacity="0"/>
</linearGradient>
<clipPath id="clip0_102_15572">
<rect width="800" height="800" fill="white"/>
</clipPath>
<clipPath id="clip1_102_15572">
<rect width="400" height="400" fill="white" transform="translate(198 23)"/>
</clipPath>
</defs>
</svg>
