<svg width="400" height="400" viewBox="0 0 400 400" fill="none" xmlns="http://www.w3.org/2000/svg">
<g clip-path="url(#clip0_101_23399)">
<path fill-rule="evenodd" clip-rule="evenodd" d="M200.619 72.0018C200.413 72.0006 200.206 72 200 72C197.153 72 194.332 72.1144 191.542 72.3389C194.488 72.1313 197.513 72.0172 200.619 72.0018ZM200 280C150.823 280 109.618 245.867 98.783 200H301.217C290.383 245.867 249.177 280 200 280Z" fill="#253360"/>
<rect x="175" y="355" width="50" height="16" fill="#253360"/>
<path d="M196 301C188.5 281 183.5 280 176 277L201 270V360.5H183C183 360.5 183.211 358.035 183.5 348.5C184.5 315.5 197.448 304.861 196 301Z" fill="#253360"/>
<path d="M204 301C211.5 281 216.5 280 224 277L199 270V360.5H217C217 360.5 216.789 358.035 216.5 348.5C215.5 315.5 202.552 304.861 204 301Z" fill="#253360"/>
<path d="M179.957 293.823C187.327 290.431 199.746 289.291 203.28 291.266C200.331 291.436 191.51 295.306 186.171 300.769C179.956 307.13 181.106 314.603 174.765 319.778C168.403 324.968 161.239 318.973 162.409 313.124C163.635 306.996 170.745 298.063 179.957 293.823Z" fill="#253360"/>
<path d="M97.3486 228.64C100.251 236.216 100.576 248.684 98.3744 252.08C98.3974 249.127 95.1133 240.071 90.0109 234.387C84.0709 227.769 76.5381 228.427 71.7897 221.76C67.0265 215.073 73.4781 208.317 79.2379 209.867C85.2723 211.491 93.7206 219.17 97.3486 228.64Z" fill="#253360"/>
<path d="M157.135 284.65C168.015 284.786 183.714 290.559 186.857 294.986C183.187 293.494 170.274 293.1 160.661 296.642C149.469 300.766 146.557 310.48 135.896 313.095C125.201 315.718 119.977 304.329 124.763 297.919C129.778 291.203 143.534 284.479 157.135 284.65Z" fill="#253360"/>
<path d="M132.285 271.501C142.266 275.834 154.511 287.229 155.698 292.526C152.89 289.731 141.134 284.374 130.899 283.924C118.983 283.399 112.541 291.232 101.698 289.521C90.8212 287.804 90.4072 275.281 97.2999 271.22C104.521 266.966 119.808 266.084 132.285 271.501Z" fill="#253360"/>
<path d="M109.445 250.906C116.586 256.782 123.926 268.957 123.656 273.563C122.016 270.622 113.664 263.495 105.406 260.732C95.7932 257.516 88.697 262.409 80.2378 258.474C71.7522 254.527 74.3437 244.197 80.9256 242.492C87.8214 240.705 100.518 243.561 109.445 250.906Z" fill="#253360"/>
<path d="M220.372 293.823C213.002 290.431 200.582 289.291 197.049 291.266C199.998 291.436 208.819 295.306 214.158 300.769C220.372 307.13 219.223 314.603 225.564 319.778C231.925 324.968 239.09 318.973 237.92 313.124C236.694 306.996 229.584 298.063 220.372 293.823Z" fill="#253360"/>
<path d="M302.98 228.64C300.078 236.216 299.753 248.684 301.954 252.08C301.931 249.127 305.215 240.071 310.318 234.387C316.258 227.769 323.791 228.427 328.539 221.76C333.302 215.073 326.851 208.317 321.091 209.867C315.056 211.491 306.608 219.17 302.98 228.64Z" fill="#253360"/>
<path d="M243.194 284.65C232.313 284.786 216.614 290.559 213.471 294.986C217.141 293.494 230.055 293.1 239.668 296.642C250.859 300.766 253.772 310.48 264.433 313.095C275.127 315.718 280.352 304.329 275.565 297.919C270.551 291.203 256.794 284.479 243.194 284.65Z" fill="#253360"/>
<path d="M268.044 271.501C258.063 275.834 245.818 287.229 244.631 292.526C247.438 289.731 259.195 284.374 269.43 283.924C281.345 283.399 287.788 291.232 298.631 289.521C309.507 287.804 309.921 275.281 303.029 271.22C295.807 266.966 280.52 266.084 268.044 271.501Z" fill="#253360"/>
<path d="M290.884 250.906C283.742 256.782 276.402 268.957 276.672 273.563C278.312 270.622 286.665 263.495 294.922 260.732C304.535 257.516 311.632 262.409 320.091 258.474C328.576 254.527 325.985 244.197 319.403 242.492C312.507 240.705 299.811 243.561 290.884 250.906Z" fill="#253360"/>
<path fill-rule="evenodd" clip-rule="evenodd" d="M275.958 159.381C275.973 159.249 275.987 159.122 276 159L262.5 161C262.5 161 259 156.5 249.5 148C245.546 144.463 245.066 142.875 244.288 140.3C243.293 137.013 241.813 132.116 232 119.5C231.639 119.036 232.084 119.304 232.859 119.771C235.187 121.174 240.501 124.376 236.001 115C235.434 113.819 233.02 113.874 229.568 113.952C224.689 114.063 217.736 114.222 211 111C208.252 109.686 208.033 110.64 207.679 112.177C207.481 113.034 207.242 114.072 206.5 115C204.506 117.492 203.133 116.63 200.462 114.953C197.774 113.265 193.772 110.752 186.5 110C184.519 109.795 186.044 107.433 187.54 105.116C189.014 102.833 190.46 100.593 188.5 100.5C178.253 100.012 171.696 101.191 166.855 102.061C161.775 102.975 158.584 103.548 155 101.5L147.5 107.5C145.149 108.996 144.72 110.047 144.256 111.184C143.635 112.707 142.951 114.385 137.5 117.5C134 119.5 121.584 129.5 124.5 136.5C125.9 139.861 124.573 141.723 123.091 143.803C121.486 146.055 119.7 148.561 121 153.5C127.783 159.358 127.342 161.889 127.061 163.496C126.887 164.495 126.775 165.138 128.5 166C132.991 168.245 134.777 170.049 135.92 171.202C137.067 172.36 137.565 172.863 139.5 172.5C146.766 171.138 149.554 171.631 151.717 172.014C154.317 172.475 156.014 172.775 163.5 169.5C170.107 166.61 172.001 174.5 172.001 174.5C172.001 174.5 179.62 171.08 180 174.5C180.563 179.567 179.68 182.256 179.08 184.086C178.613 185.506 178.317 186.407 179 187.5C179.328 188.025 180.069 188.836 181.017 189.873C184.584 193.778 191.08 200.889 189.5 208C188.841 210.965 188 213.574 187.264 215.856C185.766 220.5 184.703 223.795 186.5 226C192.822 233.759 192.208 236.563 191.681 238.968C191.291 240.748 190.949 242.31 193.5 245.5C198.463 251.704 199.605 256.338 200.277 259.065C200.891 261.557 201.112 262.455 203.5 261.5C206.093 260.463 209.225 261.057 211.987 261.581C214.551 262.068 216.797 262.494 218 261.5C229.168 252.274 230.49 248.021 231.407 245.066C232.051 242.994 232.497 241.561 236.001 239.5C240.389 236.919 236.001 231 236.001 231C236.001 231 243.5 226.3 249.5 221.5C253.5 218.3 252 208 252 208C252 208 248 207 248 202.5C248 191.32 253.547 187.906 261.461 183.035C262.749 182.242 264.1 181.41 265.5 180.5C274.267 174.802 275.441 164.101 275.958 159.381ZM270.5 214.5C272.5 211.071 272.5 221 272.5 221C268 228.5 265.218 236.105 264.5 238.5C263 243.5 255.848 247.5 255.5 239.5C255.238 233.483 256.209 232.941 257.122 232.431C257.954 231.967 258.738 231.529 258.5 227C258.312 223.434 259.401 223.104 261.334 222.519C263.519 221.858 266.784 220.87 270.5 214.5Z" fill="#384EC1"/>
<path fill-rule="evenodd" clip-rule="evenodd" d="M301.217 200H98.7829C96.963 192.296 96 184.26 96 176C96 118.562 142.562 72 200 72C257.438 72 304 118.562 304 176C304 184.26 303.037 192.296 301.217 200Z" fill="#798AFF"/>
<mask id="mask0_101_23399" style="mask-type:luminance" maskUnits="userSpaceOnUse" x="96" y="72" width="208" height="208">
<path fill-rule="evenodd" clip-rule="evenodd" d="M200 280C257.438 280 304 233.438 304 176C304 118.562 257.438 72 200 72C142.562 72 96 118.562 96 176C96 233.438 142.562 280 200 280ZM275.976 159.221L275.958 159.381C275.441 164.101 274.267 174.802 265.5 180.5C264.1 181.41 262.749 182.242 261.461 183.035C253.547 187.906 248 191.32 248 202.5C248 207 252 208 252 208C252 208 253.5 218.3 249.5 221.5C243.5 226.3 236.001 231 236.001 231C236.001 231 240.389 236.919 236.001 239.5C232.497 241.561 232.051 242.994 231.407 245.066C230.49 248.021 229.168 252.274 218 261.5C216.797 262.494 214.551 262.068 211.987 261.581C209.225 261.057 206.093 260.463 203.5 261.5C201.112 262.455 200.891 261.557 200.277 259.065C199.605 256.338 198.463 251.704 193.5 245.5C190.949 242.31 191.291 240.748 191.681 238.968C192.208 236.563 192.822 233.759 186.5 226C184.703 223.795 185.766 220.5 187.264 215.856C188 213.574 188.841 210.965 189.5 208C191.08 200.889 184.584 193.778 181.017 189.873L181.017 189.873C180.069 188.836 179.328 188.025 179 187.5C178.317 186.407 178.613 185.506 179.08 184.086C179.68 182.256 180.563 179.567 180 174.5C179.62 171.08 172.001 174.5 172.001 174.5C172.001 174.5 170.107 166.61 163.5 169.5C156.014 172.775 154.317 172.475 151.717 172.014C149.554 171.631 146.766 171.138 139.5 172.5C137.565 172.863 137.067 172.36 135.92 171.202C134.777 170.049 132.991 168.245 128.5 166C126.775 165.138 126.887 164.495 127.061 163.496C127.342 161.889 127.783 159.358 121 153.5C119.7 148.561 121.486 146.055 123.091 143.803C124.573 141.723 125.9 139.861 124.5 136.5C121.584 129.5 134 119.5 137.5 117.5C142.951 114.385 143.635 112.707 144.256 111.184C144.72 110.047 145.149 108.996 147.5 107.5L155 101.5C158.584 103.548 161.775 102.975 166.855 102.061C171.696 101.191 178.253 100.012 188.5 100.5C190.46 100.593 189.014 102.833 187.54 105.116C186.044 107.433 184.519 109.795 186.5 110C193.772 110.752 197.774 113.265 200.462 114.953C203.133 116.63 204.506 117.492 206.5 115C207.242 114.072 207.481 113.034 207.679 112.177C208.033 110.64 208.252 109.686 211 111C217.736 114.222 224.689 114.063 229.568 113.952C233.02 113.874 235.434 113.819 236.001 115C240.501 124.376 235.187 121.174 232.859 119.771C232.084 119.304 231.639 119.036 232 119.5C241.813 132.116 243.293 137.013 244.288 140.3C245.066 142.875 245.546 144.463 249.5 148C259 156.5 262.5 161 262.5 161L276 159C275.992 159.072 275.984 159.146 275.976 159.221ZM272.5 221C272.5 221 272.5 211.071 270.5 214.5C266.784 220.87 263.519 221.858 261.334 222.519C259.401 223.104 258.312 223.434 258.5 227C258.738 231.529 257.954 231.967 257.122 232.431C256.209 232.941 255.238 233.483 255.5 239.5C255.848 247.5 263 243.5 264.5 238.5C265.218 236.105 268 228.5 272.5 221Z" fill="white"/>
</mask>
<g mask="url(#mask0_101_23399)">
<circle cx="200" cy="176" r="104" fill="#253360"/>
<path fill-rule="evenodd" clip-rule="evenodd" d="M301.217 200H98.7829C96.963 192.296 96 184.26 96 176C96 118.562 142.562 72 200 72C257.438 72 304 118.562 304 176C304 184.26 303.037 192.296 301.217 200Z" fill="#384EC1"/>
</g>
</g>
<defs>
<clipPath id="clip0_101_23399">
<rect width="400" height="400" fill="white"/>
</clipPath>
</defs>
</svg>
