<svg width="400" height="400" viewBox="0 0 400 400" fill="none" xmlns="http://www.w3.org/2000/svg">
<g clip-path="url(#clip0_101_23483)">
<path fill-rule="evenodd" clip-rule="evenodd" d="M200.619 72.0018C200.413 72.0006 200.206 72 200 72C197.153 72 194.332 72.1144 191.542 72.3389C194.488 72.1313 197.513 72.0172 200.619 72.0018ZM200 280C150.823 280 109.618 245.867 98.783 200H301.217C290.383 245.867 249.177 280 200 280Z" fill="#253360"/>
<rect x="175" y="355" width="50" height="16" fill="#253360"/>
<path d="M196 301C188.5 281 183.5 280 176 277L201 270V360.5H183C183 360.5 183.211 358.035 183.5 348.5C184.5 315.5 197.448 304.861 196 301Z" fill="#253360"/>
<path d="M204 301C211.5 281 216.5 280 224 277L199 270V360.5H217C217 360.5 216.789 358.035 216.5 348.5C215.5 315.5 202.552 304.861 204 301Z" fill="#253360"/>
<path d="M179.957 293.823C187.327 290.431 199.746 289.291 203.28 291.266C200.331 291.436 191.509 295.306 186.171 300.769C179.956 307.13 181.106 314.603 174.764 319.778C168.403 324.968 161.239 318.973 162.409 313.124C163.635 306.996 170.745 298.063 179.957 293.823Z" fill="#253360"/>
<path d="M97.3486 228.64C100.251 236.216 100.576 248.684 98.3744 252.08C98.3974 249.127 95.1133 240.071 90.0109 234.387C84.0709 227.769 76.5381 228.427 71.7897 221.76C67.0265 215.073 73.4781 208.317 79.2379 209.867C85.2723 211.491 93.7206 219.17 97.3486 228.64Z" fill="#253360"/>
<path d="M157.135 284.65C168.015 284.786 183.714 290.559 186.857 294.986C183.187 293.494 170.274 293.1 160.661 296.642C149.47 300.766 146.557 310.48 135.896 313.095C125.202 315.718 119.977 304.329 124.763 297.919C129.778 291.203 143.535 284.479 157.135 284.65Z" fill="#253360"/>
<path d="M132.285 271.501C142.266 275.834 154.511 287.229 155.698 292.526C152.89 289.731 141.134 284.374 130.899 283.924C118.983 283.399 112.541 291.232 101.698 289.521C90.8212 287.804 90.4072 275.281 97.2999 271.22C104.521 266.966 119.808 266.084 132.285 271.501Z" fill="#253360"/>
<path d="M109.445 250.906C116.586 256.782 123.926 268.957 123.656 273.563C122.016 270.622 113.664 263.495 105.406 260.732C95.7932 257.516 88.697 262.409 80.2378 258.474C71.7522 254.527 74.3437 244.197 80.9256 242.492C87.8214 240.705 100.518 243.561 109.445 250.906Z" fill="#253360"/>
<path d="M220.372 293.823C213.002 290.431 200.583 289.291 197.049 291.266C199.998 291.436 208.819 295.306 214.158 300.769C220.373 307.13 219.223 314.603 225.564 319.778C231.925 324.968 239.09 318.973 237.92 313.124C236.694 306.996 229.584 298.063 220.372 293.823Z" fill="#253360"/>
<path d="M302.98 228.64C300.078 236.216 299.753 248.684 301.954 252.08C301.931 249.127 305.215 240.071 310.318 234.387C316.258 227.769 323.791 228.427 328.539 221.76C333.302 215.073 326.851 208.317 321.091 209.867C315.056 211.491 306.608 219.17 302.98 228.64Z" fill="#253360"/>
<path d="M243.194 284.65C232.313 284.786 216.614 290.559 213.471 294.986C217.141 293.494 230.055 293.1 239.668 296.642C250.859 300.766 253.772 310.48 264.433 313.095C275.127 315.718 280.352 304.329 275.565 297.919C270.551 291.203 256.794 284.479 243.194 284.65Z" fill="#253360"/>
<path d="M268.044 271.501C258.063 275.834 245.818 287.229 244.631 292.526C247.438 289.731 259.195 284.374 269.43 283.924C281.345 283.399 287.788 291.232 298.631 289.521C309.507 287.804 309.922 275.281 303.029 271.22C295.807 266.966 280.521 266.084 268.044 271.501Z" fill="#253360"/>
<path d="M290.884 250.906C283.742 256.782 276.402 268.957 276.672 273.563C278.312 270.622 286.665 263.495 294.922 260.732C304.535 257.516 311.632 262.409 320.091 258.474C328.576 254.527 325.985 244.197 319.403 242.492C312.507 240.705 299.811 243.561 290.884 250.906Z" fill="#253360"/>
<path fill-rule="evenodd" clip-rule="evenodd" d="M304 176C304 178.692 303.898 181.36 303.697 184H256.2C257.127 179.436 261.162 176 266 176H304ZM266.457 96H266C260.477 96 256 100.477 256 106V158C256 163.523 260.477 168 266 168H303.697C303.492 165.303 303.184 162.635 302.777 160H269C266.239 160 264 157.761 264 155V109C264 106.239 266.239 104 269 104H275.047C272.337 101.176 269.469 98.5046 266.457 96ZM97.2232 160H134C139.523 160 144 164.477 144 170V184H96.3031C96.1023 181.36 96 178.692 96 176C96 170.559 96.4178 165.216 97.2232 160ZM152 184V170C152 164.477 156.477 160 162 160H238C243.523 160 248 164.477 248 170V184H240V173C240 170.239 237.761 168 235 168H165C162.239 168 160 170.239 160 173V184H152ZM120 114C120 108.477 124.477 104 130 104H190C195.523 104 200 108.477 200 114V142C200 147.523 195.523 152 190 152H130C124.477 152 120 147.523 120 142V114ZM192 116C192 113.791 190.209 112 188 112C185.791 112 184 113.791 184 116C184 118.209 185.791 120 188 120C190.209 120 192 118.209 192 116Z" fill="#798AFF"/>
<path fill-rule="evenodd" clip-rule="evenodd" d="M208 142C208 147.523 212.477 152 218 152L238 152C243.523 152 248 147.523 248 142L248 90C248 84.4771 243.523 80 238 80L218 80C212.477 80 208 84.4771 208 90L208 142ZM232 140C232 137.791 230.209 136 228 136C225.791 136 224 137.791 224 140C224 142.209 225.791 144 228 144C230.209 144 232 142.209 232 140Z" fill="#384EC1"/>
</g>
<defs>
<clipPath id="clip0_101_23483">
<rect width="400" height="400" fill="white"/>
</clipPath>
</defs>
</svg>
