<svg width="400" height="400" viewBox="0 0 400 400" fill="none" xmlns="http://www.w3.org/2000/svg">
<g clip-path="url(#clip0_101_23396)">
<path fill-rule="evenodd" clip-rule="evenodd" d="M200.619 72.0018C200.413 72.0006 200.206 72 200 72C197.153 72 194.332 72.1144 191.542 72.3389C194.488 72.1313 197.513 72.0172 200.619 72.0018ZM200 280C150.823 280 109.618 245.867 98.783 200H301.217C290.383 245.867 249.177 280 200 280Z" fill="#253360"/>
<rect x="175" y="355" width="50" height="16" fill="#253360"/>
<path d="M196 301C188.5 281 183.5 280 176 277L201 270V360.5H183C183 360.5 183.211 358.035 183.5 348.5C184.5 315.5 197.448 304.861 196 301Z" fill="#253360"/>
<path d="M204 301C211.5 281 216.5 280 224 277L199 270V360.5H217C217 360.5 216.789 358.035 216.5 348.5C215.5 315.5 202.552 304.861 204 301Z" fill="#253360"/>
<path d="M179.957 293.823C187.327 290.431 199.746 289.291 203.28 291.266C200.331 291.436 191.51 295.306 186.171 300.769C179.956 307.13 181.106 314.603 174.765 319.778C168.403 324.968 161.239 318.973 162.409 313.124C163.635 306.996 170.745 298.063 179.957 293.823Z" fill="#253360"/>
<path d="M97.3486 228.64C100.251 236.216 100.576 248.684 98.3744 252.08C98.3974 249.127 95.1133 240.071 90.0109 234.387C84.0709 227.769 76.5381 228.427 71.7897 221.76C67.0265 215.073 73.4781 208.317 79.2379 209.867C85.2723 211.491 93.7206 219.17 97.3486 228.64Z" fill="#253360"/>
<path d="M157.135 284.65C168.015 284.786 183.714 290.559 186.857 294.986C183.187 293.494 170.274 293.1 160.661 296.642C149.469 300.766 146.557 310.48 135.896 313.095C125.201 315.718 119.977 304.329 124.763 297.919C129.778 291.203 143.534 284.479 157.135 284.65Z" fill="#253360"/>
<path d="M132.285 271.501C142.266 275.834 154.511 287.229 155.698 292.526C152.89 289.731 141.134 284.374 130.899 283.924C118.983 283.399 112.541 291.232 101.698 289.521C90.8212 287.804 90.4072 275.281 97.2999 271.22C104.521 266.966 119.808 266.084 132.285 271.501Z" fill="#253360"/>
<path d="M109.445 250.906C116.586 256.782 123.926 268.957 123.656 273.563C122.016 270.622 113.664 263.495 105.406 260.732C95.7932 257.516 88.697 262.409 80.2378 258.474C71.7522 254.527 74.3437 244.197 80.9256 242.492C87.8214 240.705 100.518 243.561 109.445 250.906Z" fill="#253360"/>
<path d="M220.372 293.823C213.002 290.431 200.582 289.291 197.049 291.266C199.998 291.436 208.819 295.306 214.158 300.769C220.372 307.13 219.223 314.603 225.564 319.778C231.925 324.968 239.09 318.973 237.92 313.124C236.694 306.996 229.584 298.063 220.372 293.823Z" fill="#253360"/>
<path d="M302.98 228.64C300.078 236.216 299.753 248.684 301.954 252.08C301.931 249.127 305.215 240.071 310.318 234.387C316.258 227.769 323.791 228.427 328.539 221.76C333.302 215.073 326.851 208.317 321.091 209.867C315.056 211.491 306.608 219.17 302.98 228.64Z" fill="#253360"/>
<path d="M243.194 284.65C232.313 284.786 216.614 290.559 213.471 294.986C217.141 293.494 230.055 293.1 239.668 296.642C250.859 300.766 253.772 310.48 264.433 313.095C275.127 315.718 280.352 304.329 275.565 297.919C270.551 291.203 256.794 284.479 243.194 284.65Z" fill="#253360"/>
<path d="M268.044 271.501C258.063 275.834 245.818 287.229 244.631 292.526C247.438 289.731 259.195 284.374 269.43 283.924C281.345 283.399 287.788 291.232 298.631 289.521C309.507 287.804 309.921 275.281 303.029 271.22C295.807 266.966 280.52 266.084 268.044 271.501Z" fill="#253360"/>
<path d="M290.884 250.906C283.742 256.782 276.402 268.957 276.672 273.563C278.312 270.622 286.665 263.495 294.922 260.732C304.535 257.516 311.632 262.409 320.091 258.474C328.576 254.527 325.985 244.197 319.403 242.492C312.507 240.705 299.811 243.561 290.884 250.906Z" fill="#253360"/>
<circle cx="200" cy="176" r="104" fill="#384EC1"/>
<path fill-rule="evenodd" clip-rule="evenodd" d="M301.217 200H98.7829C96.963 192.296 96 184.26 96 176C96 118.562 142.562 72 200 72C257.438 72 304 118.562 304 176C304 184.26 303.037 192.296 301.217 200Z" fill="#798AFF"/>
<mask id="mask0_101_23396" style="mask-type:alpha" maskUnits="userSpaceOnUse" x="96" y="72" width="208" height="208">
<path fill-rule="evenodd" clip-rule="evenodd" d="M280.339 242.047C295.123 224.085 304 201.079 304 176C304 118.562 257.438 72 200 72C172.757 72 147.96 82.4752 129.418 99.6175L132 100C132 100 135.776 104.592 140 106C141.521 106.507 142.687 105.375 143.713 104.38C144.71 103.412 145.574 102.574 146.5 103.5C147.988 104.988 148.693 107.054 149.382 109.077C150.316 111.813 151.221 114.468 154 115.5C155.073 115.899 156.237 115.573 157.356 115.259C158.718 114.878 160.015 114.515 161 115.5C163.5 118 168.5 122 168.5 122C168.5 122 173.909 116.286 178.5 115.5C180.682 115.126 181.132 115.759 181.747 116.624C182.608 117.834 183.793 119.5 190.5 119.5C191.937 119.5 191.249 118.095 190.469 116.501C189.447 114.413 188.267 112 191.5 112C197.88 112 198.479 113.204 199.149 114.549C199.845 115.944 200.615 117.491 208 118C209.936 118.133 210.418 119.082 210.874 119.978C211.632 121.468 212.316 122.811 219.5 120C223.896 118.28 225.03 118.574 226.72 119.013C227.917 119.324 229.392 119.707 232.5 119.5C234.927 119.338 234.789 117.374 234.624 115.039C234.395 111.81 234.117 107.87 240.5 107C246.864 106.132 247.868 110.62 248.748 114.557C249.389 117.424 249.965 120 252.5 120C258 120 258 126 258 126C258 126 261.929 125.428 265.5 124C268.203 122.919 265.5 134 258 134C258 134.229 258.001 134.471 258.002 134.722C258.016 138.299 258.037 143.837 255.5 145C248.504 148.206 250.175 149.713 252.488 151.8C254.143 153.292 256.126 155.081 255.5 158C254.932 160.652 248.677 164.207 248.5 161.5C247.309 143.236 242.226 147.971 239.714 150.311C238.169 151.751 237.596 152.284 239.5 146C240.704 142.027 229.5 152 229.5 152L239.5 154C239.5 154 235.792 156.707 234.5 160.5C234.022 161.905 234.872 162.955 235.923 164.254C237.711 166.462 240.08 169.39 237.5 176C232.215 189.544 221.691 190.648 214.293 191.423C210.493 191.822 207.518 192.134 206.5 194C205.071 196.62 207.322 199.347 209.669 202.19C212.248 205.314 214.944 208.579 213 212C210.75 215.96 206.838 220.688 204.5 217.5C199 210 195 209 195 209L192.5 217C192.5 217 195.5 222 200 225.5C202.5 227.444 204.113 236.183 202.5 235C196.103 230.309 195.794 229.045 195.278 226.94C194.907 225.425 194.429 223.475 191.5 219.5C190.185 217.715 190.305 216.726 190.521 214.957C190.797 212.69 191.229 209.143 189 201C188.448 198.982 187.343 200.522 186.116 202.232C184.681 204.232 183.079 206.466 182 203.5C181.29 201.547 181.07 200.227 180.861 198.965C180.463 196.574 180.1 194.39 176.5 188.5C175.282 186.507 173.293 188.335 169.013 192.269L169.013 192.269C165.908 195.123 161.597 199.085 155.5 203.5C153.21 205.158 153.018 207.599 152.81 210.241C152.563 213.367 152.294 216.775 148.5 219.5C146.041 221.266 144.168 216.094 141.887 209.797C141.146 207.75 140.362 205.585 139.5 203.5C136.616 196.519 138 191 138 191C138 191 136.76 195.5 133 193C130.898 191.602 130.673 189.947 130.457 188.352C130.164 186.196 129.887 184.15 125 183C123.506 182.649 120.743 183.176 118.354 183.632L118.354 183.632C115.271 184.22 112.81 184.69 114.5 183C117.444 180.056 117.15 179.623 116.154 178.156C114.815 176.183 112.206 172.34 114.5 158C115.14 154 103.5 149 100.5 154C99.9617 154.897 99.1981 154.828 98.3074 154.112C96.7957 161.169 96 168.491 96 176C96 233.438 142.562 280 200 280C228.557 280 254.426 268.49 273.22 249.856C271.739 248.042 269.954 246.47 268 246C267.375 245.85 266.747 245.593 266.126 245.339L266.125 245.339L266.125 245.339L266.125 245.339L266.125 245.339L266.125 245.339C264.67 244.744 263.252 244.165 262 245C261.406 245.396 261.282 244.929 261.07 244.128C260.747 242.906 260.218 240.906 257.5 240C255.332 239.277 260.794 237.552 263 238.149C264.228 238.482 264.275 239.221 264.331 240.095C264.401 241.201 264.485 242.522 267 243.5C267.985 243.883 268.757 242.895 269.576 241.847C270.522 240.637 271.531 239.347 273 240C274.964 240.873 277.784 241.555 280.339 242.047ZM255.5 164C254.28 165.525 254.981 168.78 257.5 169.5C259.294 170.013 259.171 168.409 259.049 166.803C258.942 165.402 258.835 164 260 164C266.926 164 275.5 163.5 278 157C281.854 146.98 277.5 140.5 277.5 140.5C277.5 140.5 279.5 139.5 282.5 141.5C283.599 140.401 285.611 139.625 287.119 139.044C289.04 138.303 290.143 137.878 287.5 137.5C285.252 137.179 282.515 134.552 280.827 132.933L280.827 132.933C279.526 131.684 278.849 131.035 279.5 132.5C281.5 137 277.5 140.5 277.5 140.5C277.5 140.5 277.587 149.656 274 153.5C269.677 158.131 267.666 158.347 265.685 158.56C264.459 158.692 263.244 158.822 261.5 160C260.399 160.743 259.555 161.138 258.822 161.48C257.635 162.035 256.736 162.455 255.5 164ZM235.866 204.882L235.865 204.88C235.602 201.965 235.319 198.84 237 198C238.976 197.012 241 200 238.5 205C237.132 207.736 239.5 208.187 239.5 208.187C239.5 208.187 238.591 208.899 237.788 209.663C236.991 208.881 236.09 207.835 236 206.5C235.965 205.98 235.916 205.435 235.866 204.882ZM237.788 209.663C237.854 209.727 237.919 209.79 237.983 209.851L238.057 209.922C238.111 209.973 238.164 210.023 238.215 210.072C239.251 211.049 239.73 211.5 237 211.5C236.073 211.5 236.859 210.547 237.788 209.663ZM247.5 217.687C249.628 216.775 249.362 217.989 249.046 219.432C248.842 220.362 248.617 221.388 249 222C249.852 223.363 247.975 224.066 246.242 224.716C245.989 224.812 245.738 224.905 245.5 225C244.497 225.398 244.201 224.079 243.89 222.688C243.722 221.939 243.55 221.169 243.26 220.637C245.395 219.209 247.5 217.687 247.5 217.687ZM239.5 222C237.498 224.288 240.405 222.547 243.26 220.637C242.704 219.617 241.716 219.468 239.5 222ZM215.5 242.5C215.5 242.5 212.221 238.004 213 234.5C213.323 233.046 213.35 233.054 213.806 233.173C214.761 233.424 217.601 234.171 229 223C229.573 222.438 233.5 226 233.5 226C233.5 226 226.5 228 232.5 235C228.774 237.006 227.945 240.19 227.386 242.338C226.969 243.937 226.702 244.962 225.5 244.5C221.344 242.902 215.5 242.5 215.5 242.5ZM195 238.5C193.7 234.926 190.359 231.633 187.721 229.033C186.3 227.633 185.084 226.434 184.5 225.5C187.5 225.5 199.4 234.5 203 238.5C206.417 242.297 205.9 245.794 205.553 248.135L205.553 248.136L205.537 248.242C205.525 248.33 205.512 248.416 205.5 248.5C204.167 248 197.52 245.432 195 238.5ZM205.5 248.5C205.5 248.5 213.551 250.797 216.5 251.5C229.316 254.557 246.5 254.5 246.5 254.5C246.5 254.5 221.5 256 206.5 251.5C204.477 250.893 205.5 248.5 205.5 248.5ZM154 224.5C152.096 224.228 152.623 222.112 153.103 220.185C153.306 219.372 153.5 218.593 153.5 218C153.5 215.791 156.512 220.024 157.5 222C158 223 155.933 224.776 154 224.5ZM238.5 183.5C237.066 182.982 234.5 189.928 236 190C238.349 190.113 238.776 189.709 238.5 187.5C238.434 186.969 238.625 186.338 238.809 185.732C239.109 184.744 239.389 183.821 238.5 183.5ZM212 196.5C213 194 217 195 217 195C217 195 214.785 199.456 213 199C212.054 198.758 211.536 197.661 212 196.5Z" fill="#253360"/>
</mask>
<g mask="url(#mask0_101_23396)">
<circle cx="200" cy="176" r="104" fill="#253360"/>
<rect x="66" y="40" width="252" height="160" fill="#384EC1"/>
</g>
</g>
<defs>
<clipPath id="clip0_101_23396">
<rect width="400" height="400" fill="white"/>
</clipPath>
</defs>
</svg>
