<svg width="400" height="400" viewBox="0 0 400 400" fill="none" xmlns="http://www.w3.org/2000/svg">
<g clip-path="url(#clip0_101_23402)">
<path fill-rule="evenodd" clip-rule="evenodd" d="M200.619 72.0018C200.413 72.0006 200.206 72 200 72C197.153 72 194.332 72.1144 191.542 72.3389C194.488 72.1313 197.513 72.0172 200.619 72.0018ZM200 280C150.823 280 109.618 245.867 98.783 200H301.217C290.383 245.867 249.177 280 200 280Z" fill="#253360"/>
<rect x="175" y="355" width="50" height="16" fill="#253360"/>
<path d="M196 301C188.5 281 183.5 280 176 277L201 270V360.5H183C183 360.5 183.211 358.035 183.5 348.5C184.5 315.5 197.448 304.861 196 301Z" fill="#253360"/>
<path d="M204 301C211.5 281 216.5 280 224 277L199 270V360.5H217C217 360.5 216.789 358.035 216.5 348.5C215.5 315.5 202.552 304.861 204 301Z" fill="#253360"/>
<path d="M179.957 293.823C187.327 290.431 199.746 289.291 203.28 291.266C200.331 291.436 191.51 295.306 186.171 300.769C179.956 307.13 181.106 314.603 174.765 319.778C168.403 324.968 161.239 318.973 162.409 313.124C163.635 306.996 170.745 298.063 179.957 293.823Z" fill="#253360"/>
<path d="M97.3486 228.64C100.251 236.216 100.576 248.684 98.3744 252.08C98.3974 249.127 95.1133 240.071 90.0109 234.387C84.0709 227.769 76.5381 228.427 71.7897 221.76C67.0265 215.073 73.4781 208.317 79.2379 209.867C85.2723 211.491 93.7206 219.17 97.3486 228.64Z" fill="#253360"/>
<path d="M157.135 284.65C168.015 284.786 183.714 290.559 186.857 294.986C183.187 293.494 170.274 293.1 160.661 296.642C149.469 300.766 146.557 310.48 135.896 313.095C125.201 315.718 119.977 304.329 124.763 297.919C129.778 291.203 143.534 284.479 157.135 284.65Z" fill="#253360"/>
<path d="M132.285 271.501C142.266 275.834 154.511 287.229 155.698 292.526C152.89 289.731 141.134 284.374 130.899 283.924C118.983 283.399 112.541 291.232 101.698 289.521C90.8212 287.804 90.4072 275.281 97.2999 271.22C104.521 266.966 119.808 266.084 132.285 271.501Z" fill="#253360"/>
<path d="M109.445 250.906C116.586 256.782 123.926 268.957 123.656 273.563C122.016 270.622 113.664 263.495 105.406 260.732C95.7932 257.516 88.697 262.409 80.2378 258.474C71.7522 254.527 74.3437 244.197 80.9256 242.492C87.8214 240.705 100.518 243.561 109.445 250.906Z" fill="#253360"/>
<path d="M220.372 293.823C213.002 290.431 200.582 289.291 197.049 291.266C199.998 291.436 208.819 295.306 214.158 300.769C220.372 307.13 219.223 314.603 225.564 319.778C231.925 324.968 239.09 318.973 237.92 313.124C236.694 306.996 229.584 298.063 220.372 293.823Z" fill="#253360"/>
<path d="M302.98 228.64C300.078 236.216 299.753 248.684 301.954 252.08C301.931 249.127 305.215 240.071 310.318 234.387C316.258 227.769 323.791 228.427 328.539 221.76C333.302 215.073 326.851 208.317 321.091 209.867C315.056 211.491 306.608 219.17 302.98 228.64Z" fill="#253360"/>
<path d="M243.194 284.65C232.313 284.786 216.614 290.559 213.471 294.986C217.141 293.494 230.055 293.1 239.668 296.642C250.859 300.766 253.772 310.48 264.433 313.095C275.127 315.718 280.352 304.329 275.565 297.919C270.551 291.203 256.794 284.479 243.194 284.65Z" fill="#253360"/>
<path d="M268.044 271.501C258.063 275.834 245.818 287.229 244.631 292.526C247.438 289.731 259.195 284.374 269.43 283.924C281.345 283.399 287.788 291.232 298.631 289.521C309.507 287.804 309.921 275.281 303.029 271.22C295.807 266.966 280.52 266.084 268.044 271.501Z" fill="#253360"/>
<path d="M290.884 250.906C283.742 256.782 276.402 268.957 276.672 273.563C278.312 270.622 286.665 263.495 294.922 260.732C304.535 257.516 311.632 262.409 320.091 258.474C328.576 254.527 325.985 244.197 319.403 242.492C312.507 240.705 299.811 243.561 290.884 250.906Z" fill="#253360"/>
<path fill-rule="evenodd" clip-rule="evenodd" d="M256 184C251.582 184 248 180.418 248 176C248 171.582 251.582 168 256 168L256 152L240 152C240 147.582 236.418 144 232 144C227.582 144 224 147.582 224 152L208 152L208 168C203.582 168 200 171.582 200 176C200 180.418 203.582 184 208 184L256 184ZM144 88.3491C144.183 88.2322 144.366 88.1158 144.549 88L160 88C160 92.4183 163.582 96 168 96C172.418 96 176 92.4183 176 88L192 88L192 104C196.418 104 200 107.582 200 112C200 116.418 196.418 120 192 120L192 136L176 136C176 140.418 172.418 144 168 144C163.582 144 160 140.418 160 136L144 136L144 120C148.418 120 152 116.418 152 112C152 107.582 148.418 104 144 104L144 88.3491Z" fill="#384EC1"/>
<path fill-rule="evenodd" clip-rule="evenodd" d="M303.697 183.994C303.697 183.996 303.697 183.998 303.697 184L256 184C251.582 184 248 180.418 248 176C248 171.582 251.582 168 256 168V152L272 152C272 156.418 275.582 160 280 160C284.418 160 288 156.418 288 152L301.217 152C302.444 157.196 303.282 162.542 303.697 168.006C299.419 168.165 296 171.683 296 176C296 180.317 299.419 183.835 303.697 183.994ZM98.7829 152L112 152C112 156.418 115.582 160 120 160C124.418 160 128 156.418 128 152L144 152L144 168C139.582 168 136 171.582 136 176C136 180.418 139.582 184 144 184L96.3031 184C96.1023 181.36 96 178.692 96 176C96 167.74 96.963 159.704 98.7829 152ZM160 184V184C155.582 184 152 180.418 152 176C152 171.582 155.582 168 160 168L160 152H176C176 156.418 179.582 160 184 160C188.418 160 192 156.418 192 152L208 152L208 168C212.418 168 216 171.582 216 176C216 180.418 212.418 184 208 184V184H160ZM208 152L208 136C212.418 136 216 132.418 216 128C216 123.582 212.418 120 208 120V104L224 104C224 99.5818 227.582 96.0001 232 96.0001C236.418 96.0001 240 99.5818 240 104L256 104L256 120C251.582 120 248 123.582 248 128C248 132.418 251.582 136 256 136L256 152L240 152C240 147.582 236.418 144 232 144C227.582 144 224 147.582 224 152H208Z" fill="#798AFF"/>
</g>
<defs>
<clipPath id="clip0_101_23402">
<rect width="400" height="400" fill="white"/>
</clipPath>
</defs>
</svg>
